<mxfile host="app.diagrams.net" modified="2022-07-29T22:42:06.612Z" agent="5.0 (Windows NT 10.0; Win64; x64) AppleWebKit/537.36 (KHTML, like Gecko) Chrome/103.0.0.0 Safari/537.36" etag="TP4-_lKuRKR5JhdGZ5nU" version="20.2.2" type="github" pages="10">
  <diagram id="DvHN5V_WR5HGB9ViClFX" name="00">
    <mxGraphModel dx="1038" dy="675" grid="1" gridSize="10" guides="1" tooltips="1" connect="1" arrows="1" fold="1" page="1" pageScale="1" pageWidth="827" pageHeight="1169" math="0" shadow="0">
      <root>
        <mxCell id="0" />
        <mxCell id="1" parent="0" />
        <mxCell id="VQodEPKvh1CIj2lslwGH-1" value="&lt;b&gt;&lt;font style=&quot;&quot;&gt;&lt;font style=&quot;font-size: 36px; line-height: 1.7;&quot;&gt;دورة اساسيات البرمجة بلغة السي شارب&lt;br&gt;C#&lt;/font&gt;&lt;br&gt;&lt;/font&gt;&lt;/b&gt;" style="rounded=1;whiteSpace=wrap;html=1;" parent="1" vertex="1">
          <mxGeometry x="110" y="100" width="550" height="180" as="geometry" />
        </mxCell>
      </root>
    </mxGraphModel>
  </diagram>
  <diagram id="hHVV68ODPGvb_Nqcuv5p" name="01- Introduction">
    <mxGraphModel dx="1038" dy="675" grid="1" gridSize="10" guides="1" tooltips="1" connect="1" arrows="1" fold="1" page="1" pageScale="1" pageWidth="827" pageHeight="1169" background="none" math="0" shadow="0">
      <root>
        <mxCell id="0" />
        <mxCell id="1" parent="0" />
        <mxCell id="RLTcbfZ5PioFtmUUPHwG-1" value="&lt;b&gt;&lt;font style=&quot;font-size: 24px;&quot;&gt;Introduction&lt;/font&gt;&lt;/b&gt;" style="rounded=1;whiteSpace=wrap;html=1;fillColor=#d5e8d4;strokeColor=#82b366;" parent="1" vertex="1">
          <mxGeometry x="246" y="40" width="300" height="60" as="geometry" />
        </mxCell>
        <mxCell id="aZVyg_Y2qPZxOVlfE4tv-1" value="&lt;span style=&quot;font-size: 24px;&quot;&gt;&lt;b&gt;What is C#&lt;/b&gt;&lt;/span&gt;" style="rounded=1;whiteSpace=wrap;html=1;align=left;spacingLeft=5;" parent="1" vertex="1">
          <mxGeometry x="130" y="120" width="300" height="60" as="geometry" />
        </mxCell>
        <mxCell id="aZVyg_Y2qPZxOVlfE4tv-2" value="&lt;span style=&quot;font-size: 24px;&quot;&gt;&lt;b&gt;.Net Framework&lt;/b&gt;&lt;/span&gt;" style="rounded=1;whiteSpace=wrap;html=1;align=left;spacingLeft=5;" parent="1" vertex="1">
          <mxGeometry x="130" y="200" width="300" height="60" as="geometry" />
        </mxCell>
        <mxCell id="aZVyg_Y2qPZxOVlfE4tv-3" value="&lt;span style=&quot;font-size: 24px;&quot;&gt;&lt;b&gt;.Net Core&lt;/b&gt;&lt;/span&gt;" style="rounded=1;whiteSpace=wrap;html=1;align=left;spacingLeft=5;" parent="1" vertex="1">
          <mxGeometry x="130" y="280" width="300" height="60" as="geometry" />
        </mxCell>
        <mxCell id="7ercc0uy7PiVB0fcgNYn-1" value="&lt;span style=&quot;font-size: 24px;&quot;&gt;&lt;b&gt;Download and install &lt;font color=&quot;#0000ff&quot;&gt;Visual Studio&lt;/font&gt;&lt;/b&gt;&lt;/span&gt;" style="rounded=1;whiteSpace=wrap;html=1;align=left;spacingLeft=5;" parent="1" vertex="1">
          <mxGeometry x="130" y="360" width="300" height="80" as="geometry" />
        </mxCell>
      </root>
    </mxGraphModel>
  </diagram>
  <diagram id="JPQDhPBy2dIiwqNmYWTk" name="Page-2">
    <mxGraphModel dx="1038" dy="675" grid="1" gridSize="10" guides="1" tooltips="1" connect="1" arrows="1" fold="1" page="1" pageScale="1" pageWidth="827" pageHeight="1169" math="0" shadow="0">
      <root>
        <mxCell id="0" />
        <mxCell id="1" parent="0" />
        <mxCell id="W4zewroX7LbVbsvw3q_P-1" value="&lt;b&gt;&lt;font style=&quot;font-size: 24px;&quot;&gt;Introduction&lt;/font&gt;&lt;/b&gt;" style="rounded=1;whiteSpace=wrap;html=1;" parent="1" vertex="1">
          <mxGeometry x="246" y="40" width="300" height="60" as="geometry" />
        </mxCell>
        <mxCell id="W4zewroX7LbVbsvw3q_P-2" value="&lt;b style=&quot;font-size: 24px;&quot;&gt;What is C#&lt;/b&gt;" style="rounded=1;whiteSpace=wrap;html=1;align=left;spacingLeft=5;fillColor=#d5e8d4;strokeColor=#82b366;" parent="1" vertex="1">
          <mxGeometry x="130" y="120" width="300" height="60" as="geometry" />
        </mxCell>
        <mxCell id="W4zewroX7LbVbsvw3q_P-3" value="&lt;span style=&quot;font-size: 24px;&quot;&gt;&lt;b&gt;.Net Framework&lt;/b&gt;&lt;/span&gt;" style="rounded=1;whiteSpace=wrap;html=1;align=left;spacingLeft=5;" parent="1" vertex="1">
          <mxGeometry x="130" y="200" width="300" height="60" as="geometry" />
        </mxCell>
        <mxCell id="W4zewroX7LbVbsvw3q_P-4" value="&lt;span style=&quot;font-size: 24px;&quot;&gt;&lt;b&gt;.Net Core&lt;/b&gt;&lt;/span&gt;" style="rounded=1;whiteSpace=wrap;html=1;align=left;spacingLeft=5;" parent="1" vertex="1">
          <mxGeometry x="130" y="280" width="300" height="60" as="geometry" />
        </mxCell>
        <mxCell id="ZjhfvXXIRIsPEOHpXfC0-1" value="&lt;span style=&quot;font-size: 24px;&quot;&gt;&lt;b&gt;Download and install &lt;font color=&quot;#0000ff&quot;&gt;Visual Studio&lt;/font&gt;&lt;/b&gt;&lt;/span&gt;" style="rounded=1;whiteSpace=wrap;html=1;align=left;spacingLeft=5;" parent="1" vertex="1">
          <mxGeometry x="130" y="360" width="300" height="80" as="geometry" />
        </mxCell>
      </root>
    </mxGraphModel>
  </diagram>
  <diagram id="xh8WeLDQ1b-0YZyX4drN" name="Dot net framework">
    <mxGraphModel dx="1038" dy="675" grid="1" gridSize="10" guides="1" tooltips="1" connect="1" arrows="1" fold="1" page="1" pageScale="1" pageWidth="827" pageHeight="1169" math="0" shadow="0">
      <root>
        <mxCell id="0" />
        <mxCell id="1" parent="0" />
        <mxCell id="76RYi3T5plphXKTiMnj0-1" value="&lt;b&gt;&lt;font style=&quot;font-size: 24px;&quot;&gt;Introduction&lt;/font&gt;&lt;/b&gt;" style="rounded=1;whiteSpace=wrap;html=1;" parent="1" vertex="1">
          <mxGeometry x="246" y="40" width="300" height="60" as="geometry" />
        </mxCell>
        <mxCell id="76RYi3T5plphXKTiMnj0-2" value="&lt;b style=&quot;font-size: 24px;&quot;&gt;What is C#&lt;/b&gt;" style="rounded=1;whiteSpace=wrap;html=1;align=left;spacingLeft=5;" parent="1" vertex="1">
          <mxGeometry x="130" y="120" width="300" height="60" as="geometry" />
        </mxCell>
        <mxCell id="76RYi3T5plphXKTiMnj0-3" value="&lt;span style=&quot;font-size: 24px;&quot;&gt;&lt;b&gt;.Net Framework&lt;/b&gt;&lt;/span&gt;" style="rounded=1;whiteSpace=wrap;html=1;align=left;spacingLeft=5;fillColor=#d5e8d4;strokeColor=#82b366;" parent="1" vertex="1">
          <mxGeometry x="130" y="200" width="300" height="60" as="geometry" />
        </mxCell>
        <mxCell id="76RYi3T5plphXKTiMnj0-4" value="&lt;span style=&quot;font-size: 24px;&quot;&gt;&lt;b&gt;.Net Core&lt;/b&gt;&lt;/span&gt;" style="rounded=1;whiteSpace=wrap;html=1;align=left;spacingLeft=5;" parent="1" vertex="1">
          <mxGeometry x="130" y="280" width="300" height="60" as="geometry" />
        </mxCell>
        <mxCell id="cvJvDVZYy_eNs-w4Ub2Y-1" value="&lt;span style=&quot;font-size: 24px;&quot;&gt;&lt;b&gt;Download and install &lt;font color=&quot;#0000ff&quot;&gt;Visual Studio&lt;/font&gt;&lt;/b&gt;&lt;/span&gt;" style="rounded=1;whiteSpace=wrap;html=1;align=left;spacingLeft=5;" parent="1" vertex="1">
          <mxGeometry x="130" y="360" width="300" height="80" as="geometry" />
        </mxCell>
      </root>
    </mxGraphModel>
  </diagram>
  <diagram id="HhpHnOLbaxBDhRDBtQNA" name="Dot net Core">
    <mxGraphModel dx="1038" dy="675" grid="1" gridSize="10" guides="1" tooltips="1" connect="1" arrows="1" fold="1" page="1" pageScale="1" pageWidth="827" pageHeight="1169" math="0" shadow="0">
      <root>
        <mxCell id="0" />
        <mxCell id="1" parent="0" />
        <mxCell id="c6MzQEe3jHfDzQTKcvOu-1" value="&lt;b&gt;&lt;font style=&quot;font-size: 24px;&quot;&gt;Introduction&lt;/font&gt;&lt;/b&gt;" style="rounded=1;whiteSpace=wrap;html=1;" parent="1" vertex="1">
          <mxGeometry x="246" y="40" width="300" height="60" as="geometry" />
        </mxCell>
        <mxCell id="c6MzQEe3jHfDzQTKcvOu-2" value="&lt;b style=&quot;font-size: 24px;&quot;&gt;What is C#&lt;/b&gt;" style="rounded=1;whiteSpace=wrap;html=1;align=left;spacingLeft=5;" parent="1" vertex="1">
          <mxGeometry x="130" y="120" width="300" height="60" as="geometry" />
        </mxCell>
        <mxCell id="c6MzQEe3jHfDzQTKcvOu-3" value="&lt;span style=&quot;font-size: 24px;&quot;&gt;&lt;b&gt;.Net Framework&lt;/b&gt;&lt;/span&gt;" style="rounded=1;whiteSpace=wrap;html=1;align=left;spacingLeft=5;" parent="1" vertex="1">
          <mxGeometry x="130" y="200" width="300" height="60" as="geometry" />
        </mxCell>
        <mxCell id="c6MzQEe3jHfDzQTKcvOu-4" value="&lt;span style=&quot;font-size: 24px;&quot;&gt;&lt;b&gt;.Net Core&lt;/b&gt;&lt;/span&gt;" style="rounded=1;whiteSpace=wrap;html=1;align=left;spacingLeft=5;fillColor=#d5e8d4;strokeColor=#82b366;" parent="1" vertex="1">
          <mxGeometry x="130" y="280" width="300" height="60" as="geometry" />
        </mxCell>
        <mxCell id="gZhS3Q3vLW3OMjmyzjAT-1" value="&lt;span style=&quot;font-size: 24px;&quot;&gt;&lt;b&gt;Download and install &lt;font color=&quot;#0000ff&quot;&gt;Visual Studio&lt;/font&gt;&lt;/b&gt;&lt;/span&gt;" style="rounded=1;whiteSpace=wrap;html=1;align=left;spacingLeft=5;" parent="1" vertex="1">
          <mxGeometry x="130" y="360" width="300" height="80" as="geometry" />
        </mxCell>
      </root>
    </mxGraphModel>
  </diagram>
  <diagram id="Td94ULEv0PIXymolhOeX" name="Page-5">
    <mxGraphModel dx="1038" dy="675" grid="1" gridSize="10" guides="1" tooltips="1" connect="1" arrows="1" fold="1" page="1" pageScale="1" pageWidth="827" pageHeight="1169" math="0" shadow="0">
      <root>
        <mxCell id="0" />
        <mxCell id="1" parent="0" />
        <mxCell id="6FGuiEheSaXHO_hEcei6-1" value="&lt;b&gt;&lt;font style=&quot;font-size: 24px;&quot;&gt;Download and install visual studio&lt;/font&gt;&lt;/b&gt;" style="rounded=1;whiteSpace=wrap;html=1;" parent="1" vertex="1">
          <mxGeometry x="260" y="220" width="336" height="100" as="geometry" />
        </mxCell>
      </root>
    </mxGraphModel>
  </diagram>
  <diagram id="FRLcInm7DU6DcNRZ4IWF" name="Page-7">
    <mxGraphModel dx="1038" dy="675" grid="1" gridSize="10" guides="1" tooltips="1" connect="1" arrows="1" fold="1" page="1" pageScale="1" pageWidth="827" pageHeight="1169" math="0" shadow="0">
      <root>
        <mxCell id="0" />
        <mxCell id="1" parent="0" />
        <mxCell id="fhG9X-DmR3XLQKZEptS--1" value="&lt;pre style=&quot;box-sizing: inherit; font-family: Consolas, &amp;quot;Source Code Pro&amp;quot;, Menlo, Monaco, &amp;quot;Andale Mono&amp;quot;, &amp;quot;Ubuntu Mono&amp;quot;, monospace; font-size: 15px; color: rgb(0, 0, 0); text-align: left; word-break: normal; overflow-wrap: normal; line-height: 1.5; tab-size: 2; hyphens: none; padding: 1em; margin-top: 1em; margin-bottom: 1em; overflow: auto; border-left: 4px solid rgb(4, 170, 109); background: rgb(255, 255, 255) !important;&quot; class=&quot;w3-white language-csharp&quot;&gt;&lt;code style=&quot;box-sizing: inherit; font-family: Consolas, &amp;quot;Source Code Pro&amp;quot;, Menlo, Monaco, &amp;quot;Andale Mono&amp;quot;, &amp;quot;Ubuntu Mono&amp;quot;, monospace; font-size: 1em; background: none; word-spacing: normal; word-break: normal; overflow-wrap: normal; line-height: 1.5; tab-size: 2; hyphens: none;&quot; class=&quot;language-csharp&quot;&gt;&lt;span style=&quot;box-sizing: inherit; color: rgb(0, 119, 170);&quot; class=&quot;token keyword keyword-using&quot;&gt;using&lt;/span&gt; System&lt;span style=&quot;box-sizing: inherit; color: rgb(153, 153, 153);&quot; class=&quot;token punctuation&quot;&gt;;&lt;/span&gt;&lt;br/&gt;&lt;br/&gt;&lt;span style=&quot;box-sizing: inherit; color: rgb(0, 119, 170);&quot; class=&quot;token keyword keyword-namespace&quot;&gt;namespace&lt;/span&gt; HelloWorld&lt;br/&gt;&lt;span style=&quot;box-sizing: inherit; color: rgb(153, 153, 153);&quot; class=&quot;token punctuation&quot;&gt;{&lt;/span&gt;&lt;br/&gt;  &lt;span style=&quot;box-sizing: inherit; color: rgb(0, 119, 170);&quot; class=&quot;token keyword keyword-class&quot;&gt;class&lt;/span&gt; &lt;span style=&quot;box-sizing: inherit; color: rgb(221, 74, 104);&quot; class=&quot;token class-name&quot;&gt;Program&lt;/span&gt;&lt;br/&gt;  &lt;span style=&quot;box-sizing: inherit; color: rgb(153, 153, 153);&quot; class=&quot;token punctuation&quot;&gt;{&lt;/span&gt;&lt;br/&gt;    &lt;span style=&quot;box-sizing: inherit; color: rgb(0, 119, 170);&quot; class=&quot;token keyword keyword-static&quot;&gt;static&lt;/span&gt; &lt;span style=&quot;box-sizing: inherit; color: rgb(0, 119, 170);&quot; class=&quot;token keyword keyword-void&quot;&gt;void&lt;/span&gt; &lt;span style=&quot;box-sizing: inherit; color: rgb(221, 74, 104);&quot; class=&quot;token function&quot;&gt;Main&lt;/span&gt;&lt;span style=&quot;box-sizing: inherit; color: rgb(153, 153, 153);&quot; class=&quot;token punctuation&quot;&gt;(&lt;/span&gt;&lt;span style=&quot;box-sizing: inherit; color: rgb(0, 119, 170);&quot; class=&quot;token keyword keyword-string&quot;&gt;string&lt;/span&gt;&lt;span style=&quot;box-sizing: inherit; color: rgb(153, 153, 153);&quot; class=&quot;token punctuation&quot;&gt;[&lt;/span&gt;&lt;span style=&quot;box-sizing: inherit; color: rgb(153, 153, 153);&quot; class=&quot;token punctuation&quot;&gt;]&lt;/span&gt; args&lt;span style=&quot;box-sizing: inherit; color: rgb(153, 153, 153);&quot; class=&quot;token punctuation&quot;&gt;)&lt;/span&gt;&lt;br/&gt;    &lt;span style=&quot;box-sizing: inherit; color: rgb(153, 153, 153);&quot; class=&quot;token punctuation&quot;&gt;{&lt;/span&gt;&lt;br/&gt;      Console&lt;span style=&quot;box-sizing: inherit; color: rgb(153, 153, 153);&quot; class=&quot;token punctuation&quot;&gt;.&lt;/span&gt;&lt;span style=&quot;box-sizing: inherit; color: rgb(221, 74, 104);&quot; class=&quot;token function&quot;&gt;WriteLine&lt;/span&gt;&lt;span style=&quot;box-sizing: inherit; color: rgb(153, 153, 153);&quot; class=&quot;token punctuation&quot;&gt;(&lt;/span&gt;&lt;span style=&quot;box-sizing: inherit; color: rgb(102, 153, 0);&quot; class=&quot;token string&quot;&gt;&quot;Hello World!&quot;&lt;/span&gt;&lt;span style=&quot;box-sizing: inherit; color: rgb(153, 153, 153);&quot; class=&quot;token punctuation&quot;&gt;)&lt;/span&gt;&lt;span style=&quot;box-sizing: inherit; color: rgb(153, 153, 153);&quot; class=&quot;token punctuation&quot;&gt;;&lt;/span&gt;    &lt;br/&gt;    &lt;span style=&quot;box-sizing: inherit; color: rgb(153, 153, 153);&quot; class=&quot;token punctuation&quot;&gt;}&lt;/span&gt;&lt;br/&gt;  &lt;span style=&quot;box-sizing: inherit; color: rgb(153, 153, 153);&quot; class=&quot;token punctuation&quot;&gt;}&lt;/span&gt;&lt;br/&gt;&lt;span style=&quot;box-sizing: inherit; color: rgb(153, 153, 153);&quot; class=&quot;token punctuation&quot;&gt;}&lt;/span&gt;&lt;/code&gt;&lt;/pre&gt;" style="rounded=1;whiteSpace=wrap;html=1;fontSize=36;fontColor=#0000FF;" parent="1" vertex="1">
          <mxGeometry x="120" y="80" width="540" height="460" as="geometry" />
        </mxCell>
        <mxCell id="fhG9X-DmR3XLQKZEptS--2" value="&lt;font color=&quot;#000000&quot; style=&quot;font-size: 18px;&quot;&gt;&lt;b style=&quot;line-height: 0.8;&quot;&gt;Simple c# application&lt;/b&gt;&lt;/font&gt;" style="rounded=1;whiteSpace=wrap;html=1;fontSize=36;fontColor=#0000FF;spacingBottom=9;" parent="1" vertex="1">
          <mxGeometry x="250" y="90" width="270" height="60" as="geometry" />
        </mxCell>
        <mxCell id="fhG9X-DmR3XLQKZEptS--3" value="&lt;font style=&quot;font-size: 18px;&quot;&gt;&lt;b style=&quot;line-height: 0.8;&quot;&gt;&lt;font color=&quot;#000000&quot;&gt;output: &lt;/font&gt;&lt;font color=&quot;#808080&quot;&gt;Hello World!&lt;/font&gt;&lt;/b&gt;&lt;/font&gt;" style="rounded=1;whiteSpace=wrap;html=1;fontSize=36;fontColor=#0000FF;spacingBottom=9;" parent="1" vertex="1">
          <mxGeometry x="250" y="470" width="270" height="60" as="geometry" />
        </mxCell>
      </root>
    </mxGraphModel>
  </diagram>
  <diagram id="-I6fj40tCCoHdWm32lTP" name="Page-8">
    <mxGraphModel grid="1" page="1" gridSize="10" guides="1" tooltips="1" connect="1" arrows="1" fold="1" pageScale="1" pageWidth="827" pageHeight="1169" math="0" shadow="0">
      <root>
        <mxCell id="0" />
        <mxCell id="1" parent="0" />
        <mxCell id="fLFPYrE-j4OJxhoNRhG7-1" value="&lt;pre style=&quot;box-sizing: border-box; font-family: SFMono-Regular, Menlo, Monaco, Consolas, &amp;quot;Liberation Mono&amp;quot;, &amp;quot;Courier New&amp;quot;, monospace; font-size: 15.75px; margin-top: 0px; margin-bottom: 0px; overflow: auto; border: 0px; background-color: rgb(255, 255, 255); text-align: justify;&quot;&gt;&lt;span style=&quot;color: rgb(33, 37, 41);&quot;&gt;&amp;lt;data type&amp;gt; &lt;/span&gt;&lt;font color=&quot;#0000ff&quot;&gt;&amp;lt;variable name&amp;gt;&lt;/font&gt;&lt;font color=&quot;#212529&quot;&gt; = &amp;lt;value&amp;gt;;&lt;/font&gt;&lt;/pre&gt;" style="rounded=1;whiteSpace=wrap;html=1;" vertex="1" parent="1">
          <mxGeometry x="120" y="200" width="410" height="40" as="geometry" />
        </mxCell>
        <mxCell id="fLFPYrE-j4OJxhoNRhG7-2" value="&lt;font size=&quot;1&quot; style=&quot;&quot;&gt;&lt;b style=&quot;font-size: 30px;&quot;&gt;Data Types&lt;/b&gt;&lt;/font&gt;" style="rounded=1;whiteSpace=wrap;html=1;fillColor=#d5e8d4;strokeColor=#82b366;" vertex="1" parent="1">
          <mxGeometry x="240" y="40" width="390" height="60" as="geometry" />
        </mxCell>
        <mxCell id="sgJSlGpSzGCGLwGSkQLY-1" value="&lt;pre style=&quot;box-sizing: border-box; font-family: SFMono-Regular, Menlo, Monaco, Consolas, &amp;quot;Liberation Mono&amp;quot;, &amp;quot;Courier New&amp;quot;, monospace; font-size: 15.75px; margin-top: 0px; margin-bottom: 0px; overflow: auto; border: 0px; background-color: rgb(255, 255, 255);&quot;&gt;&lt;span style=&quot;color: rgb(33, 37, 41);&quot;&gt;int &lt;/span&gt;&lt;font color=&quot;#0000ff&quot;&gt;num1 &lt;/font&gt;&lt;font color=&quot;#212529&quot;&gt;= 10;&lt;/font&gt;&lt;/pre&gt;" style="rounded=1;whiteSpace=wrap;html=1;align=left;" vertex="1" parent="1">
          <mxGeometry x="120" y="330" width="410" height="40" as="geometry" />
        </mxCell>
        <mxCell id="sgJSlGpSzGCGLwGSkQLY-2" value="&lt;pre style=&quot;box-sizing: border-box; font-family: SFMono-Regular, Menlo, Monaco, Consolas, &amp;quot;Liberation Mono&amp;quot;, &amp;quot;Courier New&amp;quot;, monospace; font-size: 15.75px; margin-top: 0px; margin-bottom: 0px; overflow: auto; color: rgb(33, 37, 41); border: 0px;&quot;&gt;Simple example:&lt;/pre&gt;" style="rounded=1;whiteSpace=wrap;html=1;align=left;fontStyle=1;fillColor=#dae8fc;strokeColor=#6c8ebf;" vertex="1" parent="1">
          <mxGeometry x="120" y="280" width="140" height="40" as="geometry" />
        </mxCell>
        <mxCell id="sgJSlGpSzGCGLwGSkQLY-3" value="&lt;pre style=&quot;box-sizing: border-box; font-family: SFMono-Regular, Menlo, Monaco, Consolas, &amp;quot;Liberation Mono&amp;quot;, &amp;quot;Courier New&amp;quot;, monospace; font-size: 15.75px; margin-top: 0px; margin-bottom: 0px; overflow: auto; color: rgb(33, 37, 41); border: 0px;&quot;&gt;Syntax:&lt;/pre&gt;" style="rounded=1;whiteSpace=wrap;html=1;align=left;fontStyle=1;fillColor=#dae8fc;strokeColor=#6c8ebf;" vertex="1" parent="1">
          <mxGeometry x="120" y="150" width="140" height="40" as="geometry" />
        </mxCell>
        <mxCell id="EwoWq3uh8jCEh_xF3Ljy-1" value="&lt;pre style=&quot;box-sizing: border-box; font-family: SFMono-Regular, Menlo, Monaco, Consolas, &amp;quot;Liberation Mono&amp;quot;, &amp;quot;Courier New&amp;quot;, monospace; font-size: 15.75px; margin-top: 0px; margin-bottom: 0px; overflow: auto; border: 0px; background-color: rgb(255, 255, 255);&quot;&gt;&lt;span style=&quot;color: rgb(33, 37, 41);&quot;&gt;int &lt;/span&gt;&lt;font color=&quot;#0000ff&quot;&gt;num2 &lt;/font&gt;&lt;font color=&quot;#212529&quot;&gt;= 20;&lt;/font&gt;&lt;/pre&gt;" style="rounded=1;whiteSpace=wrap;html=1;align=left;" vertex="1" parent="1">
          <mxGeometry x="120" y="380" width="410" height="40" as="geometry" />
        </mxCell>
        <mxCell id="EwoWq3uh8jCEh_xF3Ljy-2" value="&lt;pre style=&quot;box-sizing: border-box; font-family: SFMono-Regular, Menlo, Monaco, Consolas, &amp;quot;Liberation Mono&amp;quot;, &amp;quot;Courier New&amp;quot;, monospace; font-size: 15.75px; margin-top: 0px; margin-bottom: 0px; overflow: auto; color: rgb(33, 37, 41); border: 0px;&quot;&gt;Alternative&lt;/pre&gt;" style="rounded=1;whiteSpace=wrap;html=1;align=left;fontStyle=1;fillColor=#ffe6cc;strokeColor=#d79b00;" vertex="1" parent="1">
          <mxGeometry x="120" y="460" width="140" height="40" as="geometry" />
        </mxCell>
        <mxCell id="EwoWq3uh8jCEh_xF3Ljy-3" value="&lt;pre style=&quot;box-sizing: border-box; font-family: SFMono-Regular, Menlo, Monaco, Consolas, &amp;quot;Liberation Mono&amp;quot;, &amp;quot;Courier New&amp;quot;, monospace; font-size: 15.75px; margin-top: 0px; margin-bottom: 0px; overflow: auto; border: 0px;&quot;&gt;&lt;pre style=&quot;box-sizing: border-box; font-family: SFMono-Regular, Menlo, Monaco, Consolas, &amp;quot;Liberation Mono&amp;quot;, &amp;quot;Courier New&amp;quot;, monospace; margin-top: 0px; margin-bottom: 0px; overflow: auto; border: 0px;&quot;&gt;&lt;span style=&quot;color: rgb(33, 37, 41);&quot;&gt;int &lt;/span&gt;&lt;font style=&quot;&quot; color=&quot;#0000ff&quot;&gt;num1 &lt;/font&gt;&lt;font style=&quot;&quot; color=&quot;#212529&quot;&gt;= 10, &lt;/font&gt;&lt;font style=&quot;&quot; color=&quot;#0000ff&quot;&gt;num2 &lt;/font&gt;&lt;font style=&quot;&quot; color=&quot;#212529&quot;&gt;= 20;&amp;nbsp;&lt;/font&gt;&lt;/pre&gt;&lt;/pre&gt;" style="rounded=1;whiteSpace=wrap;html=1;align=left;fillColor=#ffe6cc;strokeColor=#d79b00;" vertex="1" parent="1">
          <mxGeometry x="120" y="510" width="410" height="40" as="geometry" />
        </mxCell>
      </root>
    </mxGraphModel>
  </diagram>
  <diagram id="MW9RW2XtdCi-kisr-oiJ" name="Page-10">
    <mxGraphModel grid="1" page="1" gridSize="10" guides="1" tooltips="1" connect="1" arrows="1" fold="1" pageScale="1" pageWidth="827" pageHeight="1169" math="0" shadow="0">
      <root>
        <mxCell id="0" />
        <mxCell id="1" parent="0" />
        <mxCell id="hhX6KWMGd0H6TuR86ZB9-1" value="" style="rounded=1;whiteSpace=wrap;html=1;fontSize=30;fontColor=#0000FF;" vertex="1" parent="1">
          <mxGeometry x="350" y="320" width="120" height="60" as="geometry" />
        </mxCell>
        <mxCell id="hhX6KWMGd0H6TuR86ZB9-2" value="&lt;ul&gt;&lt;li&gt;&lt;span style=&quot;background-color: rgb(255, 255, 255); font-family: Verdana, sans-serif, Geneva;&quot;&gt;&lt;font style=&quot;font-size: 20px;&quot; color=&quot;#1a1a1a&quot;&gt;Variable names must be unique.&lt;/font&gt;&lt;/span&gt;&lt;/li&gt;&lt;li&gt;&lt;font style=&quot;font-size: 20px;&quot; color=&quot;#1a1a1a&quot;&gt;&lt;font style=&quot;background-color: initial; font-size: 20px;&quot; face=&quot;Verdana, sans-serif, Geneva&quot;&gt;&lt;span style=&quot;background-color: rgb(255, 255, 255);&quot;&gt;Variable names can contain letters, digits, and the underscore _&amp;nbsp;&lt;/span&gt;&lt;/font&gt;&lt;font style=&quot;background-color: initial; font-size: 20px;&quot; face=&quot;Verdana, sans-serif, Geneva&quot;&gt;&lt;span style=&quot;background-color: rgb(255, 255, 255);&quot;&gt;only.&lt;/span&gt;&lt;/font&gt;&lt;/font&gt;&lt;/li&gt;&lt;li&gt;&lt;span style=&quot;font-size: 20px; background-color: initial;&quot;&gt;&lt;font style=&quot;font-size: 20px;&quot; color=&quot;#1a1a1a&quot;&gt;Variable names must start with a letter.&lt;/font&gt;&lt;/span&gt;&lt;/li&gt;&lt;li&gt;&lt;span style=&quot;background-color: initial;&quot;&gt;&lt;font style=&quot;font-size: 20px;&quot; color=&quot;#1a1a1a&quot;&gt;Variable names are case-sensitive.&lt;/font&gt;&lt;/span&gt;&lt;/li&gt;&lt;li&gt;&lt;span style=&quot;background-color: rgb(255, 255, 255); font-family: Verdana, sans-serif, Geneva;&quot;&gt;&lt;font style=&quot;font-size: 20px;&quot; color=&quot;#1a1a1a&quot;&gt;Variable names cannot contain reserved keywords.&amp;nbsp;&lt;/font&gt;&lt;/span&gt;&lt;/li&gt;&lt;/ul&gt;" style="rounded=1;whiteSpace=wrap;html=1;fontSize=30;fontColor=#0000FF;align=left;" vertex="1" parent="1">
          <mxGeometry x="74" y="120" width="680" height="340" as="geometry" />
        </mxCell>
        <mxCell id="hhX6KWMGd0H6TuR86ZB9-4" value="&lt;span style=&quot;color: rgb(24, 23, 23); font-family: Verdana, sans-serif, Geneva; letter-spacing: 0.238px; text-align: justify;&quot;&gt;&lt;b style=&quot;&quot;&gt;&lt;font style=&quot;font-size: 25px;&quot;&gt;Naming conventions&lt;/font&gt;&lt;/b&gt;&lt;/span&gt;" style="rounded=1;whiteSpace=wrap;html=1;fontSize=20;fillColor=#d5e8d4;strokeColor=#82b366;" vertex="1" parent="1">
          <mxGeometry x="220" y="40" width="390" height="60" as="geometry" />
        </mxCell>
      </root>
    </mxGraphModel>
  </diagram>
  <diagram id="jP0MXcN6zfcv2fJ5RLZ_" name="Page-9">
    <mxGraphModel dx="1865" dy="675" grid="1" gridSize="10" guides="1" tooltips="1" connect="1" arrows="1" fold="1" page="1" pageScale="1" pageWidth="827" pageHeight="1169" math="0" shadow="0">
      <root>
        <mxCell id="0" />
        <mxCell id="1" parent="0" />
        <mxCell id="s9aJ6b-TuL3HRLS-zrVm-1" value="&lt;b&gt;Mathmetical Operations in C#&lt;/b&gt;" style="rounded=1;whiteSpace=wrap;html=1;labelBackgroundColor=none;fontSize=23;fillColor=#d5e8d4;strokeColor=#82b366;" vertex="1" parent="1">
          <mxGeometry x="200" y="40" width="380" height="60" as="geometry" />
        </mxCell>
        <mxCell id="s9aJ6b-TuL3HRLS-zrVm-2" value="" style="shape=image;verticalLabelPosition=bottom;labelBackgroundColor=default;verticalAlign=top;aspect=fixed;imageAspect=0;image=data:image/png,iVBORw0KGgoAAAANSUhEUgAAA+AAAAG9CAYAAACVqBx9AAAAAXNSR0IArs4c6QAAAARnQU1BAACxjwv8YQUAAAAJcEhZcwAAEnQAABJ0Ad5mH3gAAO3hSURBVHhe7N0HdBRl3zZwZls6hE4Ivap0QlcUkA4BA0jvQUSRIqgoKCAIKkoREAi9i4AUqS+g9M4jvX1IKA8EyBOSHCAnyUn2XN/M7kyyO9mEJLvJZpfr957/+8juzO7s7Oae+5pyTz4QERERERERUY5jACciIiIiIiLKBSkBPF++fCwWi8VisVgsFovFYrEcXAoGcBaLxWKxWCwWi8VisXKwFGkC+LNnz1gsFouVS8W2l8VisVgsFst9S+nrKRjAWSwWy4nFtpfFYrFYLBbLfUvp6ykYwFksFsuJxbaXxWKxWCwWy31L6espGMBZLBbLicW2l8VisVgsFst9S+nrKRjAWSwWy4nFtpfFYrFYLBbLfUvp6ykYwFksFsuJxbaXxWKxWCwWy31L6espGMBZLBbLicW2l8VisVgsFst9S+nrKRjAWSwWy4nFtpfFYrFYLBbLfUvp6ykYwFksFsuJxbaXxWKxWCwWy31L6espGMBZLBbLicW2l8VisVgsFst9S+nrKRjAWSwWy4nFtpfFYrFYLBbLfUvp6ykYwFksFsuJxbaXxWKxWCwWy31L6espGMBZLBbLicW2l8VisVgsFst9S+nrKRjAWSwWy4nFtpfFYrFYLBbLfUvp6ykYwF+Fiv0vLv7fKvz0xRD07tIBrd5+E282bYY2nXpi8KiJmL1mHy49jLU9L4vFytFi28tivYIVHY6Tm+Zj0qiBeL9DS7z9VhNxu9wcbd/ri2HjfsKq/Vfx2NZ8LBaLxXK5Uvp6CgZwt65HOLvqU7SrnB8a+ftNrzR+FfD2wB+x519HBvH/Yf9Pg9GvX7+UGvz9HkTYnJbFejVL+Ru09RyLxXK3+i9OhH2MZmW9IVhsg9OWHkXr9MK03f8PMTZf5xWv/+3HT4NT+xb9+g3G93sibE/LYrFYTi6lbVcwgLtrxVzDbx/WRn7BcoP+ktKUQuif/7P9etmqCCxsb7B6D8O7cxBuc1oW69Us5W/D1nMsFsuNKvoyVg+sBt+sbJf1pdD+x8Pcca2uiIVob7BcVwa8Oyfc9rQsFovl5FLaKgUDuBtWzJkpaOxjuWGSSkD+Gr0wbdNZ3IuWp415iAu75uPTDlXMQZ0BnMXK9VL+Nmw9x2Kx3KOijo1HXa/UbaGpBF+83uNH7Lj8SJ4uCrcPL8WopsWhtZxOLE1gH6y/w0vFUooBnMViuVApbZWCAdzt6iE29iupOuVcgF+9L7Dvv7amlyoSF9aPQpMS5awC+MNjyzFxRH+EtGyCutUqo1xAYeT31EGj1cOrQFGUrloP73b/BNPWn8L9WMvXi8GV1WPRu0c3NC6ltVgOsRMR0BAhPXqgh1y9v1iPG1bzihX9L/5e8jUGdWiE10sVgo9eK76nAb6Fy6B60y4Y8dN2XIpUzWNZMf/iwK9j0fOdaggs6A29zhMFSlRGw44fYvr65ZjSr2fK+/fo0RfT9kbafp3/nsFv0z7Ce02ro2wRPxi0Gmj1PigUWBUN2w/E10sPITzGxnxiRR+dg9CeqZ+zR5+v8PstqfMUjfDjGzDn6xEY3K8fPpx3CP9ZOkpcV6nT9uw7Cdvu2uhoxf6LjeP7oGfKtD3Rb/J23FNPx3KpUv42bD3HYrHcoe5hTfdiqlPOtSjdaw1uqbd/Uj06iPH1fSymlcoDDSaftTod3fZ2Jgb/Pb0aX/dthjdKFoS3wQN+RSuh4XufYsmJ/1q/j6qi//0bS74ehA6NXkepQj7QS9s8gy8Kl6mOpl1G4KftlxBpa75Mb++OyvM8xLHlEzGifwhaNqmLapXLIaBwfnjqpG2sFwoULY2q9d5F90+mYf2p+4i1fL+YK1g9tjd6dGuMUlrL9aNBQMOQ1GXo0RtfrL+ROp9c/z3zG6Z99B6aVi+LIn4GaDVa6H0KIbBqQ7Qf+DWWHgq3fcp/9FHMCbXsO/TBV7/fMi1bdPhxbJjzNUZIp8R/OA9HlYMccj08txEzRvXAu0GVUbKQr/g5tdB5+MK/RCXUfqsD+o6cgsW7L/IsBxbLjUtpqxQM4O5WEevQs4iQ8n2aSlcdnx2Msj29RUXdvoxrD5V/x+D8tw2gs3yddEuPwNbTcDBCmTcaRz+vlql5dbW/wkmLjdXjM4vQv5b/S65ZF1CgZijWXI5JmU+p2Hv/h2/eKZ7J5ZbKgHYLHqpeJxb/7hiPFoHWR+/TlhaFGwzHusvRqvmfIfK3XihseZqhrj4m7t+DaV1fs7gsQID/+2sQuXsYylt1JHzR6peb1p0OsWKvzURzb8vpvPH2jMu8PtDFS/k+bT3HYrHcoP67Al0KqrbLPs3w85X0j2g//nMIymosphdLV/drnLHY6ZtmO6OtjI79W6C01ZFhi/KthU+23E6zbXn27DHOLOqPWv4a2/MpJRRAzdA1uKza8ZyV7Z1pnpjz+LaBLnX6jEofiNbTDqaGUzEIf14tM/PqUPurk6nLGfsvdoxvgcD01o1S2sJoMHwdLqtC9LPI39CrsOV3qEP9ifuxZ1pXvJY/9XHB/32sUQ4QxP4/bPmiGQI9lHkyKJ9OWPbY4v1YLJZblfK3rmAAd7OK2vcJKlmFuXwwvDkdl23tZc+wshLApdLjtdH78T/TvNkL4NHn56NjgPUR84zKt8FEHIuyWOaYy1jQsfhLB5yzrrQB/NGBL1HfYoP6svJ87UP8oTo1ME2HROy4FCvqYTVfSock+jA+U3UovJr+gEtWnZxYXP6xKTwtphEKdcKS8PQ7cCzXKOX7tPUci8Vy/Yra8xEqqLbLXu/OsX30W6moPfiogmp76NUa88NTp0mznclEaQJ6Yq3VdiMa5+d3RIBq+dIvXzSYeAxRKfNncXsnzZOVAC6V/jWM3i+fnZetAP4IB76sn4UxcTzx2od/4I7l95MmgAsoUKwoPKzmswzg/8PRbxrAL7PvyQDOYrl1KX/rCgZwN6v/LmoPL/m7NJcWFYf/n9XGMnMVg0szg1G9UUcM/Gw6Fv62GwdPnsN/zp3G4T0b8OuEnqjlbx1StRU/xl5TII7FzW0/YOzoEWhfyboDoS3fBh+NHo3Rco2d8ae5EyKG5zmt/K1O0fOpGoKvl+7E0bPncObgFsz7uDGKWB4REAqjy4q7Kcv8cGM/BKqOGGiLNsTgH9Zh7/FzOHf6b2xb0A+v6yynUQXw6BP4OsjT4nmxPCuh8+S12HfqNI7uWoPpfWqoNqo6VB6+1+rUvPQ7Rlp4FiiMosWLo3jxAFQZskmcPgbnpjS03pAb6mPyOYsj/DEXMK2JZYdGg8D+m3nKmhuU8p3aeo7FYrl+/XdBO6udp9J2oPLIfS/ZLt/D/NaqEKt7HWMOpp5xZXM7YyiO2q3fx4BhH2NwtzdRzuqsKak80WTahZTXiLk8B62stuU+qBryNZbuPIqz587g4JZ5+LhxEasd20LhLlhxN3VZs7a9E+eJuYSZwdXRqONAfDZ9IX7bfRAnz/1H3EYfxp4Nv2JCz1rwt3o9sR/z8V7z+oq9iW0/jMXoEe1VBxu0KN/mo5S+xejRYzHjz1um94s+8TWCPC2nzQfPSp0xee0+nDp9FLvWTEefGn7WlwjoKmO45eVpaQJ4amk9C6BwUekzFkdAlSHYJAXwR+vRy+psRA2KNR2JuRv+D8fEPs25kwexe8MifP9ZP7SqVgR6BnAWy61LaQsUDOBuVbG49kNT6OXv0lw61J90LgdOU47FlelvWr+XV0cseWQ5TeYHYYs++jmqWwZjrzcx7bzqFHNxwzunpeV1cQIK9ViHR6bnI7CmeyHVBvQNjNqnui3JnbloqRq4xTKApz1SoUONzw/JR/blEsPwj2/7WUwjdkiK9MC6lNP3bXRItOXw3oztOPVvpI3T/54h9sYctPS1mF5835rjjiNafj7m3LdoaLnc2qoY/dfLLytg5f1SvlNbz7FYLFcvabv8Vtrt8uSXbZcjsbZ7Qettmmqg1DTbGV11fPqXMqCbue7vHoFqqtOuPVvMkp+XzlarbnW2mteb03BedYp57E1x+2Q5sKtQCD3Wpb5PVrd3L63YK5j+pj719cTy6rhE3tbLlelB2KKw56MK1oPa6Wrg80PWA87GXPgRb/tZTCP2L4qI/YuHyjRpArgW5d6bge2n/kWkjTMZYs5PQUOrnf1aVB76p/VR9ZR6hEt/H8fNdMaUYbFYrl9KW6BgAHeryuUA/r2qU2FPAD/8OapZbqy838L0C7YCuK/F64kB/P01KQF8dTdVANdnJ4Crr8fWo9a4w6oAfhE/NUsbwNdmGMDLo+usXTh3x3ZothXAa4w7ZhHAJ6OB3uJ53WsM4G5Syndq6zkWi+Xqlf0Avi7LAbwGxh58bPEa6QTw5qkB/LDqcjHvt6bjgq0Abrl9EgP4+2syCuAZb+9eWmIA//4tBwbwYeWtA7i+FsYdVgXwiz+hWZoAvjbDAF6+6yzsOnfH5pkMNgP4kC3pDNz6GFePnsT/y+iSBBaL5dKltAUKBnC3qljcmJE2gNf9+oxdATzq9kn8sWg6xn3UD13bN0fjOm+gUpkSKOSjug7L0B4LUwZikyqzATwGF6Y0tOoECP61EDxwEAYNsqwB6FijgFWHRFf3G/OgNNGH8Nkb1sujazglTUci4wAegzPf1LW+dl1XBxNOqwd7i8XtX1pan1KorYjh/5fa2UjbMVKdUp6m7mDZe9Y7ELSVR2G/6ZT+GJz+2nq5PMTPdo57y92ilO/U1nMsFsvVKxY3bW2Xv7Ee0TxtPcaK9yx3OIulKYsPdmYUwG1sZ6QwqzqarCn7gfm5mAuY0tByuynAv1YwBlptd8Ua0BE1CliGT2n5U/sVWd/eKRWF2yf/wKLp4/BRv65o37wx6rxRCWVKFIKPVXgV+w7tF1pfcpXZAB5zBt/UVfUN6kzAafX2M/Y2fmlpffmZtuJw/J8yzoytQdgy2olybxE6WO1Ul0qAV7HX0KR9T3wwdgrmrd2NM+Hckc5ivQqltAMKBnA3q4ilwfCRv0tzaRA4eLv1EdxMVuzdA5jZrwFKZGYET6myHcD/h22DArM4eJq5tFVG4YC0gfzfdgwuZT2Ca4Guq/FY/V4ZBvD/4Y8BAdbLkc51Wf/bMQSlra4390GnZalHHrLTIYnY2A8Blq+pKYehOyNN16V/WcuyA5EfbealHSWd5ZqlfK+2nmOxWK5fj5Z3hm9K+y2VBmU+2Jnxdjn2Kn5QHQXOp6uFL09mcA24ze3M/7C5v2q7VqCr+bn/bcOgwJeMfG6ztKgy6kDKkd+sb+9icffATPRrUCLNIGbpVbYD+P/+wIAA68/o02lZ2r6BuJ52DCmd/vY/qwFcDPQrumZiUFh9YVTvPB6brjCIs1juXMrfvIIB3M0q+tBY1SBj+aCr/kWa+1K+tB4dwJf1VIOSKKX1gn+JcqgcaH00OvsBPBK/9y1q+71eUtrKI7HPFMB3YWhZ642sd8fFqaePKZVhAJeWQ3Wv1gLdsNpGAI/a+7HqWnEPtF+Uerp7to4I/G8vhlsNWqdBQL+NuK86PV8o1gNr79uYn+WSpXyvtp5jsViuX9HHvrAe40QsXdBEnM3oLKaHa9FdNeiXUKALVlpsYzMbwNMESyWAR/6OvkWt3yNzZT2IXFa3d9KdRur52X5frZc/SpSrjECrI+52BHDpMxazfq0C3WzsnH8Whb0fq64V92iPRcr6zmoAFyv29p/4omnmbouqrzQIG1V3U2GxWO5Tyt+6ggHc3erxHxhQUrVHWxOAHqvDX3LENBrX/lyGLaZ7a8fi/81rAz/L1xAKoHa/Gdh49Cr+K5+SFbGwPQyW02Q7gEdh34hKVhs+oVgI5h46juPHM64T5/6feUMaczbNaWbaCsOw+3+q98owgEdh/8jK1htgQ3PM/jftRjFNh0Mohr6/p46Ymq0ALn4Hx8fVtD4Vv0gIvvigqsUyaVFh2G6rEddZrl3Kd23rORaL5Qb1v534QLWDOJ+uKkbusxhl26picXNBexSy3IaI5f3ubNy0uE44c9uZh1gabD1mibbCR+bnovZhhNVOXwHFQubikI1trXWdwLn/l80zvmL/H+a1UY2hUqA2+s3YiKNX/yuHeht9h+wG8Kj9GFnZ+m4shuaz8W+a660j8VuvwlY74IViffG7ck/vbARwU8Xew6n10/HJ+81Qu1wheKru1JJaHnjr+8u2X4PFYrl8KX/rCgZwt6tI7PmoonWIFEtTvA1+PJY62JhVRV7Eb581Q4BHaXmAl7SnYmvKDsUuVZh9eQB/hEWqjaj+7Z+sOhBK3VsSjAIW0+XTVsCQ7f9NM51VRZzH3yf+lXcsRGJTvxLWe/kFX9Qeshyn7ps7AtH/vYAdM95TDbJmPQjb/aWdrJdDKIL3V99Ped5c/8O+Eaqg7tEUM66mBvXsBXBp4Jbv0Njqdik66CyPnOhqYdzx1FMQWa5fyndr6zkWi+UOFYW/x7ye5kiod+1R2GnjqOf/zv6C9qrTpqWBzzovvW21Iz1T25l7a9GjuPVr5e+4WH7+HpYEF7B6TlthCLb/12J+GxVx/m+csNgxnaXtXZpTwjUoO3SX6nT8TATwR4tUAVyPt3+ydWnWfSztZP0ZhSLvY7X6LLL/7cMIVVD3aDoDV5X+ShYDeOy9szj8n7R9rpiImzi1exV+/KgpSlj1RTQoOXBLmulZLJZ7lPK3rmAAd8OKvfor2qtOXZNK8K2EVsOmY8WfB3H67Ans37Iac78egHfK+Zj3+qaMsCqF2eLWe4L9W2HWxdRrlGLvn8Ti3uqjxeoA/hiru6o2fIXaYZ7pKLv0fAwi7v3XPNL33VV4X3WamC6gOb5Yfxb3VafpRd46ht+mh+LtMj4o0W9TytHgiM0DUMrW3mWdNwoW8oPesoOQUtYBPDZ8GUJU686j6kCsvawMfBOL8N2foUF+62l8m/2MyxbLmd0ALo30Pre19dEBy/Ju+iMucfA1tyrlu7X1HIvFco+K/Xc1uqvPTssnwKdSe4yaswH7Tp7FmcM7sOzbfqhXxPpsLql8G07CCWVAMLleup3573HM7VreOvgLRdF15Z2Uae6ueh/FrLaNOgQ0/wLrz95XhctI3Dr2G6aHvo0yPiXQb1M2z/iK3IR+xS23nwL8W83CxZTPFov7Jxejt/qotTqAP16NrgVSn5dep1C7eanb4ZgI3PuvtLNa3GYvC7FevnweqDpwLS4rBxViw7H7swbIbzWNL5r9fDl1HWQxgEcdGIUqPiXRuN/XCNv1H9xTXQYYe3sJOhWyfr3Xxxy0mobFYrlPKX/rCgZwt6xYXFvZCxUsb1uVmUoJ4OL8M5vBS/W8xjcQNRq+iUa1yqOwp7ojIVaaAJ72lGqpdP4VULdJE9StXAS+tb/CSdOGKQb/mdVKtZGUSoBHoXKoVq8RmjSuj5qVA+CbstdYQHGLAP4s5hJ+7VDs5YOeWJV1AJeOVJyc0hh+quUQvIrjtfoNEfRaAPys9lqL5VENo/7P+t6r2Q7gYt1d3iXNqYemEgoieLH1ERCW65fy/dp6jsViuUvF4vbmYXjDS9WuZ6K0Jdph9tm0g3Sl2c7k08C7RBXUbfQmmjSohlJ+aYO8T9AEHLUM8jH/waxW1qdem0rwQKFy1VCvURM0rl8TlQN8U3e4C8WzH8Bjr2FmM6/UaU2lgW9gDTR8sxFqlS9s8zTtNAE8+jjG1VR/Ph38K9RFkyZ1UbmIL2p/ddI8bdRJTGmsHtNGgFfx11C/YRBeC/BLc9agR7VR+D/L26pmI4BXtugr6PIHoHKtBmjStCma1Be/mwKqZTfUwOcHORAbi+WupfytKxjA3baicHH1MNQrZL0XOcPSVsTHe+UNwH+3Y1hl61PArMsDJUsVtQ67aQL4M8ScmYLGPhbTqEqXEsDFir2DPRPeQQnVYDXplyqASxVxHHN6voECNo+EF0WDnh3whtXrWw+eZqqYK1gz8HXVaPLplKEc3pt/Ns1otvYE8GePNqO/jZFpNSX7YZNq/bJcv5Tv19ZzLBbLnSoGNzZ9iiZF0wZj2yXAp0p3zDthvYNXqbQBPOPSBXbALzaCfOydPZjwTolMDRZmKnsCuFj/3T4Mla1OH1eVR0mUKmq9DUwTwKXbhk5pnMF2WpcawMWKubIGA1/3sTFd2jKUew/zz6be7s1UdgbwDEtXHC2+O2R9n3MWi+VWpfy9KxjA3byibu7F7OHtUTvAJ50jwwI8i1VHqwHfYPmh2+bTwZV5L6zGR41LqO5fKsAroBEGzDqAKwtedg24VNG4vH4kmgZ6pt3DLpau9nicsjo1Kwb/7p+HER1ro4SX5cZONV+B8mjY+RPM3PP/bBwRjkH4iY2YN/lTDBvUD/0GDMWn3/6K7f95iOizExFkGcCFguixztZAOPdxPGwk2r1eyHanRJsfFZsNwax9t21ugO0K4NI15p9YD0pnGnV21P6UUWdZ7lPKd2zrORaL5X4V8+8+zBvRAbWKedjcLkrhrkDFpug3eQP+Y3kUVlVptjOakmjYpiFKqbedgi8qtvkMv1lcRpamYv7F/nkj0LF2CXilG+rF5SrfEJ0/mYk9/8+eMU+icGH1R2hcQnWbNcELAY0GYNaBK1jwsmvApYq+jPUjmyLQ01ZfQQzg409ZT3//OMJGtsPrhWzvANHmr4hmQ2Zh320by57Va8Bv78GPg9qgVrp9L7HEfkSFpv0w7c9r3LazWG5eyt+9ggH8lan/4faZ/8Omtcuw8JeZ+HnWL/h12W/YdfImHtsYFC21HuPawU1YNn8OZs8Nw9o953AvO9cgR9/Ff/ZtxPIFv2DWzz9j9vzFWPPHAZwLV+1ltqzHt3D6/zZh9eL5mDNzJmb9Mh9hK3/H7mOX01wXnrmKwbmpTaxPrdfVxvhTGQ1qFoW7/9mPTSsXYu6smZg551cs+20PTt1Kb/RaR1Qkdg9T3Q7FIHZozmY2wLNcqZTv2NZzLBbLjSs2AteO78aG5Qswd7a0fZmPJWu34a/zdzMVyNILvtHhp7FjzSJxmzUH85dtwP5LD7N06dLjW6fxf5tWY7G43Z85cxZ+mR+Glb/vxrHL6uvC7azH13Bw0zLMnzMbc8PWYs+5e9l6/ei7/8G+jcux4JdZ+Pnn2Zi/eA3+OHAO4eq7oCgVJfZH9m/CyoVzMUvsW8z5dRl+23MKt5QRzx1aUbhz/iB2/LYCC+fNFpdPfD+x/7P6j/0Z939YLJZbldJOKxjAWW5UMbgwuysatuyDUVN/xW+7j+H8zXDcu3sLl07sxJLxnVFFdTq87o2xOJTVe6TndN1Zga5FrPfo+7X6BTcy3FHCctVSvmNbz7FYLFZ6Zd+ZViwWi8XKrVLaaQUDOMuNKgZnvq6T+evYNAHosszWbUucWTG4NONt6+vahKJ4f/U9G9Oy3KGU79nWcywWi5VeMYCzWCyWa5TSTisYwFluVFkI4IZSaD1lP+7bfB0nVvRhfF7N+vo0TbkPsOOxjWlZblHK92zrORaLxUqvGMBZLBbLNUpppxUM4Cw3qlj8u3kC3m/VENUrBKBQfi/oLEZD13gWRKk3mqDTh1Ox/vR/bczv/Ep7L3Mdanxx1GpwPJZ7lfJd23qOxWKx0isGcBaLxXKNUtppBQM4y70rNhqP/3sP9x7+z7GDx+RQxTy+jzvh4QhX6s5dRFjes5XldsW2l8ViZauiInD3juX24j4iszVAKYvFYrFyspS+noIBnMVisZxYbHtZLBaLxWKx3LeUvp6CAZzFYrGcWGx7WSwWi8Visdy3lL6eggGcxWKxnFhse1ksFovFYrHct5S+noIBnMVisZxYbHtZLBaLxWKx3LeUvp6CAZzFYrGcWGx7WSwWi8Visdy3lL6eggGcxWKxnFhse1ksFovFYrHct5S+niJNAGexWCwWi8VisVgsFovluFIwgLNYLBaLxWKxWCwWi5WDpUgTwImIKPew7SUiIiJyX+q+HgM4EZETse0lIiIicl/qvh4DOBGRE7HtJSIiInJf6r4eAzgRkROx7SUiIiJyX+q+HgM4EZETse0lIiIicl/qvh4DOBGRE7HtJSIiInJf6r4eAzgRkROx7SUiIiJyX+q+HgM4EZETse0lIiIicl/qvh4DOBGRE7HtJSIiInJf6r4eAzgRkROx7SUiIiJyX+q+HgM4EZETse0lIiIicl/qvh4DOBGRE7HtJSIiInJf6r4eAzgRkROx7SWHSnqCi7vXIuzXRVi1/TTux8uPExERkVOo+3qvYAA3Ij42CpGRUYh+kSQ/RkTkHK9O25ubknHrp7fhazDA4Fkc/bfkhRSaiDNf14GPh7hMBg8UDl6MB0b5KQdJvrsZH9f1h1Yw/6by5RPgXaUXll9PlKdQxOP0xIbwF5fFw68Oxh19Lj9OREREjqbu67lWADdG4eK+rdiyZQu2H78jdmeyITkcPzfVi59Vh0qjj2TvNVyaEVEX92GruA63bD+OO6/eCiDKU1yi7XUJRsRGPYWyWzVmeUd4SkFUVxmfHpUbOuMzPI12UqP3bCdCS2nN37cmAH3/iJGfcBDjXSzuUBAa8fUFQxFUrlYO/jpBfD8BBdouwj2LsB9/dhLqe4vPCXq8NvIvxMqPExERkeOp+3quFcATDmJEBXMHxqPNIkTKD5u9wKllEzBu3FeYtvkGkuVH03DrAJ6ZdZCAgyMqQCt93x5tsMh6JRJRLnOJttcVPP0TgyuUQJPRv+NGnBgydwxGCY24bvWN8cPNZBgjj2FWtyoo9taPuJLrJz8ZEbEsGP7S8ojfta7qWBxLkJ9yEOPdOWjmIYVqb7z9802x/Y/Dsc/egE58P8G3M1ZFyxMmnMO3DXwgiMFcX/UT7HfwfgAiIiKypu7ruVEAj8SiNh7ic1oEDtktxsx0uHUAz8w6YAAnyktcou3N8+JwYlwNGKQj3oIWBYM+wNLVI/GGTgyfXh0wY9tUdCjnKYZO8XlNMYSseiBG4lyUfBXTGnqY31/wwlszMthJnE2Jh0aiovh58+kqYuRh85Yt7vfuyC+tE30T/HhLescE/DO1EXzFxwR9FXy8j+mbiIgop6n7eq4VwMUuS/yzWMTExCD2hTo6M4Bndh0kxz9DrLgOY2JfvIKn4BPlLa7R9uZ1cbi1cwZC3ykLb4102rUUMPXQS0FTK/6v6VRs6bHCqBEyDstPR+ZqAI8/PAqVpXAsLoOmUAhWPXb8uyee/AKvS++hKYp+W16IjxgR8WtLeEjrwLMtwp4YkXB+Ghr7mk89rzxsD5SD4kRERJRz1H09FwvgGWEAz/Q6IKI8w/XbXrVEHJnYAnVq1UKtWkHou+yOw4/2pi8RD48vwxcdKsFbOvIrr1tBWwRBA37A1quxuXvk2+Qpfu9ZzHRtttQ2l/twH6R47HAxG9CjsEZ8Dw3y1+mPKT+NR6eKBtOp5h6NpuNa3EVMf9PPfOp5xaHY9TS31oR9v4fEIxPRoo40by0E9V2GO7n3YyIiInIIdV/PYQHcGHEQ8z4fjJAWDVCzShkU9/eCXquHp38JVApqjf4TluPkE1tbTiMid0/FwL590f+ztbhhmuQ5/v17JX748hMMGTQIH3wahlOmQVqfYu+0gejbtz9GrbicMthO0oUl+KRfdzQJlE5Pl0Z9bYne4uv1VarfUMw/LUdtdQBPeoTjS75Aj6avIcDfEwYvf5Sq2QofzD6ECBuLa4zcjakDxdfs/xnW3khC4oODmD/yPdSvUAS+Bj18ilZB037TsPuuEu3jEb5nJj7uVB8VivnBw+CNQmXrouOo5TgXk3EHKPbyRkwNbY96FYvD30sarbYwytRqiQGTf8dl1ag5WVkHT/dOM6/vUStwOb1rIY0xuPT7twhtXw8VS/jDS6+Hl39JVGnYHoMmLMSem8/kCYnIHva2vXlPPHYOLiEHTj0aTr+eawE86fEZrPmmB4KKS8HTvF5NJWjgW/FdDJu9CzdzecDv5PC5aCEddRaXQ9DXwcTzOXUBehxOTWoAP4sdD6b39KmJMfuf4OIPb5lORxd0FTBkR1Qu7oiw7/cQv1O+ll+cX99wOq7n1o+JiIjIQZRtssJhATzxyGhUkk+xkwKgoDXAy1MPTUpnQIA+sCPmX1Yfl01G+M9NoRen0VUahX2XfsOnzUqZR6+Vlymf4V3MjxC7C8b7mNPcID6mRelh+1OO8MbvCkWAvIG2WYI/emyMM0+cEsDF1+g8CqFBhcy3bBG0Yvj2hF4wd5Sk6/SqjdqX5hS95PCf0VQvPq8tg/dGhyKooNZ0REHQe8DLIP239J4CDBUHY/PN0/i11+vwMy2bAK2HFzx04rSmaTQo/O4cXLXZF3uGf+aHoLw0oI5pWTTQe3rBoFXmFeBXcxi23E/tQmV+HRhxf05zGMTHtKWHYb+tw+QxpzAzuIz5ekrTvOK68TRY3NomHzRF+skTE5E9lL8p9+GMAB6Nvya3QgVfjbmNFNss/wrlUVhsEwVDICqW8UppO/VFgzB4leOvwbYtEWcn1DSdCm9qt1svsBqN3OGMT3F2xZfo0/Yt1K/fBK17jcOy05FIuDwDb+fXiOtFh/Kh2xGZe+lbxABORESvNnVfz4EBfAzqVG6Ogd8sxLZTtxFjCpZGJMaE49iqMWhaVDo1TrodykJVByQ1gGt8A1CygNSBEgNsoQqo3agpmjashsCCrfFrBgHc+PAENq1ZhA9qS8Fag4ItvsSK1auxWqk1G3D0nrzVTgng5g6RvngDDJi+EacfxJmOCCREHMO8bhXN1w4a6mGK6hBxSgCX5hcMKPnmUMzeeRlR0sHl5Fhc2zQCQX7SNXYaeHt7QaMrhDp9pmHT2QjES28Qdxf7JjVHUalDoSmBflvUN4BJxr013RAohW1tIdQfugD7b0abj/YnPMaFLZPRoax0dEcM8B2X4K78sTK/Dl4SwJP/xeLg4qbOkuBTFV2nb8GFx+aJkqJv4eiGHzG0RXn4Fu5jeoyI7GNv25v3OCOAG/FgZYipXRX0xdF07GZc++tTVJF2CkuDTd48gV96VDUPPuZRE1+dzKX7gj/fhSGlc/DWY5mRdAU/Nysgfh8CdOUGYVvupm8RAzgREb3a1H09hwVwJMabA6ZNYucorJ359DefYCx/Kj9skhrApUDsUeZdjF15Go8tL86Of4E46bXTCeBmWb0GXAP/phNx+HHarbkxchVC/KUdBnq89dNtq85CSgDX+OPtiUdsHEmIw54PSplGGRd8gzBqx72015knncOEmvJRePFzWIn9E4Ole8UK3qj71VGb92eNO/klauqlo+618PU/ljsIMrMOMg7gUZt6mzs72kD0XP8gnY7SC9zYd1D+byKyh91tryQpDs9iY0wDVNqs2OdIyLXc5YwALkq6ijk9QzBxl7nNjf+jDwpJbZk+CN+adqTG4vySUAR/ugNWm6AcY0TE8k45euuxl0vCtVnNTcsgaMug/x9PxKXKba4awJMQJw/6arti8TzdPyp75iUiInej7us5LoC/RNLZCaghBVd9fUy9ahVpUwK4tmRP/PYog42SQwN4BoOwJV/Dd/XNAbncx39ZvVZKANdVwugjtuY24sFcc8DVFOmPbTYPtMTh9+4FTKdEerRfKj9m9nRtF1NnSRs4ENvTu8w6+TqmNxSXTzDgrZ8tdxDYGcCNT7A8OL/pDATPN2fI1+MTUU5yRNsbv7Wf6XRr5bXSlL4BvruWE3/QiTg9LxS9evZEz5TqjuaVlFO+NShaN9jiOan6YsIf9+X5c86Tha1N7Vw+bVl8dCDdLULOEbcj3zeSb32WQ7cee5mk63PQQtqZLIjbzH6bkQODr6vY93tIPD0Pob0sn+uJ7s0rwUu+/ElTtC6CLZ6Tqu+EP0zzOlz8VvQzDWpnfu+0pUeD767JE6vYMy8REbkdpf1XODyAJz65iF3LZ2D88IF4P7glmtavidcqlkFAIW/opI2oPgiTL1ketbW8Bnw0bGZaRW4FcOm1WkuvpUHxQTtgmaFfHsCBZyuCzbd+8e8J5dJzawnYO9R8lNzQfK78mCQB+4eVER8XA3CzKTh89izO2qzjmNHaR+zQaFHGaj3YGcAT9uAD0yBuetSeeD5lkDsiyjmOaHudF8Djsbl3QfnoZmZLj6ApV+T5c4rYzm0ci5DgYAR36oEfj2W0YckZ8UdGm0+BFz9zTt16LEPJNzC3pfm70Zbqg42PEnD/7/n4tFc7NHu7Odr3HoP5Bx84uJ237/cQv7k3Cmb0O7ZR+qAppnkdjgGciIgcRGn/FY4L4HHXsG5UM5T2lAcOS69cIoDHYGl7JYD/meUAHreuC3xMAbxHugH8r4/L2QjgMVjWQT5ikqnSoEj/bRbLZ2cAj16K9tLAb4IHOi63dfI7ETma8vdsj/jtg1DS0wCDIZ3yfRM/5Mi5u/HYOqAEPFXvp7cYMFKjt37OYPBB42lX5fndVTQ29TaPpSG1xzl267F0JePm/NbmMCtdTrThAf5d2Q2l9dbbZ8FQAYM2PxK3Co5i3+8hfusAlFD/jvVaCPIRcEGjt35OLJ/G00zzOlz8dgwq6Znm/VLLF2/+cF2eWMWeeYmIyO0o212FYwK4GIzX9ShlPsIt6FGkZjCGTZyDFZv34PDpS7h57zGenvkGdUynoDOApxvAjU+wsLX0+QToC1dG3aAgBGVY9dBi4iGLz2pnAH+yEK0N0nfojZA1udtdJHpV2dX25klOugY8D0m+Mw/v5sqtx2xLvrUAbQtJR2C1KNl9PR4824lQaWwRcZtWoE4ffPPtJ2heUieGYnFbE/QtrDbJDsdB2IiI6NWm7us5JIAnnfkK1aVQKnih1ojdNu+fnXRxEuoygMvSOwL+Ar918zN1inxC1iLrt6u1M4C/+A3d8kudRgOazb7nwKMiRJQee9revOlVD+BJOPd1rdy79Zha8r9Y2K6waf1rA97H2gdGJB4bYz4dXhuIIbulLVoybnzfyLTdFbw6YWWOnvDEAE5ERK82dV/PIQE8anE78zXPnm0R9sR2TyPnA3gUwtqaQ3OJwdbXbVvJ0wE8CRcm1jGvi8qjcTjdvQjpycw6yCCAJ53HRPk2ZkV7b7Y5AjsROZY9ba9jGPFgzyyMHzcO48Z9hR+3h8uPZ1d2ApejlyE7HLQMz3fjgzLZvfWYvcuQjNthHVDEdOp5CXRZfV98RfEb2TEIxaXH9DUw4Zx5+xu7rAM8pGU0tMICq+vT88LvIVV2ArjxwR7MGi8t/zh89eN2hDO0ExGRE6n7eg4K4G1NG3LBuxNWptPXSDqnjIKeUwE8Duu7+pqOHvuGrE4/PObpAC6uJ9PZBILYcSuCjkvuvKSjkogEq0XIzDrIIICLr3fis9egE5/T+LfBgtsZvHtilvcOEJEN9rS9DmF8hLC23uZrdMV2bcRBm41WFmQjcDl8GbLBIctgxKMV76UMJJblW4/ZuQzJ4UsQXFQ69VzcdoWsTDnynnjqC7wuHQHX+KPT8ghxKV/g7xGVTW29tmQodlkuY174PVjIegAXv4OwtvA2nYEgbudHHBS3jERERM6j7us5JIAnnv4S1Uwb94JoNfuKVWCV7r16ZdMEtC8vDy6WYwE8Cecm1DS9jqZIMJbcTWcrnccDOIwPsLZbgOk5jV9NhC4/j5g0JxXE48GJ1fg6pC76rLK8V1lm1kFGAVz8fLcXom1BcwfOv9Hn2HlXPUEUzq/7Ch0bDJUfICJ72NP2OkTsBnQ3/c0L8Gw0HVZ3icyWbAQuhy9DNjhiGZKv4YfGdtx6zJ5lSL6DZZ2Lmda7plhnLLtjMXPcXxhewXxUXuNTCrWDKqOgThpwU9wODj9gPUBcXvg9WMh6AI/Fhu7mkdgFz0aY7pQfExERUSp1X88hAdy84TeP+Cpo/FDhzffQNzQUA3p0QOMKBaATtPAvW9Z8VCDHArgYPy9MQX0v6RpmseNQqiFC+g9BaP9uaNukPoZvl2N0Xg/gIuOTvfi8vr+5wyJ2kPwrNES79/sjNHQAenRugbql/cwD3uXzQPAK65uFv3wdZBzApe/jzvq+qCSNhi6+hsa3DBq074lB0nt3ao7agT7QiO+tKdRHnp6I7GFX2+sA8buHIFArLoOmEEJWPRZbCPs9f3gDV69cwZUrVxEelVGjbpYTy5BVjliGhKPytdbi95mdW49lfxmScXdFiPk0c01RBC8JV4VcIx7vGoMgf41554BUgh7Fm03CoafW75IXfg9Wnj/EjavSvFdwNTwqnW22hfjdGGK6naYGhUJW5cK9z4mIiDKm7us5JoCLjNEnMLNrFfhppOAmb+DFAKcvVAPdvt2Bm2cm5vA14JJ4XF7SB2/k16Z2MqQS/NFDScIuEMBNnl/Bhi87o0YRvfVnMX0eDTwD6qDD0O+w/ZblupS8bB28LIBLkvHw75/Qt34J07X91u+thV+5t9B36i55WiKyh/K35RyJOD62ivlU5PIfYb9Tbn7gLstg763Hcn49JD3+B3+umIuZM+dj9d6riE5zcDgvfBf2STw+Vh5wrjw+csUPQEREbkfd13NYADdLQuSVA/h9+SIsDFuJTfsvIMIyveaS5KfXcfCPVVi8YCGWrNqEPSdv4WkWd7rnGYlRuH5sB35bEYYFC8KwfO0WHDh3F7EvOavOMesgGbHhp7B742osXbQIS9f8gQPnH+AFjygQOYxj2t5sSrqCKUF6SPf+rzflktiCO4GbLIPx7ny08jPvgM7Wrcf4XThAEq5MCYI+nwCPelNy+PZqREREmaPu6zk4gBMRUVY4s+013vsFzT0FaPyDsSzCOXvW3GMZkvDPxNp23XqM34UDGO/hl+aeEDT+CF4mDTZHRETkfOq+HgM4EZETObPtjVrZGfkFLcoO3YPn8mO5zV2WwZichMTERLGSkJyN5MfvwgGiVqJzfgHaskOxxyU/ABERuSN1X48BnIjIiZzX9hoRffkAtm3dibNOO9rJZTDjMjiCMfoyDmzbip1nefSbiIjyDnVfjwGciMiJ2PYSERERuS91X48BnIjIidj2EhEREbkvdV+PAZyIyInY9hIRERG5L3VfjwGciMiJ2PYSERERuS91X48BnIjIidj2EhEREbkvdV+PAZyIyInY9hIRERG5L3VfjwGciMiJ2PYSERERuS91X48BnIjIidj2EhEREbkvdV+PAZyIyInY9hIRERG5L3VfL00AZ7FYLBaLxWKxWCwWi+W4UjCAs1gsFovFYrFYLBaLlYOlSBPAiYgo97DtJSIiInJf6r4eAzgRkROx7SUiIiJyX+q+HgM4EZETse0lIiIicl/qvh4DOBGRE7HtJSIiInJf6r4eAzgRkROx7SUiIiJyX+q+HgM4EZETse0lIiIicl/qvh4DOBGRE7HtJSIiInJf6r4eAzgRkROx7SUiIiJyX+q+HgM4EZETse0lIiIicl/qvh4DOBGRE7HtJSIiInJf6r4eAzgRkROx7SUiIiJyX+q+HgM4EZETse21Fr8rFIF6LbRaLTybfC8/mjn2zEtERESUE9R9PQZwIiInYttrLX7nYJTQmNeJvuF0+dHMsWdeIiIiopyg7usxgBMRORHbXmsM4ERERORO1H09hwVwY3wsoiIjERX9HEnyY2TJiPjYKERGRiH6OdcQEZnZ2/aaPcO1Ld9hcOs6KFfMH34FiqB0tXfQc9wynHqSLE+TvmfXtuC7wa1Rp1wx+PsVQJHS1fBOz3FYduoJXj63Y7l2AI/HH/2KwcNggEEqn3qYdIHtPRER0atM3ddzUAA34v6c5jCI82tLD8P+BPlhZzNG4eK+rdiyZQu2H7+DRPlhpzDex5zmBnEda1F62H7klVVERM5lX9srMj7CztF1UUAOntYlwKN8dyy/mV7rZ8SjnaNRt4DGxrz5IHiUR/flN3O17XT1AL5jUAlolHWob4hp13N7Fwbw4sRM9O8cjODgzuj383G8kB8nIiKi3Kf0qxTuHcATDmJEBa3pc3m0WYRI+WGnYAAnIhvsbXsf/9YjJXTm0/iiTIO26NS6ForrBfm1NfBvtwh3jfIsFoyPf0OPEkr41sC3TAO07dQatYrrIcjLpfFvh0W2Zs4hrh3AE/DXx2WhldddPsM7mH0v99adSeJFTGvkk/L9CV71MOkstzhERETOYuoTiKVgAM8tDOBEZINdbW9yOGa942kOW4Ie1cccRqz5Cdxd/h6KyWFU8GqLsCfqIJiM8FnvwFOQphGgrz4Gh80zI/nucrxXTA7mghfahj0RW/nc4doBPBHHP6sKnbTepPJog7Bc3fCI3+nCtigorgNB4wUfL2knjID8zWbiGs+EJyIicgpTn0AshXsHcLEzEv8sFjExMYh94dQT0BnAicgmu9re+O0YoARlXRWMOWbRzkUuQhsP82vn0zfBj7fUp0LHY/uAYvLp0jpUGXPM4lTzSCxq4yEvmx5NfryVa9eCu3YAT8L5b2pBb1pvYgj27IzVuXj+t/Hx7+gVKO101qBoyBLsmdwAXtIOFk1hdFh8J9e+QyIiIkpl7k+9MgE8D2EAJyIb7Gp7E3YhtKQcwDXF0G/Lc/kJ4NmeoSinNb+2pnBvbE59SpaAXaEl5QCuQbF+W5AyybM9GFrOfPaQFN56p505x7h2AE/GjekNUwO4f09sipOfynGx2D+8MvRi4Ba8G2HapSTxe9yP4ZV1pjMktCV74rdHuXw6PBEREZn7U2IpcjeAx9/G7p8/QqcGlVHC3wsGDz8UKVsbrQd9i41X5HMf05P4AIcXfIoujSujmJ8BOr0PipSvh86j52HHxp8wtF9f9Ps4TJ5Y8RR7pw1E3779MWrF5XRGZzci5tLv+Da0PepVLAF/Lz30Xv4oWaUh2g+agIV7buJZSp/FiIiD8/D54BC0aFATVcoUN02v1XvCv0QlBLXujwnLT8LmoMMM4ERkg11tr/ERlnbML1/vq4F/y7mQDnTHXVuJXpUM8qnpOlT6eH9quE5hxKOlHZHfdAq6dK13S8w1z4yVvSrBIJ+arqv0MfbnXv528QBuxL05zUzbQtM6LTEYO+Llp3JYwplvUNdTMH3flYcfwDPTo+I2a01X86UI4uPlh+wQt4pERESUm6Q+gVSKXAvgyfe3Y0RQgZTRYQWNHp4eOghy50/wqoI+K6/bDKbGiD0Y16QwtMq0YkfCw0OfMq9SmmID5DlkLw29MTg1MxhlDMpgRQK0Bk8YtMq/xdIUQb+tSg8qEUdGV0q9vk+QpveCp16TMuCNdB1mYMf5uKx+MwZwIrJBaWuyK3Z36pHufBp/NOjaBTX9lTZJgwL1v8LBaHlitdjdqUe6pQDfoCu61PSHRgnlBerjq3RnzhmuHcCBqLC28DCtT3F7WO5j/JUbjX3ydcxqbt4RoynWBasfWhzpTr6GGU19Tc8J+tfx6aFc3JtCREREpj6BVIrcCeAJ5zGtidQ5EANr8ab4dOUJ3DedlpeIJxc3Y1L7sqajLYLHG/j0b9WR8KSrmN1C7BCKr60pUBsDf9mLG9HSsewkPH98A8c3z8aId0qaRp3NWgBPxr+Lg1HcdGTAB1W7TseWC4/N0yRF49bRDfhxaAuU9y2MPlssAviYOqjcfCC+WbgNp27HmI+qGxMRE34Mq8Y0RVHT6xVA24X3xLVigQGciGywr+0VGR9hc/+y0Kl2SApaf9Ts/ytOR2d02rERjzb3R1mdxU5HqQQt/Gv2x6+no63bsVzg6gH8xZr3zNddi8ugq/oZjuf48CPi9ndliHyU2wdNfriS5myvF0fG4HXTqPgCvIImgoOiExER5R6lf6XIhQBuRMSKzuZRWQ3VMfaw+cQ4KwmX8ePb5oDu9eaPSL1tqhFP1r9v6lgI+ooI/dP2SLxRi81HHLIUwKM2obfp9jtaBPZcjwfpjE7z4sY+HLyR2p1JjI+3uQwmxgcIa2f+HD7By61P9WMAJyIb7Gt7RYl3sX1UkPV9wLUB6LIiPGVQtaQX5sEoY2JiYT0eZSLubh+FIKv7gGsR0GUFwlNnRqxp3twZzNLVA3jcpl7wlwO4vvZEnLd97ZPjxO7DJ2/kh4+3D/LXGIODtg5wG59g04AK8PX2hrdPCbSdd1N+goiIiHKa0sdS5HwAN0ZgUVvpnqQCfNsuguWZcZaebe1v7jjpg/DtZbnHYnyExe2lU+cEeDf/BXfSCclZD+BisF8ebLr2UfB8EzNupPPCWZaEsxNqmAbg0defiquWL8sATkQ22NX2JlzBws6lTANvKa9jLrG9rTceR0wnFMVhdWdlRHMDWi14LO9ETMCVhZ1RKuV+4akl+NbDePPMiFvdOeWUakOrBXicw4fEXT2AS8sQoCxDo+lw2OaFiIiIXJLUJ5BKkfMBPH4nQgOkoyt61J96Nf3boEQuQTvpnqWCN4JXyNccJuzBENMtVfSoO+liOoOoZSeAJ2DPB4Gm09azd4RCOnV+F5bPGI/hA99HcMumqF/zNVQsE4BC3uYRZ/VBkyENQpuCAZyIbMh+25uAc5PqwVsO3xr/BhgxZSBelwbikl5T0KF09zW4kxSB+e9KbY/0WH68v8E8LHfCuUmo5y1PK107PmIKBr4u31NcDPC60t2x5k4SIua/a2rbpcfyv79BjPM5y9UDeMLfw1OuyTc0m4P7ObzDgoiIiPI2U19LLEXOB/BoMVhL96IVPMRgbeP0c4VlUP/umvmx56vQydSZ9EDbxVHmx2zIegCPxtL2HqYj6x4dl+Ml469bibu2DqOalYZnmiNO1sUATkSZobQZWfZ8Owaa2kxxfsEPzWfdRLLYslye08o8FoX0uKYAGn89Gx9U1Jn/ra+JCeekhuk5tg8MkAfFFODXfBZuJovh8fIctCqqnI6uQYHGX2P2BxXlgSf1qDnhXLo7Qh3F1QN44onP8JrOvAwebcOQ/paLiIiIXgXmflVuBvAnC9HaIL624I2QtS/kB21I2IcPSytHuy+ZH7MI4O0Wp3/zlKwH8CdY2Fp6XIB3yBpksFRWjPfXoUcp8xFuQV8ENYOHYeKcFdi85zBOX7qJe4+f4sw3dcynoDOAE1EmZLftTTw1Dm/IQS+foTl+UQ61Gp9g50evp+wkFLTalDtIaMuI7bM0pmTiKYx7Qw7l+Qxo/st9+bR0I57s/MjiKLo4r3JXCG0ZDDPNnLNcPYAbI09i/fy5mDt3LhbsuJ7jOyyIiIgobzP3t3IzgMdtwPv5pQ6c1Ml7IHfybHixAd0LKNPdNz9mcVQ86Nv07uOdnQD+Ar91M9+yxdBsNu5l6hTBJJz5qropXAtetTBid4SN0+mTcHFSXQZwIsq07La9Cfs+RGnl9mOGVlhgeXF2wiXMaVU05baP5tKh4oiDMEXolB2e0uOW14VLEnDJ8ii6XLqKI3Aw5/O3ywdwIiIiIktKX0qR8wE86SIm1tGLr61BwKA/0z3anHhaPpqjLY1hygsY7+GX5tI1ieYB3CLSCcpZD+BJOD+xtikoa4r2xuZMnYMehcXtzKete7YNwxOby8IATkRZk922N+nSZATpzfPm0xREh8V3rXZwGh9vw6DySsgWS/c6Pj8pj2KedAmTg6R2WXpOg4IdFuOu9czYNqi8aZwM8zQ6vP75yZRR1S0ZH+zBrPHjMG7cOHz143aE2znoWG4HcEcvf9LtTfgsuB6q1XwH/eecQIZ3gZM5ehmIiIgo7zD3pXIzgItdtpNfvG66hlBTrCvW2EzRz3Dg40qmabQlB2J7yqXiybgtvq6PkA+CoRpGHnia5gh6wt29+LZV1u8DnnKdnsYfbRbcTn9wOHH5E0y9TjGAt5VGEhbg3WklYkzPqSXhnDIKOgM4EWVCttvepDMYX0NvOpNHml/jVw09vluH/SdO4uC2FZge2gjFre7vLV3TPRknTbepSsKZ8WJbpYxlofFDtR7fYd3+Ezh5cBtWTA9Fo+Lmy22U+TUFGmOyeWYLRjwKaysPBKdDpREH7R6kLXcDuIOX3/gYyzv5p6w3QV8Vn730RuCOX4dERESUdyh9KUUuBHAxRocvRLuCGtP1hAFtZ+DkU8sY/RxXl/dGJYPYURS8Uf/b89ZHWZ4dwtjq5pF5NX5V0H74VMxbsgxhc6ZgVPcmKK2M4is9n4UAjuTbWNi2oOkUTY1/I3y+864qFCcj6vw6fNWxAYZuNV00idNfVjPvSCjYCrOvqM7FjL2CTRPao7x87SQDOBFlRvbbXiOidg/HG9LdI+TXsFWCVg+9ch23oEfZXutwN1mcO2o3hr/hZRWy05TYZuv1WnkaAfqyvbBOmjlFLDZ0N7ejgmcjTLe692L25G4Ad/DyW51ZIK0/X3Rd/7JRRhy/DomIiCjvUPoFilwJ4FKYDV/bBxU9pE6g2Ikr8gZadO2PwYN6om1QILykPf+CDiXbzcVFG9cYJv67Hh/U9k8ZSCilBAMC3voEv45rZnpvTfFB8hyyl4Te5Dvr0beSdFq52PHR+KJMg/boOSgUA3p0QvPagfDRiMurKYQ+W8wLlXxnGToXl65JF6Dxq4A33+uL0NAB6NGhMSoU0IkdXX+ULWvuSDGAE1Fm2Nf2JuHB3qnoUq1g2nuBi21qwepd8O2uGzg9ozkKy8E0nyY/Gk48DulEo6QHezG1SzUUTHMvcAG6gtXR5dtduHF6BpoXTh0ZPX/DiTiunKUUv1u+VaQGhUJWOeQe4bkawB2+/Ik4P60J8puWQdphMQCbX/aiObAOiYiIKO9Q+leKXArgkiTc2zMVXasXhM6qoyiGWd+KaPP5RlzPaICfxIc4tWEWJowcisEDQ/HR599h8e7rYifSiMcLWpnfu/wn8sSyTITe5Id/46e+9VHCtHPAerm0fuXwVt+p2JVyxMeI6BMz0bWKHzSWn0HQo1CNbvh2x02cmchrwIko85R2xD5xeHh+HzYsnY/ZP8/E3LB12HXmHp5nMszFPTyPfRuWYv7snzFzbhjW7TqDe5mYOfH4WFQxjd1RHh/tz+z9JDKWmwE8J5ZfuqTq+t4V+DVsI05FvOz085xaBiIiIsor1H09BwXwrIjHw3/2YdOapQhbvBIbdp5E+DN7dvkr110LMLw9S34s65Jjw3Fq90asXroIi5auwR8HzuPBi3SWKykSVw78juWLFiJs5SbsvxBhHlmYiCiLcq/tdbQkXJkSZGp7PepNsd7haIfcC+A5s/xZkxeWgYiIiHKSuq/nhADuYPEnMc40EJEeNb8+Jz9IROQaXLbtVe5SofFH8LIIOOrM6VwL4Dm0/FmSF5aBiIiIcpS6r+cCATwRZxePw6QFf+DotUd4kTI+TRKir+3E9yEV4SFIA6m1xq+3OXgNEbmWvNv2vkTUSnTOL0Bbdij2qAdHt0OuBfAcWv4syQvLQERERDlK3ddzgQAej+0DipkGNjNdl+2RH4WKlUBRf8+UQdkE76oYsD48g1uJERHlTXm37c2YMfoyDmzbip1nHXvkNrcCeE4tf1bkhWUgIiKinKXu67lAAE/C5eUfofPbNVG2sC8MWkEetdyAAqVqouWASfjtYgw7L0TkkvJu2+scSReW4JP+fdG3b18MnPSn/Gjm2DMvERERUU5Q9/VcIICrGBPwPCYGzxMYuYnI9blM20tEREREWabu67leACciciNse4mIiIjcl7qvxwBOROREbHuJiIiI3Je6r8cATkTkRGx7iYiIiNyXuq/HAE5E5ERse4mIiIjcl7qvxwBOROREbHuJiIiI3Je6r8cATkTkRGx7iYiIiNyXuq/HAE5E5ERse4mIiIjcl7qvlyaAs1gsFovFYrFYLBaLxXJcKRjAWSwWi8VisVgsFovFysFSpAngRESUe9j2EhEREbkvdV+PAZyIyInY9hIRERG5L3VfjwGciMiJ2PYSERERuS91X48BnIjIidj2EhEREbkvdV+PAZyIyInY9hIRERG5L3VfjwGciMiJ2PYSERERuS91X48BnIjIidj2EhEREbkvdV+PAZyIyInY9hIRERG5L3VfjwGciMiJ2PYSERERuS91X48BnIjIidj2EhEREbkvdV+PAZyIyIncr+2Nx67QQOi1Wmi1nmjy/Q35cSIiIqJXj7qvxwBORORE7tf2xmPn4BLQmD6XHg2nX5cfJyIiInr1qPt6DOBERE7kfm0vAzgRERGRQt3Xc1gAT37xFI8iIvAo8hmS5MeIiChj9ra9JsYYXFz/Dfo0r4bAQr7w8vFHyapvotvYMBx/lCxPlFsYwImIiIgU6r6egwJ4MsJ/bgq9OL+u0mgcSZQfzixjJM7v3oSNGzfijyPhyOrsRESuyr62V2R8iK3DqsNXML+OdQkwlO2CJddzs1XNCwH8OY583x1tWrVCqzbdMf3wM/lxIiIiotyl9MsUeSOAJxzEiApa0/t7tFmESPlhIiJ3Z1/ba0TEmq4opjG/hqApgEpvv4f3OzVAoKcgv7YG/m0W4k6uHQh3fgBP/Gcy6nspn1+AZ52vcTpefpKIiIgoF6n7egzgREROZFfbm3wbPzf1gCC9hqBHzc+PwXysNxn3V3VBcSWYe7bBosdG0zM5z8kBPPkW5rX0F99fgMbHF97SOhD88NYPl3l5FBEREeU6dV8vbwRwGJEYH4cXL14gLiG3r1ckInIeu9re+O0YUFRjfg1dFYw5ZtH4RoahjYf5tfPpm+DHW7nVtjozgBsRsa47ArTie2uKocvy/ZjayNu0g0JTsA0W/PuKb1+MUTi+8Cds+jc7lyQYEXV8IX7a9G/uXCYWcwJhP23EzQT531lhz7xEREQOpu7r5ZEAntuM4v8RETmfXW1vwm6EljSfPZRPUxR9/3guPwE82zUEZaUgKj6nKdIHf7yQn8hxTgzgMXvwYUWdGLgF+DT5HpeTgOd/jUAVvXQ6ugYluq3Fw1e18Y+7hlWDqsFXEOBRqQ/WZCmEx+HaqkGo5itA8KiEPmtyOITHHMOUdwpDI+hQosUk/JWVszfsmZeIiCgHqPt6ORPAE57jxrbvMaRtLZTy94Je74VC5Rug65frcNnWWDjGp9gzpS969uyNT5Zesj5N0PgEOydLz/XB6FXXkZT4EEcWjkHXxpVR1FcPncEPAW80x+Cf/8JDmwc3jHj41xx82r8T3gl6AxUCC8PPoIGg0cO3SDnUatEb4xYfwyNb5yaq3tv08s9uYt/S7/DZsEHo128wRi44imubv0Kfnj3Ra9AMHMporJ8ksQM0qrfp9casvSk/SESvMrvaXuNjLAvObz4FXQyYBZrPwQ2xoXpxZSm6V9CnnJpe+ZO/kBrNc5qzAng8To2vBQ8hHwR9FYz8W/7ExkdY9755eQRdWQzaHvXK7YBNfrgX498uCq0yUJ/4myg7cAsiM7Mikh9i7/i3UVSbek29vuxAbMnUzNmRhCs/v4MC8uUT0vt5VemJsIuZ+QXbMy8REVHOMG+TcjCAa0u2QJ+OFeElbegFcUPt5QMvnZDSQfRvPBFHY+TZFMb7mNPcID6vRelh+2F11lhyOH5uqjc9Vyr4Ewys4w+N1MESdPDy84FBI3cKBE+8/skePE3TJ0jEkdGVoJM/Xz5BA723H3w8tOJrKI/pENBuLi6pT1dLeW8dKo3aiwtrR6BpSYP8WcxleHc+7p+fjCCDuBwaf3RcGpFu5y7+4EhU0kmdw9fxxck8f5oAEeUCpS3Jrmd7h6GC2MaaXkdsg+qFhKB6AU1qm9vwaxxWt7k5yjkBPOnqT3jbz3yku3i3tXhk0RAnX5+Jd0zPidukqiPx1ys0KHrs2XnoUsEzdbsl/kaCPt6IfzNzenbsWczrUgGeyrZS+j0FfYyNmZrZDsanOP5TR5SRtqum9xWgKdQQY7bfe/l1/PbMS0RElAPM26McDODSa2h8K6P92EXYe+2peYMXdxcH57yPyh7iBlHQo8rIv62PxmQqgJs3pIaSjRE6Ywv+eWSeKvHxKSzsWRkGKZQbgvDtJfUmVgzgY4LwWstQTF6yE+fuPTMfyRb///P7p7Dui2YoLu3ZF/Kj9a93rcNzyntr4FO8BPJLYV/wQNEqQXireXO8WasMirT5FRFJd/FrKz+xgyPAs8mPuG7zSHw0NvUuLnZKBXg1/Rk3bU5DRK8a+9pekfExtgwsB11KSDKXoPVHzf4LcDYmp45UpscJAdx4D8s7FzUf5fZ9CzOuqhvYOBz7vBr00joSPFHn69PiUuaMhIf/YO+mtVi9fgdO3s218/5tSMTtzcMR5C+PESCtG+8q6LnwvDxQX8YSb2/G8CBpMDv5NyV4o0rPhTifazsvknB/x+doUlibsvNAMJRBx59O2NjRrmbPvERERI6lbIcVDg/gmiJtMeeSrdO94nBc7gBpCoZgjeVQ55kK4BoUfGcyjtk67S1yNUJMnQw93vzpthywUyUmJKZ/yqHxIRa3l07hFODdcRmi5IdNLMO/4IXybcZh7blIq73oifEJptd++nsv862AdK/h8xNpj24b7y1Aa+kIjKYQQlY/fuVOgSQi2+xre0WJ4dg6MsjitFuxtAHosiI85TrdhGdRiIyMFCsKsQk53frkfgCP3TcC1f0LIH+Bgqjz2WHYir3GyC0YXMUf+fPnR4HA9pjv6L2gxqc4NLU1Sks7muXvQdAXQ/3QxfgnVp5GknwTf0z/CuPGjcNXP+/E3ZzYGWuMxJFprRFouvZdWhYB+sA2+O7Qk0xse4yIPDINrQPlSxhMnyMQbb47hCdO2HC9uLIc/d/wTVmWfBo/1AhdixuZ2INiz7xERESOYt4W52QAL9waP1+wtYv8BQ5/+pocwLtirWXSzWQA9286EYcfp+2tGCNXpQTwt34OTxvA4+MzCOAPENbOHMB9gpfjqfywiVUA90CZFp9i2fGHVkdO4l/EmQP4hp6mAC7o37B5ernx3kK0yS8H8FUM4ERkZl/bK0q8iz8/rZ8mgIcs+zelLU16EYuYmBixYvEix69+cUYA/wRv5PeBt09+1Bhz0Ob17sYnmzCggi+8vb3hU6It5jk8gEfj6PftUTbl/uvSUdcSaPzhclhtEpNvYduP32DChAn4ZvZu3MuRAP4Ux2e0R2nLAB7QAhMPPMpUAH96fAbal7YM4AFoMfGA1Wn9ueX5pSXo85qPRYgugDrDfsctq46CbfbMS0RE5CjmbXEOBvCMRkFPujQZdfXSRrAo+m+Lkx8VZSqA61Bp9BHbI68mX8N39aVptCj38V/W879UEs5OqGFadn39qbA6czHlvbUo2eO3jDsfcX/jkwo607SlQneoTvFLwqUp9UynyWvLDMUeZ56VSER5il1tb8IVLOxcynxqtfw65hLgV/9rHDMdeY3D6s4e8uMGtFqQ0zsAnTUImzMZEbWlP0qlDFRmWRr4NxiLnQ/kjUvMaoRIO2PF5/R1JyPNVVP2iruG1YOrw0/ZISOI71/vE2y6nZk9L3G4tnowqvspp60L0PjXwyebbtve9uYSY+QRTG8bmPo7F/QIePdb/J2JEc7tmZeIiMgRzNtUJwVw0z1ri5mPVDf6/ob8oMjeAI5ILGotdTA1KD5oRzrX9iXiycVdWD5jPIYPfB/BLZuifs3XULFMAAp5S7etETtDQarOUKbeW5GEi5OCTCFbU/A9rLBM6/GHMLKSGM7FDX+tr89ZncJORK+27Le9CTg3qR685WCh8W+ATyb1R1XlFGixvSnTcy3uJkVg/rtS+yo9lh/vb7DY+ZkjXsEAbnyIhW3kI62CFoVea4JGVQpZ7BgRYAhsjo+m/4Lp/WvB1/S4BgV7/O7Q0emNT/7CxHeKpY4HIP4GKnQLw4XMvInxCf6a+A6KKQP6SUfNK3RDWKZmzgVJd7B1VD34p5zpIcC7Sm8sv5qJXe72zEtERGQn87bHWQE88Tg+qyodJdah6tjj8oMiuwN4DJa2VwL4n2kCeNy1dRjVrLTFSK62y74ALn6Mu/PRylfsvAheaPrzzZRT4aM39UZx6fR033cx905OnG9IRK5KaX+y7Pl2DAyQj1QKfmg+S2pz4nFxVksUUYKGpgAafz0HH1SU2l3x3/oamHAup3cBvoIBPH4nBpcwfxfakgOwTTrzIPkRDk5tjZIpgVZVmhLotdFq1BH7Jd7G5uFBqqDZC4szdRsu24O29Vp8MRdvYZc+Y+RhTGtjeSTbgDIdf8aJ6MwcBc/+vERERPZStquKXA7gJ/H5a+YAXiWXArjx/jr0KGU+wi3oi6Bm8DBMnLMCm/ccxulLN3Hv8VOc+aaO+RR0OwM48BS/9yomdjwF6Kt9idPSDMZ7WNBaGiFdg2I9f7e+xpyIXnnZbXsTT43DGzo5UBia45f7cpgwPsaOD18z3Q9bek7QalPu/6wtMwz7c3wAqlcwgL/Yio9qvYaqVauieu9lUL4KaV3cWD9MDLWpo3GbSvBA+Z6rcDtH9sfG4tz8rqiYci26AE3B+hi1JXVQvozEnpuPrhVTb1smaAqi/qgtCM/MzDnk2YUw9KribbFMhdBwzHbcy8S+JHvmJSIicgTz9thZAVw6SmA6YqNH4x9uyg+KciyAJ+Hs+Oqm5RK8amHE7oiUo9KppFPH6zoogEuXgn+CilKnWFsaQ3Y9R9Klb833CNdVwsiDOd7zJSIXk922N2HfhyitNc+bz9AKCyyvaY2/hNkti8ghWCkdKo44aLWDMme8iteAZyzh/hEs+WYoer7XCSG9hmHiylN4kqMnQyUjYu94vF3MvPNZ+v6lkcxbZ3Ik8+SIvRj/tvWp7IGtv8OhXB8GPRG3N32SzaPy9sxLRETkOMp2SJGLATwep7+qaToFTFvmA+yx3ALmWACPwuK20uMCvDuthOWdYFIl4dzX4nKJy+6IAC5+GNz9tRX8xM8pGIqgqLTxFwqgXdj9HB74iIhcUbbb3qQzGF8jdaRqjV819PhuHfafOIlDf67Cjx++iRIpo2BLpYH/m1NwSp0+jI8Q1la+fllXEcP/svca8WwEcIcvQza46TIYo46qBiHToGD9UdiSmUPaxigcnd7W6nZmGR9NN+JRWFv4mN5Lh4rD/0K2PkHsOczvVgleyjKLv938NYdg/c1M7D6yZ14iIqIcYN4e5WAA1wZ0xbJb6mG+43BzfSiqeYsbcSE/3v7pivVAZDkWwBNxetwb0InLpSnUGr9cs3pl4Pl1bJnYERW8zJ0LxwRw0dPf0cs02Jx5nUrXBG61nf6J6BWX/bbXiMhdH+N1i9te2SpBq4deGZ1b0KN8n9+s7z0duwHdC0rtlQDPRtOt7wSRLdkI4A5fhmxw52VIDMcfIywGIRN0KD1gCyIztVc4EeF/jEC9lCPJAnSlB2CLzZljsaF7QdN3L3g2wvRsfYAkXPnpbeRPWVYDynaaiVOZul7bnnmJiIhyhnn7mYMBXHoNQVcAFRq2R/cBoQgd2B2t6wSYB0ATO3+lQ5bihvraqxy8Bjz57kqElJCuvxOg8auAN9/ri9DQAejRoTEqFNCJnVN/lC1r7jA4LICLS3B4VGVT8Jc+8+tfnMzCvET0KrGv7U3Cg71T0aVaQYsRt+USQ1bB6l3w7a4bOD2jOQqnDMyWHw2+OZZyRlD87lAESqeyawohZJUjblGW9QDu+GXIOvdfhue4sKgHKnvpEdBuNv7J4u0wn19YhB6VvaAPaIfZ6c0cvxuhgVrxe9egUMgqZPtOX8YI7BhRG766wmjyxS4od3DLFHvmJSIiygFK30zh8ACuLfMu+oXUQTHpumf5NaUSvMqi5eebcUt1ENokBwO4dJQo5tQcvF81PzSWHVQxGBeq0Q3f7riJMxMddw244tnGXqYOr+DVFD/dZA+AiGxT2iT7xOHh+X3YsHQ+Zv88E3PD1mHXmXt4/tIAlIjjY6uYdhZqy3+E/VkMZbZlNYDnxDJk1auyDEY8PnMMV7P52sbHZ3Asg5kTj49FFdMYKOXxkb0fwPgIZ49fR7ZexZ55iYiIHEzd18uRAN63cy0Usbr2MDWA33RCAI8+MRNdq/jlbgDflBrAf2YAJ6J0KG2SczCAm3EZHMGhAZyIiMhNqPt6Dgrgab24fxZ7fl+BxYuWYPUff+PaU/V557ksKRJXDvyO5YsWImzlJuy/EKEK6g5kjMCyTv5iB1Q6DW919k/DIyK35+i2N0uSrmBKkB7SbbHqTblkPTZHtmUxgOfIMmQRl8EBknBlShD0+QR41JtivTObiIjoFabu6+VYAH+VJV2agnoeAvJpy+LDvTwKQETpc2bba7z3C5p7CtD4B2NZhKP2FGYtgOfMMmQNl8EBjPfwS3NPCBp/BC+LcMo19ERERHmRuq/HAO5wz7FnaFlo8wnQ156If3gUgIgy4My2N2plZ+QXtCg7dI8D742ctQCeM8uQNVwGB4haic75BWjLDrW+zSgREdErTt3XYwB3MOPDpehouve3L1rOv8OjAESUIee1vUZEXz6AbVt34qxDj7hmJYDn1DJkBZfBEYzRl3Fg21bsPMuj30RERJbUfT0GcIdKwsXJQTAI+aAp1gsbn8oPExGlw/3aXrEdXDYKgwcOxMCBoZiy85H8OBEREdGrR93XYwAnInIitr1ERERE7kvd12MAJyJyIra9RERERO5L3ddjACciciK2vURERETuS93XYwAnInIitr1ERERE7kvd12MAJyJyIra9RERERO5L3ddjACciciK2vURERETuS93XYwAnInIitr1ERERE7kvd12MAJyJyIra9RERERO5L3ddLE8BZLBaLxWKxWCwWi8ViOa4UDOAsFovFYrFYLBaLxWLlYCnSBHAiIso9bHuJiIiI3Je6r8cATkTkRGx7iYiIiNyXuq/HAE5E5ERse4mIiIjcl7qvxwBOROREbHuJiIiI3Je6r8cATkTkRGx7iYiIiNyXuq/HAE5E5ERse4mIiIjcl7qvxwBOROREbHuJiIiI3Je6r8cATkTkRGx7iYiIiNyXuq/HAE5E5ERse4mIiIjcl7qvxwBOROREbHuJiIiI3Je6r8cATkTkRGx7iYiIiNyXuq/HAE5E5ERse4mIiIjcl7qvxwBOROREbHuJiIiI3Je6r8cATkTkRK9S2xu/uTcK6bTQaqXyQN2J55EkP0dERETkjtR9PQZwV2aMxPndm7Bx40b8cSQcifLDROQ6XqW2N37HIJTQmD9vvnx6NJx2Hcnyc0RERETuSN3XYwB3ZQkHMaKC1vS9ebRZhEj5YSJyHa9S25vw18coq1UCuAHvzL4Ho/wcERERkTtS9/UYwF0ZAziRy3uV2t7E45+hqk4J4B5oE8ZWi4iIiNybuq/HAO7SkhH/LBYxMTGIfcET0Ilc0avU9iadn4jaejmAC154b/UL+Zm8LgYnwn7CxpsJ8r/zDmPUcSz8eTNu58rF9Hl3Pdgjd9chERG9atR9PQbwXGPkqZZElMar1PYm35iOhikB3B89N8XJz+RlsTjxXTMU0QrQlWiBSX89zjNtedy1VRhUzReC4IHK/dblcIDMu+vBHrm7DomI6FWk7us5PIAboy9g/cSBaFOnHIr4GqDV6uFbrCKCWvfDuHk7cS0m7Sb7xa0/8cMH7RFUvgh89VrovfwRWL0F+k1cj4s2ppfC7JOdk9G3Z0/0Gb0K15MScf/gPIzoFISyBT2h03igYIXG6DVlB8KVHfXx4dgz8yN0DCqHQt56aA0FEFizHUYsPYvoNG+hfv0XuLXjJwzrKL5+IW/o9V4oVL4BQr5Yi0vP5FmsGPHwr18wZuB7aBb0BioEFoafQQNBI66LIuVQq0VvfLn0BB7bHH1I9d6maZ7j379WYPpnwzCoX3+Ejl6Ek8+lSZ9iz5S+6NmzNz5ZesnGaMLievl7PkZ3extvBPrDU6cRP7cvipavjWZdhmHy8oMIt9n/FT/vnz/gg/ZBKF/EF3rxO/TyD0T1Fv0wcf1F2P5KnmDnZGlZ+mD0qutISnqE40u+QPe3qqCYrx46gx8C3miB0JkHEcFRl4hSOKrtdQXGe3PQzCAHcE0JDN4RLz+TdyVdmYGm+YWU70nwqoKeYRfFVtmZkvFw73i8XVQLQVkuXWkM+CMyx0Jx3lwP9sj9dUhERK8mZdupcGgAjzk1Ex1LG1I3ZloDPA2pG7d8+TQo3G+rPLUkGXe3fIza+TXy8wI0ek946AR5HgGelXpi2VV1Jy0Z4T83hV6cRlu6M0YOrgt/rdgxEAToPbxgkP5bml/Qo8LATbh+ah56vuYLjekxLTy8PKATpzVNoymMd+dcVYVXi9cPbIUBnSvDWzAvj9bgAb1G6YRo4N/oGxyJkWdLkYgjoytBZ5pGek9pPi946sUQnvKYHoEd5+NymjP5Ut9bV2kU9l1cj9HNSsHT9P5yGd7F/Aixi2C8jznNDeJjWpQeth/WLxWLY1OboZi4Ls3vp4XB29Ni2aUyoJl6EKTku9jycW3kV0YqFjTQe1qsL8ETlXouQ9qvJBw/N9WL04jL0mkEBgcVhFZaZul9vcT3TZnfC9VG7UO0PBvRq075e8wWYyxunTqEgwcPZqoOX4ywaOuMiL11CodsTGezDl9EhL1HB6PC0NbD/Hnzacvh47/SP5XZGHsLpw7ZWA6bdRgX7V649BgRdfQHtC+tT922aQqh4ZjtuJdTb5mhWJyd1wUVPFPbck2BOvjwt5uqbYCjZW895J3v0VIW1qFdf2NEREQ5GMCT/12M4OJSkBbgU7Urpm+5gMemLVkSom8dxYYfh6JFeV8U7rPFNL0k4dwUNPITN4BiSCve9FOsPHEfpgOyiU9wcfMktC8rhXkBHq+PxIFY0yyy1JAqLbOgK4J6g2dh5+Uo0624jM9uYsun9U0hUtB4wstTA12hOugzbRPORsSbAmfc3X2Y3KKYKZRrSvTDloxe37s8Wo2ch12Xnpg2zsmxN7FrejDK6qVl16PKiL9VRwHEAD6mLqq0CMWkxTtwJjzGvEE2JiLmzkms+6IZipt2GORH6wV3rQOwxXtrfIqjRH4ptAswFKqA2o2aomnDaggs2Bq/viSAxx/+FFWl5dMURuORK3D83nPT+xgTonDj8O+YNboTqhX0UgXwBJyb0gh+YnAWtMXR9NOVOHHffIg88clFbJ7UHmUN0nJ74PWRB8QujIWUAC6tMwFa/5roNfV3nH4QZ3r9hIhjmN+9EgzSaxvqYcpldlGIJHa1vYmHMbKiLuU1XlaG1gvxJOUPPhGHR1ZM3VH4sjK0xsLUmbPnxRq85yW2IdLr6aris+Ppj12ReHgkKqYM2PayMqD1wieqttSxku5ux5hGhcw7FqX3FAwo0/EnnHiak++qkngbm4cHwT/lVm4CvCp3x6/nrFrjHJXV9ZDXvscsr0O7/saIiIhyLIBHYVPvEqYwqw3sifUP0jnH+MUN7Dt4w/zfxggs71RQnEcMl9XH4rCNU7kTLv+It6VT3gQvNP7+mhhNFRYh1b8pJhx4mHaPc9xeDC0tjRAuwDdoFHbcS9vRS/rna9SSrkfUlsaw/Zbx1eL1C7fET//Y2jA/x6HRr0EvdkI0BbtgTZT8sCwx3hz0bTI+xOL2+U3B2rvjMjyVHzazDP8CPMu2wmcrT+Ox5eLHv0Cc9OLpBnCxYz3KfAReX2ciLqSTdZMeHcdfFp/NGLEcnQpqTB2q6mMPI+1XkoDLP76N/FKI9mqM769ZfM8pAVwD/7fGY999Gx3ryNUI8Zd20ujx1k+3Lb5PoleXXW2vqwXwuE3o5S8HcH1tTDyf/o64PBfcJC8uY1nf1+CjhE+xvfOrEYq1N3L+VHpj5BFMax1o2uaY3ls6i6rVFBx8nOOfOq0srIe89D1max0ygBMRkZ2UbYTCIQHc+GQ5gk1B2RNvzriRqWBljFiENt7SPL5ou+hhOhvcZ9ja3xzs9UGTcSmlr5YaUnWVRuOIrYMoxgeYawqnGhTpvw02u0dxv6N7Aakz6IH2Sy1Pis7E64uSLk1GkBTgNUXRb2tWBhNKwrkJNUyvr68/FVetVljqe2tL9sRvjzLYkqcbwBOwK7Skab3pqozBUct9C+kyImJRG9Op9oJvWyx6mM77PtuK/iXMITpossV15ykBXIdKo4+YzkRII/kavmtgPk293Md/WSwv0avLnrZX2pF5bN0iLFiwIFMVtuOqRVso/s0fW4dFNqazWWE70l56klXxOzE4QL7kSN8I02+kv7UwRhzDukU2lsNmhWGH3QuXScYoHP2+HUpJZxiZvjsBuuLN8M3+RzkWHOOurED/132sTv1uMHor7qSzbcoVmVwPeeV7zPY6tOtvjIiIKIcCeMKeDxCoFed/yRENS/E7QxEgnQKmr4+p1gnUSuSSdvCSQqF3MJanZOTMBORnWBHsYTrK7N9zo/nUdrWEvRhaSjpKbkDzuQ/kByWZC+CI346BxcxhtNF0+ci+lQREnNuOxdO/wId9Q9CueWPUfaMyygYWhb+n+dp46x0Lkky+tyTdAG7E/QWt4Svt5Rc8Ub7tZ1i48x88eJFR9zAeO0MDzDs70uwUsBSJJe28zEfvg5enXsudmQAuzruotYc4jQbFB+1gJ4VIZE/b63IS/sbwclKbK35mQzPMuZ9TkTWnJeHutlGoZzqjx/z9CV6V0X3JFQfvWDTi8f7xeLOIxUBh+orosewy8sYN3HJrPdgjr69DIiJyd8o2UuGQAB69tD08pJDs0RHLM3kpWrQYrD2kDaFHMFbYHEnczDKof5dyynNmQmoc1nWR9naLAbxHegH8L3xs6gxmM4AnHsdnVaVT03SoMva4/KDZiyurMfytQNN6UdatrcqZAC56cRLfNvE3BWrzewlip8MfpWs0RfDAzzBz0zk8sXrfaDFYS+FYgEfwChunnyssg/p3SP1KMhPAY7C0vRLA/2QAJxIpbUH2GJEYH4cXL15kquISrPesGRPjEWdjOpsVlyC2TnZKPIHPXpNP5/VoizDVpTtWjImIj7OxHDYrDqqPlrOMkTg8rQ0CLY7+epTrjNmn04zIabekO1sxqn5BaJRtieCFyt0X4nwG281ck5n1kAe+R/vWoX1/Y0REROZtpIMD+JOFrWEQ5xW8Q7AmU7uUjVbzrM1gnoR9H6K06eh6XUxKSap5JYArnUnrAJ58bzW6BepMe9sFfVHUfm84Js9dic17DuP0pZu49/gpznxTx/T6ORbAJXE38ef3oWhVrRg8rUY/F0vQoUiTcdijXPtmfIKFraXXEuAdsjaDIwMJ2PdhaWilZa87KXXZGcCJssWettflrgEXA9vJ9fMxd+5czF2wA9et2j5refIacMmzCwjrVUW+M4ZYghaFG3+OHfcz+DD2enYeC7tXNp0NZv68GvgHfYLNtzPaQOSwTK6HPPM9Zncd8hpwIiKyk7KNUDgkgL/4rZtpYC7plMLZ9zK35Ynb8L48T3P88iD9eV5s6I4CynQppyvmkQAe/ycGmkZ+16PxD7fkB5Nw5qvqpnkFr1oYsTtCfDW1JFycVDfnA3gKI+IeXcGRbSswc3woOtQoIg9Co0XggK1iLJbEYcP70sBwYgei+S9I/yt5gQ3dC6RMl/qVMIATZYc9ba/LBfAsyIsBPPH2JnwSZHFmkeCNqn2W4nJunMtsfIT931jcWlLctulLtsSUg7m048FCVtZDnvoes7MOGcCJiMhOyjZC4ZAAnnR+ImrLg5H13py5c9CTLk5EHdM8ARj0Z3q9l0ScHveGqYOoLT0MqQOV540AnvIZtKUwdK+ycFFY3M587bln27B0NsS5HcBVkh9iXfeSpqPY2jLKehWXaaL5qLwmYBDS/0pOY9wbUmdE9Z4M4ETZYk/bi+R/sWnSCAwfPjxTNWr+UYtbJibj302TMMLGdDZr1Hwctb7foonxwR7MGj8O48aNw1c/bkd4RmfgJt3Gps+CUa9aTbzTfw5ORKefVJL/3YRJI2wsh80ahfm2Fw57Zo03Ldu4r37E9gwXLiNGPP5rEloEWNwDW18SLaccennYctgySOJxfU0oqvtZXHPtXQU9F13I4LIhkRPXQ976HiVZXId2/Y0RERHlUABPPRVbA/82C3A7g21jYoIczRJP4ovXzfMU67oG0m2t03h2AB9XMoe9kgO3W2wc80IAf46/R1SRdw4Mwe6UwCoG8Lbma6m9O62Ujy6rWYyCniMBPAlXDx1C+mdEpr6HJiAUO+UknHjyC7wuHanQFEPXNRE2jwg8O/AxKknTaEti4HaL7goDOFG22NX2Op0Rj8Layqchi3/7Iw7abmtNxPC2vBP8TdOKJehR9bPj6bQVjmF8FIa20t02TO3pCBxMf+EyEItz87uhkmfqZTyaArXx4YZbmdrp6ZhlsGTE0+Mz0L60RQjW+KPeiD8Qns7KzAvrwR55YR0SERFll7LdVDgmgIuB7vbCtigoDZYmbsQafb4Td1Vb5OSo81j3VUc0GLpVeQThC9uZ5hG0AWg74ySeWia+51exvHclGMTOmuBdH9+et9wq5l4A15Z8Hytuq+d+hktLeqKiQewQCH5oOuOqGHkViTj9ZTVTMNcUbIXZV1QxM/YKNk1oj/JyJyZnAngc1ob4oViDQfhp1008Vyfp2NP49k3zfcgLdFyauvNDDNEL25nvza4NaIsZJ59ahfDnV5ejdyWDaT7v+t/C+ithACfKDvvaXmeLxYbuUpshttOejTA9gztaSDsGL00OMrVt5s8swLfr+hwdiTp2Q3fzdknwRKPpV8XWNeuSrvyEt/MrR0ulQcbey9Jga45YBluS7m7FaIuBxQRdaQzYEmnVZivywnqwR15Yh0RERNll3nY6PICLku9gfd9K5lG/BQ18yzRA+56DEDqgBzo1r41AH40Y3DQo1GeLPINIDG1r+1SU59GjyBst0LX/YAzq2RZBgdKtrqQNYkm0m3tRFdZyL4CbNsr6QqjyVjB6DgxF6MDuaF27BDzlZS4TsgTXVe+ffGcZOpuuDReg8auAN9/ri9DQAejRoTEqFNBB0PqjbFlzpzXnAri3af1JA+P4BNbBuyG9MXhIKPp1aYHqxaRT5KUdBO/gh39UazZ8LfpUND8v6IvgjRZd0X/wIPRsG4RAL2mngQBdyXaYe1EVnxnAibLF7rbXmeJ3Y0ig1IaKbXvIKihjOqYn8fw0NJFDnKAviwGbH+dg2InH7iGBpkttNIVCsOplC5cuIyJ2jEBtXx0KN/kCOx9kJf45ahnSoQwspg9Au9n/pLMzIy+sB3vkhXVIRESUfeq+nuMCuCT5If7+qS/qlzAHOOU1pRK0fij3Vl9M3XVXnliWdA97pnZF9YLmUcNT5pFCfMU2+HzjdRtBLfcCuKZwXbRqWg4+VqOIi8HatzI6TNgG2wOoGhF9Yia6VvFLve2JVGJgL1SjG77dcRNnJubkNeDJuH9gJoa1rYYi0lF65f3lkr6L8i1GYOUF29frJ93bg6ldq6NgykA18nwaX1Rs8zk2XrcRnRnAibJF+ftyRYnHx6KK6ZKU8vhof+aiy7Pre7Hi1zBsPBWRo6efS7eJHFvFfAlT+Y/22xmsjHh05hiuZfVFHLoM6TA+xpljV9N/7bywHuyRF9YhERGRHdR9PccGcEVyLMJP7cbG1UuxaNFSrPnjAM4/eCFuujMQ/xD/7NuENUvDsHjlBuw8GY5nDt7RnXnqEJyM2NsnsPO35QgTP8/abUdxKzYTC5cUiSsHfsfyRQsRtnIT9l+IyPXQmRx7B+f2/4G1y8OwUFz21Zv34ezdZxl/F7L4h/9g36Y1WBq2GCs37MTJ8MzNR0SZ59C2N1cl4coU6ZRyAR71pqh2JDpf0pUpCNLng+BRD1OctHBcBvu5+vITERGp+3o5E8BdXhaOQhMR2cFl217jPfzS3NM0eFXwMtuDNjqPEfd+aQ5PQQP/4GW2B/nMcVwG+7n68hMRETGAZxIDOBHlDpdte6NWonN+AdqyQ7Enz913KQorO+eHoC2LoU5bOC6D/Vx9+YmIiBjAM4kBnIhyh6u2vcboyziwbSt2ns1rR79FxmhcPrANW3eedd5RUy6D/Vx9+YmIiETqvh4DuE0M4ESUO9j2EhEREbkvdV+PATwdxvhYREVGIir6hcU9vomIHIttLxEREZH7Uvf1GMCJiJyIbS8RERGR+1L39RjAiYiciG0vERERkftS9/UYwImInIhtLxEREZH7Uvf1GMCJiJyIbS8RERGR+1L39RjAiYiciG0vERERkftS9/UYwImInIhtLxEREZH7Uvf1GMCJiJyIbS8RERGR+1L39dIEcBaLxWKxWCwWi8VisViOKwUDOIvFYrFYLBaLxWKxWDlYijQBnIiIcg/bXiIiIiL3pe7rMYATETkR214iIiIi96Xu6zGAExE5EdteIiIiIvel7usxgBMRORHbXiIiIiL3pe7rMYATETkR214iIiIi96Xu6zGAExE5EdteIiIiIvel7usxgBMRORHbXiIiIiL3pe7rMYATETkR214iIiIi96Xu6zGAExE5EdteIiIiIvel7usxgBMRORHbXiIiIiL3pe7rMYATETkR214iIgeK34nBJTTmtlXfENOvJ8tPEBE5h7qvxwBOROREbHuJiByIAZyI8hh1X48BnIjIidj2Erm+xMfnsXP1Ivy6aBW2nbqHOPlxcgIGcCLKY9R9PQZwIiInYttLjpZ860e86amFVqtHkb5bEC8/7rIST+Ormh7QacXPpPNHh7AHMMpPOV8ywn8filoFNBDkv+V8gjcqd1+Cq4nyJIq4k/g6yFf8HDp41/oCR5/Lj+cZsbi8cTL6t6iBUoV84eXjj5JV30S3sWE4/siFQiwDOBHlMeq+3isUwI2IPL8bmzZuxMY/jiBcvWEkInIC9297KTcYY6PwNEn+R+wKBHsK4u9KhyqfHoV5c2fEs6dP5f92Lc/+HIxArfnvRFuyP7bEyE/kAcl3FqKtvxT2BHgUrYJq5fyhE8RlFfKjzYK7FjsK4nF6YhC8xecEwxsYffCZ/HgeYYzAn5/Ugp/GvJ6tS4ChbBcsue4ivx6XD+AvcGxGb3Ro1w7tOvTCj3lvTw0RZZHSnipeoQCegIMjKkArfU6PNlgUKT9MOevFSSweNxZjP/8WG68rvUMiUrh/20s5zvgU2weVR4nGo7DhRpxFANGj8Q+3kGx8gqM/d0WVYm/hhysu1g4bH2JJR39oTH8nOrz22XFxa55XGHF39jswSKHa+x3MvCUGvbjj+OwNnbisAnw7r0S0PGX8mUmo5y2IwVyP10b+hVj58bzBiEfr3kdxOXwLGj+Ub9IRIe2DEGCQduRIj2vg324R7uadUw/S5+IBPPHCVDSUfium9S7AK2gizrj8aSxErzbz3zMDOAN4bolchDYe4jrXBmLI7rzTbSLKK9y/7aWcFndiHGqYgpIAbcEgfLB0NUZKIVDwQocZ2zC1Qzl4SkdlxRBVLGQVHrhCiJIlX52Ghh7mMCJ4vYUZN/JSmErEoZEVoROXTVdxJA6bDhDH4ffu+U2no+ub/AgpkyPhH0xt5Cs+JkBf5WPsy0NH8E2SwzHrHU/zKfSCHtXHHJZ3ECTj7vL3UEwJ5l5tEfbEBX48rhzAxe9iYduC0Ii/FY2XD7zksymazbwGHsIgcl3qvt4rFMDFdi3+GWJjYhAT+8IlT8NzSQzgRBl6Fdpeyllxt3ZiRug7KOstX4cshii9XjraqhX/V5fyWOEaIRi3/DQiXSaAx+PwqMqmgCvtPCgUsgqP89SyJ+LkF6+blk9TtB+2vBAfMkbg15YeprDt2TYMT4wJOD+tMXylo+T6yhi2RzkmnofEb8eAYnJg1VXBmGMWPSRlGy49p2+CH017FPI4lw3gRjz+vZf5cgtNUYQs2YPJDbxMf7+awh2w+I4L7UiwYkT0ySWYvTU8GzsR7Jk3t8Xi1NLZ2PJvdhKGPfOSK1D39V6pAE5OwABOlCH3a3sTcWRiC9SpVQu1agWh77I7cNVuo6tJfHgcy77ogEopp6+KJYbwIkED8MPWq4h1oSPfJk9/R08lGGrL4cN9UsLNW2I29EBh6QixJj/q9J+Cn8Z3QkXpbATBA42mX0Pcxel400/6tx4Vh+7C07z4HSTsQmhJeT1riqHfltRrjp/tGYpy8vX3msK9sdkVLkd21QAeux/DK+tNO2+8G03DJTFxPts/HJV10t+zFiV7/oZHrvY3jHjcWBuKGn4aCJ5VMGD97SwEaXvmzW2xODm9OYpqBehLtsSUQ0+Q+a/KnnnJVZjaI7EUDgvgxoiDmPf5YIS0aICaVcqguL8X9Fo9PP1LoFJQa/SfsBwnn6TfCCbeP4gFY3ugec2yKOxrgF7vhQLFK6JO8y4YNnk5DoanvalHVud5uncaBvbti/6jVuByOn/FiQ8OY8GnXdC4cjH4GXTQ+xRB+XqdMXreDmz8aSj69e2Hj8P+kaeWGSOxe+pA9O3bH5+tvYGkpEc4vuQL9Gj6GgL8PWHw8kepmq3wwexDiLCxCoyRuzF1YF/07f8Z1t5IEpfhIOaPfA/1KxSBr0EPn6JV0LTfNOy+q+wZi0f4npn4uFN9VCjmBw+DNwqVrYuOo5bjXEzGf7axlzdiamh71KtYHP5eBnj4FUaZWi0xYPLvuGzrorRsf7YkXFjyCfp1b2Lemyt4o0rL3uLriJ9Trn5D58vTEr267G1785547BxcQr5mV4+G068zgOeGpMc4s+Yb9AgqbromWfldSaela3wr4t1hs7HrpisN5pSM8LktTEeOpc+grzMR5/Ni7zvuFCY18DOfZWCxzn1qjsH+Jxfxw1vS6egCdBWGYEdUHu1WGx9haUfzafOma71bzjWdOh93bSV6VTKYHxd0qPTxfrjEL8glA3gCznxT13SpiKCrjOEH5EH6jBFY07WYqT0VdOUxZMdT8+OuIDkC+75+B8VMOxDMfxe60gPwR2ZOwbFnXidIuvIT3s6vLKv4XXlXRZ+ll5CZXYb2zEuuQ/l+FQ4L4IlHRqOSzvwa0h+KoDXAy1MPTUpHQNyABnbE/Mtpj4LGHpuKZsXk0+TE6bRioPTUW9zSQyxDs9m4Z/F3l/V5jLg/pzkM4uPa0sOwP81iGBGxZxyaFNamvKag84CHXvxfi9c0XUM3YLs8jyw5HD831YvPaVG68yiEBhWCVvrcglYMqJ7QC/IfluCFaqP2pQzKokgO/xlN9eLz2jJ4b3QoggpKyyC+r94DXobU5TFUHIzNN0/j116vyyOVip/bwwseYgNlnkaDwu/OwVWbnZRn+Gd+CMrL19LlEzTQe3rBoFXmFeBXcxi23Fc1btn+bPHYFRogd8Jtl+DfQ56W6NWl/D1kzzOEnz2Go0ePZqqOX3mUC0cQshbAn4WfxTEby2qzjl/BozwWwvLC8kf/NRmtKvjK21txu+BfAeULiwFEMCCwYhnzdaRSm6sviqDBq2B1GfWzcJw9ZmNZbdZxXMmtLyDxLCbUlI4Gissu+KH1gnu2jwrlgeU3Pj2LFV/2Qdu36qN+k9boNW4ZTkcm4PKMt5Ff3FZLwSl0e2Q6R7Xyxt9w7O7UI935NP5o0LULavorfSoNCtT/Cgdtnj2fB9ugLAXwvLH8yddnobkphIl9zC6r8dDix5J8bQaa+krPif3o1z/FIdVekDzZhj77B792qySPPSH/hmoPxfqbmRhNLgvz5p3PbkTU0R/QvrTcZoklaAuj8Wc7cP+l75nNefNq2002mX/LORLAx6BO5eYY+M1CbDt1GzGm79mIxJhwHFs1Bk2LSo2hgAJtF1oFacQfwZiq0o9ODI+NR2LF8Xt4Lj1vTEDUjcP4fdZodKpWEF6WYTo784jLklEAT7o6Gy1MtxKR/tAH4pe9NxAtfYak53h84zg2zx6Bd0pqTc+nH8CldSg2kMUbYMD0jTj9IM60wU2IOIZ53SqKYVX8ozLUwxTV4feUAC7NL3aYSr45FLN3XkaUdMA7ORbXNo1AkOkUNg28vb2g0RVCnT7TsOlsBOKlN4i7i32TmqOo6TS4Eui3RX0oOxn31nRDoBS2tYVQf+gC7L8Zbd6IJDzGhS2T0aGstJdbXJ8dl+Cu5bYq25/NiIcnNmHNog9QW/psmoJo8eUKrF69OqXWbDgqT0v06rKr7U08jJEVpRGXza/xsjK0XoicH0MpKwE8EYflQaxsLW+aMrTGwjw1CFTeWH7jg5UIkbaxgh7Fm47F5mt/4dMq0u/CA20W3cSJX3qgqtSBFzxQ86uT4jeUKvHwSFRM2Xn+sjKg9cLcOT3y+a4hKK2c+hzQF3+kM3BZXl3+pCs/o1kB6TvRodygbelfd59X/oaNj7C5f1nzLdQs3k/Q+qNm/19xOjqdN82LbVBWAnheWH7jfawMkY9y+zSxcaeCFzgy5nVTP0s62BE08azFnQDyXhuaGP4HRgQpdy4QS1zmSt3m41wmhv7P2rx577Mn3d2OMY3kA1XSe4p9+rLBM3Eyvb8fC1mdN6+2fWSb8l0oHBbAkRhvDoM2GfEgrB3ySyHNJxjLLc6gSTwyynzkXF8HEy+oGx2ZdNrzX//Io3Jmbx5pGdIN4MYnWP++1PiJAbNiKP60+QcahcVtPcR1lFEA18C/6UQcfpy2sTdGrkKIKeDr8dZPt606pCkBXOOPtycesbGhjsOeD0qZRnAXfIMwasc9sdlRSTpnOlpgOlI9bL/8oCz2TwwupRX/mL1R96ujFuskVdzJL1FTOtqvr4Wv/7FYp3Z+Nl4DTpQxu9peBnAHSkLcs1jESAN12qxYPE9Qv3deWf4kXJ3TEyETd+GetHGI/wN9Cpnb5KBvL5t2tsaeX4LQ4E+hPoM1T3bijBFY3in11mNVxx5L99ZjeXL5k65hVnNp+QVoy/THHxl953nlbzjxLraPCkIBecRzU2kD0GVFeEp/I+mF8vcRixfKgwzgdovd9wneyO8Db5/8qDHmoM3T/I1PNmFABV94e3vDp0RbzLupfKa81IYaEXVkOtoEWhzJ1ZfEu5P/ysTgidmZN+8FcJMXl7Gs72vwSdmZpUH+mkOw7kYmjv5nYV4GcNeifBcKxwXwl0g6OwE1pJCpr4+pV1Mbw4RdoSgpNfi6qhh7LHMBLTvzSH/c6QVw46PFaG86OuCN5r+kN2BQZgK4DpVGH0nZWFlJvobv6psDcrmP/7LqTKQEcF0ljD5ia24jHsw1L7umSH9ss/k3LN36pICp4fJov1R+zOzp2i7wF9eXNnAgtsuXFaWRfB3TG4rLJxjw1s8WIdrOz8YATpQxu9peMagcW7cICxYsyFSF7bhqdfTTfok4PS8UvXr2RM+U6o7mlcwj90rtZdG6wRbPSdUXE/64L89vRMSxdVhkY1ltVtgOXHXsB0gVvxX9pNO25e8jbenR4Ltr8sSKPLT8lp4sRGuDtMxalP3oQLrhVWKMOIZ1i2wsq80Kw45c+ADJ175HI0/plFuxE/6SW4/lveVPwvU5LUzbXEFbGv02P8640+v0v2FRwhUs7FzKfITV6jcvwLfeeBwx7bWPw+rOUh9IetyAVgvkz5UXll8tKwE8Ly5/luSVNigOV1b0x+s+5r9b6bejKVgPIzbftt1vtJLdefNo+ysxRuHo9+1QSrobhfyZdMWbY+KBRxm3B5JMzpsX225Kn/m7zMEAnvjkInYtn4Hxwwfi/eCWaFq/Jl6rWAYBhbzNpzbpgzBZGtpRZrz/K1qZ/ugEeFZoh8/DduH8Q/PpzenJzjziXOkG8IQ9Q8wDhenrYtLFdI6o2xvAEYlFrc3zFx+0w6oBf3kAB56tCIaHdAaBf09sTDsenSgBe4eaj5Ibms+VH5MkYP+wMuLj4rpqNgWHz57FWZt1HDNa+4idZi3KDNuf2mGz87MxgBNlzFFtr3PEY3Nv6Z615s+QudIjaMoVef48JFsBPG8y3t+IsSHBCA7uhB4/HstEBzgviceR0VXko1p58dZjGUu+MRctC0q/Iy1K9dmIRwn38ff8T9GrXTO83bw9eo+Zj4MP0utnOEMCzk2qB285fGv8G2DElIF4Xd4BIp1CX7r7GtxJisD8dw3yY/nx/gabHZG8wSUHYXNhxsfYP+EtFNGmBkZ9hfex+GImhuyzZ948Lwl3t41CPdMZotJnk3YoVkb3JVcy3ClqZs+8lBcp36PCcQE87hrWjWqG0kqjnV6pAjjwHMcnNjTtLVamEQQD/MvUQNPggfh81macj1Q3ntmZJ/0A/nxVJ/NgDx5tsThKfjANewN4DJa2V0Lqn1kO4HHruphOSZEGLksvgP/1cTkbATwGyzp4ppzS8/LSoEj/banLZ+dnYwAnypjyt5c9RiTGx+HFixeZqrgER3dE47F1QAl4GgwwWJTeYnBHjd76OYPBB42nXZXnFz9BYjzibCyrzYpLyOB0djvFb8egkp6qZbUsX7z5w3V54lR5Zvmzy5iI+Dgby2qz4uDwn5Ba9Cb0Li53OjNz67G8tPzJNzG/tXmHlDawJzY8+Bcru5VWHVkWYKgwCJtT7ifl5L/h59sxMEBe34Ifms+6Kf5GE3B5TivzuDLS45oCaPz1bHygnKqtr4kJ55R+nLPbIBuyFMDz4PJnkfPboCTc2ToK9QumDoQseFdBr8UXMzFqvj3z5oXPngFjJA5Pa4NAiyPZHuU6Y/bpdAa0sJSZefNa200ZMn+Pjg7gxvtY16OU+Qi3oEeRmsEYNnEOVmzeg8OnL+Hmvcd4euYb1DGdgq4O4JIXuL71OwxuWQ3FPK1HMpd+dLqib+LLverTuLI6T2YCeDssTvcODy4awI1PsLC1tNdagL5wZdQNCkJQhlUPLSYeSt3DxgBOlKOUditbeA24k7n68ks/obx0HWEy7sx7N0u3Hss7y5+MWwvaopAUWrUl0X39AzzbGYpS0tl1YoCt0+cbfPtJc5SUbqsk9pOCvr0kRg+Rk/+GE0+NwxvK+jM0xy/KnVDEvsPOj15PGYla0GpTBofSlhH7UMqGnteAO1neaYOenV+I7pWVy4/E34ymIOqP2oJw2x1HK9mbNw+3v88uIKxXlZQzS6Q7BxVu/Dl2vHxI9EzPy2vAXYvyXSgcEsCTznyF6lKAFLxQa8Rum/e6Tro4CXXTDeCpjHGPcOXINqyYOR6hHWqgiLz3Rxs4AFvT2WmUuXnSD+Dx4kYyQNpoisv2bXo3CHfZI+Av8Fs36R6lAnxC1mZqj6IVBnCiHGVP25s3O48M4OkWA3jGks7h61ryIEwZ3XrMQl5Z/uR/F6Kd6RIGLQLeX4sHxkQcG2M+lV4bOAS7pQ1j8g1830jangrw6rTSPCCqk/+GE/Z9mDLafD5DKyywPN8/4RLmtCqqusREh4ojDqZu5xnAnSxvtUHGR/vxTbNiqaPpC3oEtv4OhzLxnlmfN2+2v4m3N+ETq5HcvVG1z1JczsSNvbMyLwO4a1G+C4VDAnjU4nbm65M92yIsnR93ZgO4tWQ8XNcdAdLGQVsGwyxTc7rSmyeDQdju/YLm0qnzgi/aLopI5wfqqgE8CRcm1oFefFxXeTQOZzUD2xvAo8LQVgrgmhIYvMPqGSIS2dP2ir1+bJo0AsOHD89UjZp/1MZOOCMe7JmF8ePGYdy4r/Dj9nD58ezKSgBPxr+bJmGEjWW1WaPm46iNvYjGB3swa7y0/OPw1Y/bEZ5Bf9uxXH35pZ/QJkwaYWNZbdYozLf9AbBn1njT8o/76kdsz+YHeL77A5SRw2BGtx6zlCeWP/k2wjoUMf3mtSW6YLXpKHI8dgwqbnpMX2MCzGdsx2JZB2lbKW6nWy0wX9vu5L/hpEuTEST1P6S/V01BdFh816oPZHy8DYPKS7dglafRvY7PT1r0BByx/A76/aTISgDPk21oVuTBNij+OtaEVodfymWiAryr9Mrcdd1Zmtcxn91xvz8jHv81CS0CrEdybznlUCZ22mR9Xoe0fZRrzL9nhwfwtvCQfizenbAynQ1m0jllFHTrAJ509RAOZXBKRko41QQgdKc5wGVnHunHnV4Alzaec5pLA5AJMFQbiQNP1b/2BNzd+y1avfQ+4HkxgIvry3SGgiCujyLouCS9Ud4ViUiwXAR7A3jcenQ1jTDvi5DVtm6ARvRqs6ftdQjjI4S19TZv9MU2aMRBmw1MFmQlgDuCEY/C2sqn64nt1IiDsPcT5C5XX37pJxSGtt7mM890lUYgWz8h8Xe44j1lQL+Mbz3maPYtfzLClwSbr5fWFEfISuWofSJOffG66eicxr8TlkeIj774GyMqS0dbtSgZustxn8+ev+GkMxhfI7XTr/Grhh7frcP+EydxcNsKTA9thOLSafPy89J2vkDjyTjpwL68Q34/lnJ7EDaHt6G5LQfaIONTHJ/RHqUtrmHWFKyPkVtSb2uXLnvmzQbH/P5icW5+N1SyGAdLU6A2PtxwKxN/5/bMS65C+W4VDgngiae/RDXpNAhNQbSafcU6gIk/rCubJqB9eXkgMFUAj1sbAr9iDTDop124+VwdfGNx+ts3zfcPL9ARS6UNmCg780gNTLoBXPTs0FhUN/34NfCr0h7Dp87DkmVhmDNlFLo3KZ16LYYLBnBp797abgGm5zR+NRG6/Dxi1KtNXKIHJ1bj65C66LPK4l5l9gbwlPuTa1AkeAnu5vB2kMjV2NP2OkTsBnQ3jdoswLPRdFjcJTKbcjuAx2JDd3NwEzwbYbr9HyCXufrySz+h7igoBVDBE42mX83W95187Qc0ljugL7v1mKPZs/zJd5ahczHp70fsG3RehjsWM8f9NRwVTEf0NfApVRtBlQuaTq8VxG398AOZOB81s+z6GzYiavdwvOGV2vm3VYJWbxpc0fRvQY+yvdY5bHvuiN+PldwO4A5vQ3NbTrVBSbi7dbTFAGsCdKUHYEtkmg6oDfbMmzWO+P0lXfkJb+eXf3PisnqUey9zg62J7JmXXIf5+3VwABe3QFjW2XyqlaDxQ4U330Pf0FAM6NEBjSsUEDc4WviXLWv+gdsI4OZwK0DrE4g674ag9+AhCO3XBS2qFzOd2i4F+3d++Ccl2GVnnpcFcGlv9b/rP0Btf23KnmClBEMA3vrkV4xrJg1mJoXMHfI8srwewEXGJ3vxeX35uhJBB/8KDdHu/f4IDR2AHp1boG5pP/m6Gw8Er3BgAJdOgZ9SH17Sa4uNW6mGIeg/JBT9u7VFk/rD5WmIXl12tb0OEL9bvg2jphBCVr3knsWZ9PzhDVy9cgVXrlxFeJTtVsNh4ndjSKD57CRXu2WViasvv9ji7x4SaN7BWygEq7L1ARJwVL5eOvfXgx3Ln3wXK0LMfR9N0WAsUZ+6anyMXWOC4K9JDbeCvjiaTTqENCfa2cH+v+EkPNg7FV2qFUx7L3Cxv1Cwehd8u+sGTs9ojsJSP056XJMfDSceh0VvIZsc8ftRyeUAnhNtaK7K4TZIGWBNH9AOs//J2o4ne+bNHEf9/oyI2DECtX11KNzkC+x8kJXfnD3zkqtQ2lSFYwK4yBh9AjO7VoGfxYZGCsj6QjXQ7dsduHlmos1rwJPvH8DMYW1RrYghTfCVRv7zK98CI1ZegOXJy9mZR/qBZxzAzRIfnsKGWRMwcuhgDAz9CJ9/txi7r4ubGHFDuqCVFMC1KP/JQXlqmQsEcJPnV7Dhy86oUST1dLPU9aaBZ0AddBj6Hbbfsji93+4ALoq/jCV93kD+lPs8mkv6LESvOuXvwTkScXysPFBU+Y+wPyf6Nzks8fhYVJHOwNKWx0cu+AFcffnFD4CxVcynVZf/aD+y9QmyeusxR3LE8mcoCY//+RMr5s7EzPmrsfdqtIPPCHHk33AcHp7fhw1L52P2zzMxN2wddp25hzQnGjpSTqz/XA3gbEMzw/j4DI5dzd5r2zPvSzn092fEozPHcC1bL2LPvOQK1H09hwVwsyREXjmA35cvwsKwldi0/wIi0qSxdCTH4s65/fhj7XKELVyEpas3Y9/Zu3iWUcOfnXmySzqVuoYYRAUD3p51V37QRSVG4fqxHfhtRRgWLAjD8rVbcODcXcTm6E63ZDy9fhB/rFqMBQuXYNWmPTh5K917vhG9MhzT9mZT0hVMCZLaNQ/UmyLfFsmlJOHKlCDopdP26k1Bpsf3zDNcffmln9AU0yBegkc9TMnWBzDi7vxW8DMdec3crcccyf7ldzIX/xvOkfWfmwGcbahLc/m/f3IZ6r6egwO4+4o/OQ41pAEh9DXxtXk4UyIiuzmz7VXuAKHxD8aylPEyXIjxHn5p7glB44/gZendwSIPc/XlF5f43i/N4Slo4B+8DNn6CSX9g4m15bOyMnnrMcdxwPI7mWv/DefQ+s/FAM421JW5/t8/uQ51X48BXJF4FovHTcKCP47i2qMXqaeIJUXj2s7vEVLRQ+wgiH+krX/F7Rw9UkxErxJntr1RKzsjv6BF2aF7bNxaxwVErUTn/AK0ZYdijyt+AFdffkRhZef8ELRlMTTbH8CI5KREJCaKlZScywHAEcvvXK79N5xD6z8XAzjbUFfm+n//5DrUfT0GcEX8dgwwjWQqrgexMfXIXwjFShSFv6cyKJsA76oDsN7e+1MSEVlwXttrRPTlA9i2dSfOuuiuf2P0ZRzYthU7z7rmkRtXX37xA+DygW3YuvOsax49cvXld/W/4Zxa/7kWwNmGujSX//snV6Lu6zGAK5IuY/lHnfF2zbIo7GuAVpAGDBOgMRRAqZotMWDSb7iY9t5dRER2eeXbXiIiR0q6gCWf9Effvn3Rd+Ak/Ml0RUROpu7rMYCnw5jwHDExz5HAdpuIchDbXiIiIiL3pe7rMYATETkR214iIiIi96Xu6zGAExE5EdteIiIiIvel7usxgBMRORHbXiIiIiL3pe7rMYATETkR214iIiIi96Xu6zGAExE5EdteIiIiIvel7usxgBMRORHbXiIiIiL3pe7rMYATETkR214iIiIi96Xu66UJ4CwWi8VisVgsFovFYrEcVwoGcBaLxWKxWCwWi8VisXKwFGkCOBER5R62vURERETuS93XYwAnInIitr1ERERE7kvd12MAJyJyIra9RERERO5L3ddjACciciK2vURERETuS93XYwAnInIitr1ERERE7kvd12MAJyJyIra9RERERO5L3ddjACciciK2vURERETuS93XYwAnInIitr1ERERE7kvd12MAJyJyIra9RERERO5L3ddjACciciK2vURERETuS93XYwAnInIitr1ERERE7kvd12MAJyJyIra9RERERO5L3ddjACciciK2vURERETuS93XYwAnInIitr1ERERE7kvd13OrAG6Muoh9W7dgy5btOH4nUX6UyE0Yo3Bx31bx970F24/fAX/h7sEd2l4iIiIisk3d13NqAH9xahkmjBuHr6Ztxo1k+UE7JBwcgQpa6XN4oM2iSPlRcgsvTmHZhHEY99U0bHbEjyVPeYFTyyZg3LivMG3zDaT76RIOYkQFrenv1KPNIvAX7h6c0fYSERERUe5Q9/WcGsAjF7WBh/ie2sAh2J0gP2gHBnA3FrkIbTzE71YbiCGO+LHkKZFY1MZD/N1qEThkN9L9dAzgbskZbS8RERER5Q51X8+tAjiS4/EsNgYxMbF4wfNz3QsDuCgZ8c9ixd93DGL5A3cbzmh7iYiIiCh3qPt67hXAyX0xgJObckbbS0RERES5Q93Xc2gAT7x/EAvG9kDzmmVR2NcAvd4LBYpXRJ3mXTBs8nIcDI8zT5h0AUs+6YfuTQKhFd9T8K6Clr37om9fpfph6PzT5mlhROTuqRgoPt7/s7XyteLP8e/fK/HDl59gyKBB+ODTMJx6Lj78dC+mDRTn7z8KKy4nSROmMkZi99SB4mv3x2drbyAp6RGOL/kCPZq+hgB/Txi8/FGqZit8MPsQIjK6xDjxAQ4v+BRdGldGMT8DdHofFClfD51Hz8OOjT9haL++6PdxmDxxdhgRc+l3fBvaHvUqloC/lx56cdlKVmmI9oMmYOGem3hmlCdNEY/bu3/GR50aoHIJf3gZPOBXpCxqtx6EbzdeQaw8lRVHrQ9jDC79/i1C29dDRem99Xp4+ZdElYbtMWjCQuy5+UyeUGSMwMF5n2NwSAs0qFkFZYpL02uh9/RHiUpBaN1/ApaffKK6BjoJF5Z8gn7dmyBQurxA8EaVlr0tfivi+h46X57WQuxlbJwaivb1KqK4vxcMHn4oXKYWWg6YjN8v21ojqt9ZUhIeHV+CL3o0xWsB/vA0eMG/VE20+mA2DtlcIUZEHJyHzweHoEWDmqhSprjpu9PqPeFfohKCWvfHhOUn8UQ1a9KFJfikX3c0CZROLRfgXaUlelt8tr79hmL+aeVo91PsnWb+zkatuCyuGVuc+FugbHFE25sqEUcmtkCdWrVQq1YQ+i67k/6YAkRERESU49R9PYcF8NhjU9GsmA6C6XUEaA3e8NRr5H+by9BsNu5J4TF+F0IDNCmPpy0B/j02ml9Y7D6G/9wUevFxXaVR2HfpN3zarBQ8BYvpDe9ifoQRxvtz0Nwg/ltbGsP2q44jJofj56Z6cXotSncehdCgQtBKryFoxYDhCb0gmF9L8EK1UfsQLc9myRixB+OaFDbPJ04rCDp4eOjF/zX/WylNsQHyHFkVg1Mzg1HGIC+LaT2KAUir/FssTRH02xovTy9Kvo/tI4JQQCM/L2jEQOsBncXnqdJnJa6rD6s6YH0g5hRmBpeBQfn80ryehpT1I5WmSD95YlHiEYyupEt5TlDeS5P6+QR9IDrOv2xxFDgeu0IDoJGft1WCfw95WrNn/8xHSHmPlN+iRgzBXgZtyvck+NXEsC33xchsKfV3pi3dGaNCg1DItN6l78BL/C0LKa/nVU38HaZZIWLwGV0JOtM0Yonrzzyfxd+AoEdgx/m4bPFdxO8KRYDy3dkqwR89Nso7roz3Mae5QXxc/M6G7U97pNyZvwXKNuW7dox47BxcQv570aPh9OsM4EREREROpO7rOSaAxx/BmKpiEM2nQeHGI7Hi+D08l9KNMQFRNw7j91mj0alaQXgpAdz4ECc2rcGiD2qbAo+mYAt8uWI1Vq9Wag02HL1nemnLYKTxDUDJAlKgEWAoVAG1GzVF04bVEFiwNX7NdACXPqcAffEGGDB9I04/iDMFsYSIY5jXraIYNsSAZqiHKeoj6ElXMbuFv6ljqylQGwN/2Ysb0dI0SXj++AaOb56NEe+UNB3Rz14AT8a/i4NRXApPgg+qdp2OLRcem0NWUjRuHd2AH4e2QHnfwuizRQngCTg/rQnyS8usLY6mn67EifvmsJb45CI2T2qPslKYFzzwxqd/Wx/9tHd9JP+LxcHFTetD8KmKrtO34MJj8zpPir6Foxt+xNAW5eFbuI/pMRMxgI+pUxnNB36DhdtO4XaM+TWNiTEIP7YKY5oWNb9egbZYaPqhmJ7FwxObsGbRB6itF5dVUxAtvlxh8VtZjTUbjsrTiot1bw26BUphW4tC9Ydiwf6bMH1N4rp6fGELJncoa9phoCncEUvuWkaT1N+ZtE4EfXE0GDAdG08/QJx5heDYvG6oKAbxfIIB9aaoj0CLAXxMHVRuPhDfLNyGU7djzM8bExETfgyrxjRFUdN3WwBtF95LCf/Ghyewac0ifFBb+i40KNjiS6yw+Gyr12zA0XvycmYYwJ34WyC7mNc7AzgRERGRO1L39RwSwBOPjEIlnTi/vg4mXkincy6d1vrXP1Yd/8xdA24ZjAR4lHkXY1eexmPLMajiX5hCUuYCuAb+TSfi8OO03VJj5CqE+EtH5vV466fbFh1XI56sfx/FxAAl6Csi9M8nKQHKUtTitqbPk60AHrUJvUtI761FYM/1eJBOr/nFjX04eMO8jo0RK9C5oDiPGAirjz0Mi5O9ZQm4/OPb5lDm9SZ+vG7xonatD2lxe6OEFCi1gei5/kE6nfwXuLHvoPzfkkTEx9tac2bGB2Fol18KiT4IXv5UflSWqWvAY/Hn4FLQir8T77pf4ait863jTuLLmtJZC3rU+vofixBtsaPHvykmHn6c9jMZI7EqxLwTRv/WT7itmiAxPt7m78LE+ABh7fKbdh75BC+H9afL5DXgGQRwZ/4WyD72tL1pMYATERER5SXqvp5DAnjCrlCUlMKYrirGHks3PqSR1QCuLdkTvz3KIMBlKoDrUGn0ETEK2pB8Dd/Vl6bRotzHf6UGHOMjLG7vawpP3s1/wZ10erTZD+BiwF8ebA5Hnm9iRqbuc21ExKK28JHm8W2LRQ/TWS/PtqK/KdjrEfStxVFbu9bHEywPNodJzzdnOOQe7iZJZzGhhvR+etSfelV+UJaZAP50LbpIIVGcZuD2tBHULBnXpzcUf08CDG/9bBGiU39nukqjccT2CsG17+qbf4vlPsZf6f5mbUnC2Qk1TPPq60/FVat1Zm8Ad+JvgexmT9ubFgM4ERERUV6i7us5JIAb7/+KVj7SdaJiIKvQDp+H7cL5h+bTVzOS1QCefjAyszuAS0GotRSENCg+aIfYlZUl7MEQ0yBZetSddNHiqKm17AfwBOz5wDwgnb72RJxP7w2siB1t+drotIHOUiSWtPMy7zwIXpF6/a6d6+MDeX3Unng+3fWRrsQnuLhrOWaMH46B7wejZdP6qPlaRZQJKARvnfQ7EgPi5EvyxLJMBPCE/cNQRivtxGiGKYfP4uxZ23V8RmtTWNWWGYbUn0nmfmeRi1qbv+Pig7DD4lL8VIl4cnEXls8Yj+ED30dwy6aoX/M1VCwTgELe5jES9EGTcclqpdkbwJ34WyC7Zb/tTcTpeaHo1bMneqZUdzSvJH3H0mtqULRusMVzUvXFhD/uy/MTERERUU5T9/UcEsClUcmPT2wIf+kouPw6gmCAf5kaaBo8EJ/P2ozzkWlTQd4L4DFY2l4JGX+mhoznq9DJUwqGHmi7OEp+MK3sB/Bo0/tKwcij43LbI1WnES2GKWlZxXnEMJXe8V7rcPYdrilfgz3rI3op2nuYryfuuDxzS2sWh2vrRqFZaU85IKRX2QvgMcs6WA/O95LSFOmPbSkfKnO/s5il7VMC+J+qFBp3bR1GNSv90mVwfAB34m+B7Kb8LrIuHpt7F5SPdme2xL+tKVfk+YmIiIgopyn9MIWDArjkBa5v/Q6DW1ZDMU/r0c+lYKAr+ia+3PvY6qi4KwbwdotV1yZbyH4Af4KFraVgJcA7ZI24JjPDcp61GcyTgH0fljYfXa87KTX42bM+nixEa2k9C94IWZO5pRW/Hdxf1wOlTEe4BeiL1ETwsImYs2Iz9hw+jUs37+Hx0zP4po60TNkJ4EZxsVrDIH5OQV8YlesGISgo46rXYiIOpbyUfQHceH8depQyH+EW9EVQM3gYJs5Zgc17DuP0pZu49/gpznxTx/T6jg/gTvwtkN2y3/bGY+uAEvA0GGCwKL02dcR+jd76OYPBB42nqS7vICIiIqIco+7rOTCApzLGPcKVI9uwYuZ4hHaogSLSyNHia2sDB2BrjDyRyGUCePxO+bZpqmtnVbIfwF/gt27SNdUWt2p7qThseF+ep/kveJDuPC+woXuBlOnuK9PZsz5e/IZu0mBp+QxoNjt1RO8MJZ3BV9Wl9xPgVWsEdtu6oXTSRUyqm90ALi1WN/hJ10H7hGCtdF/4LLEngCfhzFfVTfMKXrUwYneE+GpqSbg4qW4OBXAn/hbIbo5se01nOfAacCIiIqI8Q93Xy5EAbi0ZD9d1R4BWCk9lrIJxVJgcWEsMTud6WkkeCODGe/iluXTatADftosQkU7AyX4AT8L5ifIt2Yr2xuZMndUtBrqJ5iOqmgAxDKZ32DPxNMa9Id17WxXa7FkfSecxUb5tVtHemzN3ynzUYrQznbb+/9s7D6Cori6O520BREBErNgLGjU2RI0tVsQe1Ng7xpJPE2OJGhMTS0zsXYqKXbFrLDj2ChbGhiWOsY6iMiiMwgCzu/P/Xt3G7rKwiwub85s5k7i8ct999517/re6ITjC9CryFgV4cgSCOQEuK4ORZgqL6tYsNOS2KlPUwMTzZmWsGWwR4MmI7CxMIXALjsBb0w9nQYAnIyJYyOcyIy3MrzYrwB1YFgibsa/vJQFOEARBEARRkDCO9ewiwFX3zuHcC3P9wlx8vxit+D2cyyL0iC50T9/RGx78ys0h2GJWxRUAAc6m4fHytsIq0y518P2pd9kEZOaz45jdMe/7gGfFTkEtbis3mTc6rbW0zVMWMsXEZ8X9hM/5c0qh99ZEk6L2w6nvhC3i5OUMVwa3KT+yEDulFhTcs3p3wlrj/bj0yRLfAyvAeQHNuKPHJr1hEPqo4rWroGcT4Ok70NuDE/AeCDFXWMRedm4/et9u68yuVi+RJWUkj40CnBfQDNx7bGJzzRQqxEuroGcT4OnY0VtYZd8jZIv5Bg2zAtyRZYGwFVt8b3ZIgBMEQRAEQRQkjGM9uwjw9G0h8CzVBCMWHcXDj8ahfyquzm4hbLFVrBvW63Ufq+Jnoh4vzH3Rfd0zM4FiQRDgLB/OYXJdYfEwmac/uvxvLlat24CI5XPwQ9/mqOAuDLPnLC8CHOrHCAsWFlSSeTfD1CPPDAQWlw/JN7djRrcmGH1ATBn7TGGduXMYyMsGY2GcYcPAx3tRGFjdhRd27oGzcdNAb9qWH+rHYQjm9p1m/+bdbCqOPDPO72Tc3D4D3ZqMFv6ddRXT63C9rzIU77gMd40UXOrdPZjZpYq4gJkJAc6J83pcellx3X0dnpksLBq83NZHGG0h80S90CjcTMkuRTNexmLLLyFoNGiz3oJltgjwLFydXkdokCjeEcuyPxz2zOyCKvw6AqYEOCfO6/H3lvl2xzrTD2dRgDuyLBC2YYvvzQ4JcIIgCIIgiIKEcaxnNwHuzgsnNvgv6oeG7UMwcOQohA7phXZ1S8GV+5usOL7664Zh4K66hTmBwpY5jFt5NA0ZilGhQ9EnuDkC/3dIPKiACHCWrH934NsG3pDzz6pnjAvKthyPNdPa8IuAceIsL6if7sDg6txQZjY/ZB6o2KQL+o8IxbB+PdC2gR+KylgBJ/PBoP26lKmfbMOgauI5Sl/UbtcbQ0eOQP/gAPgV4QQfA0W5zlh52+hpbM4PNZ7uGIzq3LBy9h4yj4po0qU/RoQOQ78ebdHAryhkbD7JfAbpjt/QE6W5lfIZGTyrtsDXg0MROqwfun5ZFcUUbNnxroRKvKg3IcBZkXprTiCKcHnPuKF80xAMHRWKoX2C0Tzwf+IxLJq3OD41UFyRn31276po2vkbDA3l8rEn2jWqAE9+IbjPjFYMt0WAs2c/3YCepbm0s3nhWRUtvh6MUC4vun6JqsUUYOTeqFRJaGDJLsC5T2EOAsX35Va+KUKGst/P0D4Ibh6I/x0Sb2RJgLM4riwQtiD5EftAApwgCIIgCKIgYRzr2UWAq1+cwpKxwajjy/WwCdfRGiOHZ5V2mLDplsmhtRkJ6zCotpeRqGXg3W+3eETBEeA8Wa9wJXopZn4/GiOHh2Lc1HmIPPaAFXIavFnbkRfg8irjxYNzj/rVGSwaHIgyvLA1zBO5Z2W0HDwXR416SFXPYzC3d10UF4WlZJyIr9ZpKnY/MPEkdskPNV6dWYTBgWWERha9e/PvvXJLDJ57VDyWRfMesUt6w9/TcJV8RumDL/rMxuGH1zDL3BxwjowErBtUG15yo+f07iceIPERd6Ono+cXvlAap4sTyG5l0bDraMw79IiV9RK2CXD24fA+dgl6+3vyDQ/a+zFK+HzRB7MPP8S1WebmgHNkIGHdINT2kht+Q4w3+u1OFw7JQYBzOK4sEHlFekf24uOrf3Dv7l3cvXsPT5ItOEyCIAiCIAgi3zGO9ewiwLWoU/E0/iT2bYtCRFg41m/ZixPXn+FD9lHAhqjf4cHZfdgcuRZh6zZjT0wcHr0rbIGjNMeXgUvrpeJveUed+gRXju3GlvXhCF+/FftO3cTLNMsZmfHqBk7s2Yr1EZHYFH0EcU+4ZoFPgRqpT67g2O4tWB/Ovvet+3Dq5kuYS64q6S5O7YpCeFgENu05iVuJuZFzarx7cBb7Nkdibdg6bN4Tg7hH5raGy0Lyg0s4vHMjItauRUTUNuw/FY9nqfnYJ6hKwt1TuxAVHoaITXtw8lZirsSq+t0DnN23GZFrw7Bu8x7ExD1CXj4Fx5UFIrfYxfcSBEEQBEEQBRLjWM++Avy/TEYcpn3BLQCmRL1f4sUfCYIgLEO+lyAIgiAIwnkxjvVIgFtNFq5HTsNva/fh4v3XSNN2oqrw/v4R/BlSjR+GLfMOwhpLq4ITBEHoQb6XIAiCIAjCeTGO9UiAW00GDg0rJS5uxEDu6gWfUmVQ0ttNO3+dca+JYTuegOQ3QRDWQr6XIAiCIAjCeTGO9UiAW40KCVHj0LN1PVQq4QEXOSOsNi1zQbHy9dBh2G/YeTuF5tkSBJEryPcSBEEQBEE4L8axHgnwvKLJxMeUFHzMJMlNEETeId9LEARBEAThvBjHeiTACYIgHAj5XoIgCIIgCOfFONYjAU4QBOFAyPcSBEEQBEE4L8axHglwgiAIB0K+lyAIgiAIwnkxjvVIgBMEQTgQ8r0EQRAEQRDOi3GsRwKcIAjCgZDvJQiCIAiCcF6MYz0S4ARBEA6EfC9BEARBEITzYhzrkQAnCIJwIOR7CYIgCIIgnBfjWI8EOEEQhAMh30sQBEEQBOG8GMd62QQ4GRkZGRkZGRkZGRkZGRmZ/UyCBDgZGRkZGRkZGRkZGRkZWT6aRDYBThAEQXw6yPcSBEEQBEE4L8axHglwgiAIB0K+lyAIgiAIwnkxjvVIgBMEQTgQ8r0EQRAEQRDOi3GsRwKcIAjCgZDvJQiCIAiCcF6MYz0S4ARBEA6EfC9BEARBEITzYhzrkQAnCIJwIOR7CYIgCIIgnBfjWI8EOEEQhAMh30sQBEEQBOG8GMd6JMAJgiAcCPlegiAIgiAI58U41iMBThAE4UDI9xIEQRAEQTgvxrEeCXCCIAgHQr6XIAiCIAjCeTGO9UiAEwRBOBDyvQRBEARBEM6LcaxHApwgCMKB5K/v1SD17VtkiP8i9Eh/izepGvEfBEEQBEEQ+YNxrEcCnCAIwoHkn+9V4+XhiQjw8UOX5TeRJv5KsKTdwLLOfijecDwOvlCLPxJ5JeVqGMZ0+RKBrUIwZecDZIq/E85MJt7eu4BD2zcgbPUqrFm3FftPXcfj9yrx7wWVFFwNG4MuXwaiVcgU7HzwXyqthfWdEUThxzjWIwFOEAThQPLH92rw+sh41CvK8NdmlFUw+miq+LecUCMz04kDMk0idg7wg4Lh8p1BkdqjceAl9YTnmazLmFJTCUYsx0zRtlj2byFs1FBnwpmLvf3Q4O2FJRgcUBqu/DdkaMp6M8XjCiZZl6egplLwi9z3X7TtMhTG4po7Cvc7IwhnQPreJEiAE06CBsm3T+DA/v3Yf+gynmaJPxNEASc/fG/a1blo4S0Trs24oebwnXhsSVxokhEfvRBTh3dF02olUe+nODjzJ5RyeR7alpSLolGGYk1n4fIH8Y9E7kjdiO5FJEHDmrwixp0qHL2KmuR4RC+ciuFdm6JayXr4KY4qjpxIPfcTGooNe6ZM+UXBFnOpG7ujiJ4IlVcch0JSXPNMYX9nBOEMSN+bhN0EeNqVDZg5bRpm/LEX/9CIPuKTk4mzE6pCzpVj104ITxJ/JogCjq2+1xjN2yMY4+8iiEtGjrLdw/EgJ12RdQETqyvEtChQa6pzC3Cuwe7dqUlo4C4GpYwS1UIP4S11hOce9TNEfV0acnFEgUuNcYixdrCFg8m6MBHVFcL395miFqaSALeM6i7+aOqmHe0g86yNb35bh30nzuHs8UPYvWkl5i4+JB5cMFE/i8LXpcXGN8YFNcbFoJAU17zhBO+MIJwBIb7KBwGeFN4Jruz5cr9ROEYTwIhPDglwonBiq+815B2OjKqiHV6trDEaR5OtUJX/OQHOocL95e1RXCbkP6OojNC/k1lpTuSa9Mc4HbUEC1bsQGxi4RnHTQI8d6j/+RPNlGJ+McXQcfVjFMb+lvTHpxG1ZAFW7IhFISquecJZ3hlBFHaE+IoEOOGEqDM+IDUlBSmpaf8B8UA4C7b6Xn3SL07B5+L8RkZRDWNiUsS/5EBBEeBZyfj3Zhzirt/Dyw/WhokapL15hNtXL+Nyrs5jUf+D5W2LQcY/NwOXL2bgyqeuvzKS8DghHrEXLyIu/h6ev89dzme9f4a712Nx8VIsric8wbtC5vwcmf6CIsCzkv/Fzbg4XL/3EtYX+zS8eXQbVy9fzt15HJnv8PTeDcTFXsOdR6/x0cpWp4yjoSgrNlh95tIaS585qrkqC++f3cX12Iu4FHsdCU/eFYo6X5P2Bo9uX8Xly9dx7+WHXAnhzHdPce9GHGKv3cGj1x+tbigsOO+MIP7bCPEVCXCCIIgCga2+V4smEVE9vEUxKUOJnlEwv7aYCvELuqFR/fqoz5s/SrlKcwQZuJX2F3/XWUCfVeKpN7CweyPx9wYIGLIBT81Ektxwz6EBDYRjGwRi5JaXwu//RmBAgHDdxqHb8UadhItLB6NxGVdxqCQDmXsFtP5uI26bnZv9AQk7pqNXgB/cZbr5jYyyBOp0nYRNN1KsClIzLk1BbWlRJllJ9N2ZLP4lH0l/gpNrpqJ/a3/4usm0w0P59MuLwi8gBNN33sVH8fBsaN4jftNUhLDPXlSue3Y+39xKo26HkVhyPinfevOzLs1Gh4a6sqFvDZpOwtGc9r1zVPpV8VjQTSq7rPmX0i1KxbihtL/hs9SvH4A+q+6L59pa7tX4N2IAAvjzGyN0+xuoky5i6eDGKCN9e4wM7hVa47uNt9nSbYYPCdgxvRcC/Nwh085lZqAsUQddJ23CjRTzufYhIRq/9G2GSl4KXZljGLiWrI2Oo5fj7CvL3cEZ+wZqR4x85toZ696Lf/hEaN7HY9PUEPbZi4pTHqRnkLE+qy46jFyC80nGz5+FS7M7oKH2nepbAzSddNTCNo1qPFjzjfjOcrLGGLPrnXieIR8SdmB6rwD4uet964wSJep0xaRNN2D+lbE+LvoX9G1WCV4KPR/HuKJk7Y4YvfwscnhlDn9nBEEISN+vhO0CXHUL68YPQd/mfvzwX8bdHx0GDsbgwZINwejVV1k/9hz7fhnG/3vU0gvmAwsW9T9bMXkoe+6wqdj+UKzhNEk4Nnc4e/5QTNn2D1TpjxGzbDy+blINpbzc4OpZEtW/7IMZOxLMV1w8qUjYPRehXRqjWmlvFHFxhWeJiqjfYRh+35Vg41wgDVLu7MLs0C5oXK0MvIsooSzijXL+TdFlxEyExTzEh2yONgOPjy3GuB5NUKOMmB7fSmgQNAKzd981nR7jvFC9xuV1P6Ffq1oo6+0GF/ae5et1xLfLziHRKEBQP9uLmcPYvB0yCssuWtqYSI2H26diGPsOh03ZZnJef2rCbszln7U0+6wu7DsogYr1O2DY77uQYCLhmqRjmDucvffQKdgmXvDjv2ew6a/pGD9qBEZ8+yMiruhKRtaLs1g7uR/a1quEEh4uUCqLoFjpamjYthfG/h6Fs0/SxSMF3h3/A8PZ9A79YSMSzFRKGY+PYfG4HmhSg3s/XJp9UalBEEbM3o27pjMbScfmCtfl8kGlwuvL6/BTv1aoVdYbbi5F4F2+Hjp+uwznjDObIKwgz77XCPW/S9DaTQzS5FXw3SnD78OQLJz/vhoU4r2tMd1CPVmIm/q59lzGtQUWSH7aANaHLGiuFThM0XZY+VRwgKq7cxAgDotUNp2KVWPrwl0/oJaMkaNMt3D2u+NP06F5g5jJASgmBZYmTObZABNj3uYs4jRPsbJ9Ua3w9wgOx6scT7IFFe78HgClUXqNjZGXRNDKe+zRRmgScWBMbRQ1lV9aU6LhrFvZz7UTmcdGwU9u6r5cDBCCbZaKniPTn3Ue31eTRnpYY0p8MfO6dLKN5V6Fu3Ok965E06mrMLauu0Hji2SMvAy6hbN1u3BBLZo3MZgcII3YMGUyeDaYiJhsixmo8WL/ONT3EhdmNGmsiK/wNcLumu9BydjrODGnSTyAMbWl79SMKRti1i3jXMvEsVFCfJr9HAbuIdtgvriqcPPX+jl+q4K5oMPaN+J5Ehq8iZmMgGIW8l3miQYTY7KvP6F+gf3j6sPLgo/jRHyFr8Ng4ZU59J0RBKFD+m4lbBfgGUcRWtayU/fut5s9UIVbsxpByVZKMu8eiEo0F+Fk4PwPNfhKTlFrCmIlx6J+gsWtlOz15PDrNBK9aoqOmA3QXFyVupZgmTea/XoBJgdefriB1SFVdBWjTAk3VoTJGan12RP1xu7HizwFXym4sqQ7KrpIrZQM5C6sGNZv3Zf5YsgBvbZW1sEemqAXRDIyKN1codCmpwj8B21Ctm0q9fKiQs8fEBrgI7QGc3lRxI3NY935dX44AQN/q7qOmfW4LWNkKNFnO8z29aiuYnodLlBRoMYP59kqTJ8PuLE6BFX0Wu2VbkX4Z5WCWM96Y7HfKCPVTxajFRd0K6rjhxN3sPPHNigvCQbeXNB+dSJ/bOqluWhTSmql5/LSHW5Kw54ilzbL8Fx7Cw1eLG8LF/Z3eYWxOJmtQmIDkEMT9CpCBjKlG1wVujQX8R+ETdkzG08Wt+IrYHmFnvghNAA+/Dvl0lSETZPe+XV+wAmq3IhcIpVn29Dg6bI2cBN9m8J/Ei5ZHJNpQw84i+ruXARKvo5xQZN599gvxQhVAuY0lrankqF4yGZtkKkvwBmlC18v8N9kkZKoUqM8imm3CWJNVgrfbH+jJ6TZb31Lb5SRBCAbwNbs9j3mLV+GP6b0R0BJXe+evPwwHMhxDrwGb6O6w0uqFzy6YUO2XjR7osLt37i60AW+tduh37gZ+GPJKqxdvQi/jmqHKnorisvKDMUBoxbltONjUEl6dtbn+wb0x9S/VmLtykWYM3MSxgwIQqPy3gjIRwFu3ANet6JOFOYkwB2aflt6wFlsK/f6ApwVuy7iMWz9WaRkFdQoX0z8DgSTlfoG29/olUPNC2zpXUYrJGWeNdHt+3lYvuwPTOkfgJLaHlI5yg87AP1ir7q7GG2kXRE443raS1VDrZqV4MN+99L3wqXLvfFviBd9h+rGWozq2wd9+gjWq2VluEhplPuhSYjub4INwG9H82MESRqOj6mkfXZG7ouA/lPx18q1WLloDmZOGoMBQY1Q3jvAhAA37gGvi4p6cYDdBDjrpwbuMYw8NS+2oHcZuXiMDJ41u+H7ecux7I8p6B9QUlyrgzV5eQw7oL/+BFtWFreBt574ZmTuKFWtFmpW8mHLrJ5/ZNzR+Ld49inFMwvMOyMIQh/pm5WwXYBrXiF2z1aEf9uAd1Ky4u0wfeMWbNki2VZEX3wuHPpsNTp4sI6DrehaLPwne8XF8X4vBpVmnSMrHlvqH6MVnVw6WadZuQMmrDqKO285waRG6sOjmN+9El+BMUp/TDhj1Meufo6tffx4sS33CcTotSfx8L3gqDPf3ML+37uiElexykqg27pnptNmFjX+jeyO0pyzZIqiZu/52H/rjSBaVe/x6GI0FoxmAyuPEhi0XxLgmbj5R3M+6GPkpdHqx02IfSFUA1lvb2Pvb12E9DCuqP3jGcOecKO8UJZugmHzd+Pqy3TegWcmXsKqPtWEvHBpjDkG3cFqPFzUit+Gg/EMRriZMaoZp/+HqmyQxCgb4TeDCk2N51v7wI8T23IfBI5ei5MP3wuBUuYb3Nr/O7pW4lZgZgV+t3V4ppeRWgEu80DZcmzAxqfPB1UbNEOrVk1Rx684gtawAjzjAibx+8qy1/jye2y8/FyYo6bJRPI/57Fr6UT0qFMcRXIhwDNv/oHmXlx+ylG61Y/YFPtCqHSz3uL23t/QhU8zA9faP+KMYWZrBTiX34yyNJoMm4/dV18iXchsXFrVB9U4wcAGZI3nJNg/aCScmjz7XgNSsC3ESwyk5fALPWZhWKUJcjsHnOs1bqfrNVY2+g23jQq+Kv4X1JMW/5GXw/BDOiWpL8B5Y7/Lkm1+xYkX3EU0eHfhZzTh6grx+h6d9HqlMy/iR39RZDNK1BwXYyA20q7MRIDUsMcGp+1XPdcLbE2jebEK7aRzZGUReiRXuZdL1HhxLBKbLr0yatjkYP3Y+u7wkQJvhT8mX9Z/E1mInVJTN3LBpQPWvDbxdJoPSEq2oILtjDQFjUuTZQFesNKf6zngNpV7fQEuGDfKoc2vJyAU+3e48HMTeLD1Iv93xgOdwl8Jp7JkXvwR/qLIZpQ1MS5GX7Cl4crMAG0DHOPeHqu0leM77OpfStdAoqyCXquvIlmsm1Wvz2N+ECvspfvKSmPQXkFIZhwZiTJ6IjBnc0Hb5S/4c+1KViym1NSNXHDpsAami00Sci42SQjv5CpeKycBzubs0+s4d/YszhrZ4YU9UE7qYGH9UOXBu4ym/GTi4o/+ugUxa45DjKGjwswAaXVyNh3tV+nimXe70L+UrpFAWaUXVl9NZj0Hhwqvz89HECvshXPZuLv0IIivrOC8M4IgDJC+OQnbBbiIdXPA3yGarwhYh1L7J2Sv6zR4HtaJF6UynxBs1m/91YpOVpR1WIh4U8OFP57DRFG4Fe+11aB3N/XvkSjPCUr3Rphx0dTJ6YibXo8VrWza6v+CG7lRUcl7MLAM5yzZwLf/Drw0o97T/jmBs+JYSk3iRvQszjU0uKDu5PMmhs1nImFBa0GgF2mBBQ8MlKw2L7xbzcL5N9lvqEnajBC+xVuJlosMV73UJK5HN2+24uAbQh4a/E3gAw4OK8u/J/e2y/FE/4DUvzGyvJwPbBvNuGhyiHx63HQ2AGEFurI+ftHLSK0AZ8sJ41oR7SdvwtU3+oUgA2msqs268IMQFJkcTibCDbs/fUPv/hYEuCYRG3sW55/Hpe5knDcxRyEzYQFa8wK9CFoseKCXJzoBLvNuhVnn32TPL00SNocIc2+VLRfhcfYMJQiz2Op7ebQjVthrsT6l7cqXOYpOA3K9CJsGbzd/reuhUX6Bmdf1v1VOaNXSCi1FjR9wXu+bNBTgDIo2moZzBp1Hqdg3WCcaZN79sEtsU808ORYVxR5Uxr0j1hgPWWK/97CgItrA1qvX9hymJbFkXcIkVtQL6VGi1eInJvzip0GTuBrtXYTn48TQiL/1GwMM8/UzeVl0XXoN73P1su1P7gR4wUl/7hdhs6XcGwlwpigaTTtnOFovdR8Ga4UXW7/32yX+IRMnx1YUe4DZernjmmwj9TSJYQiSRk8wXui1XSz1yZvxdTHxdzZGqRR6JFu9rXkZia7aHnIZyoz4m/89M2Ysqnq4w91dNFcFGEmoMwq4Sr9rzRvBa4R1HuwKJ8Br6QS4vGxXLL32Pnc+TkvuBLgpNC93Y0hlaZQDe436U3DWsPObc1QYW1Hs/WbjpY5rXhilV4PEsCDtnuSMVy/oXtnXKCbls7wSQo9ke2N4GdlVVw5lZbR+osC8M4IgDOC/QdYkPrEAZ8XZmfGoylV48vIIPWwUFqnuYE5jridSjorfxsBghrJWdCpQfeIFM8EhN7eukSCWSg7BAa1XfYdtvTiBxArk4YfMBmPqB/PRlA0KGZeWWGy1itINX2TcWmChVZugs443PJifA8d4BCPc3ITDDwcwlBf2SgTM1utZtSYv1PcxL5A7Ro7K35026mlJYYPbMrwgVdb/NVtjgyZpK3pxjQOy4gjZYjiH8t22XrzTl/sNh16HliHqB5jflL03KwRaLtaJf60Al5dD/52vDa6rT+bRUJTjKhZFTUy+ZKEwGWBegGsSwxFclBPXHggOf2Xmvh9wYCiXJ6yIDpitN4dcJ8AV1SfigunMxv15gfwx8srf4bS1SSYIFlt9L0/GAQzxFQNoWQkM1o60sZK8rIKeyvon7fQjBT7XPyfzLCZIc22Z7PN5DQS4ojq+P2ecXg1er+mgGx6sbII/+EZIFRJm60SMovpIbLkUh7g4fbuI1b1La8W7stmfJtewMEDzGms6uAj3Yp/Ff/LlnJ/fbqjwIfFf3L15HVevXEHcmd/QWivAS2HYIcO8Sd07CKWkwJszNn99agfj298jceTmaxO96vmP9QK8YKU/T6ug57ncGwpwRfXvkb3Yc+VQWoiQLbtN/hB+VyVgdgBXnwv3rD5yCy4ZlHnWLq5Gb270IH+MEs3+/Ic/NfPUOG2DFRd3jT5uIoc1bxAepNsrWtlsvvgHQxw3nzgVewfpGuQ4Y5Q+qB38LX6PPIKbr3NTamwU4Jl3sbxDCW1aZD7tsDQh+/1VCbMNfNzILZcM3xdrF1f3FkZOcscom+FP3lFl4tQ4qbGFjSnKj4bpVxaOIO0UPvZ9zxfetzE0B5wgCgbCt+pAAQ7VbfwWIAxRLv71RoNhRBnnvucrQ77nNN5IFVolwNlrHBomVO6sM5svRV1SSyTjhjZzzuP69eum7fJCBHFCTV4RY7NPIjZDJmK+FRb4UDaYhZtGyTZNBo6Ecj3M7DmBc3HPbHCYhHWduZ4ctpLovlE3l9uqvGArmSCukpGh9IjD2YajZpwZj2pc4KGogR/0u6Y4Ibs2iB8GJ/cbib8NRLbUCs/Arc0cnDeVh7xdxsIgbpieHBXHntQGVPpzwCeaVrI8mhdr0JF7D9x9qnbG1IijuPlKGF5vHvMCPOOIuA2HMhBzzWc2ktZ1Fobmu3fHRl1mWyHAufIfxJd/WekROJxL7UP8t7HV9/Kkb0cvdzEYk/uZDrItkadtyDJwZnxVvd4+3feRfnw0Kki91EW+wtJ/Db87AwGerRdRIGPvAF0Pj+JzURxl4KjoO4W05mzKwHm4b/6zF0nD1hBpQSw5Kn13Kp+FoAZJ1zdj5qA2qFXSTW81ayMzIcCh+geRX5c3mC+sNVb0+dbtjslR1wyG5ec3uRHgBSn9eduGLK/l3lCAc4saZi/2Gdg7QNrJgL3251PFn3Naa8fYlAicJ8xd/7i5h3Zo+mfKFlhksnMhk/2uymlFn8J/svi7IY4Uc6p/IvF1eanX2dAYpS/qdp+MqGvW7ONviwBPwbmpDbQLRjKKiui/w/QUF4Ptv6wxNj6Zxzuqj9jcQ68xpIWZUXWZbJkoJ80vFxoNTUECnCAKBtK3LvHpBTjrqp6t7sgLPKZIKyzWriL6HnsGcr0WDDzarTQc9sxhpQDPujwFNXlhqTd3LmUDuhos9pWDyXwx9KC1Kuo91nfhWqwZuHaLMjkkOzvvWWHNVQDsOaywNteRzFXGOqGuF0RalRcpfLoEAf43eyUjVDfwawOuMpPDb+Rh3ar06n+woAXn/FmHPumSURCagg1ddRVDziaD79CD2ntbK8C5CujyrKa64Js1hnGBd8Uv0Kr7cExduhc3k4wLiHkB/p4V1lzZZFxZYW0+sw2EulARclgnwFPWd9EKcIMRowSRA1IZt4n0aPTlplBw15KVMFzs0RryuA+4Kn4mP92EP09eBf87zd1XmsLCXUsG7x5R2eZr5lqAK+tixjXumAzsG+SjFSiMXAkXFxeL5tF+hd5aEeZIRVQ3qedRgRoW6hjbScet1T30FuzkjFtTQ3oWpd58XBMCnEP1AqeXjELbasV0CznpG+OGGkN3GKzBkZ/kSoBzFJD053Uf8LyV+9wLcGXdGeLP+zDIRxLgDOTK7OXc0DzQfoWw9k7Khq7ad8PvAy3uRGCIriOBO05Rc4r4uyGOFnOqF6exZFRbVCumW2hR3xi3Ghi6I6c1fPIqwNkYI3oQKkmL3TFF8MWPpw0XudUjY98g3VoOjBxKk+9JzzzaYwXvqLg4S0rfZ3BpvRSmX1kMvvXTCfCaU2LFPxhCApwgCgbSNy3hAAHO8m4XBnDznBgl6ky/ygc6mudrEeTJOjY24OgXbWJFRmsFeOwU1DIS4Jq3YQjihvSx9ytRoxECAgIsW+N2mHXO2v6PtwgL4oYuco58q+GwebPon7PNwjmZODGmgtC73ug33JEqa3sIcLaK+nfpV3yPr6zEN9ghZrnq5q9owM3fdgnEXOO9vDS6dCtL1EAjU3lnYI3RbtY5rYi3XoBzpOHBgXkY2aEOShntk8vdX1GyBaYfN1oZ2YwAfxsWxP/OB4YWXlDmiTFC7wW38Jwus0mAE/mKrb6XJ/MkxmnnG7qiwxrzUzxMkkcBrmuw486To/yoY0hL2YOBJUWxICuDwfuMJ0eyfiZHAa7By5Xs9yyJM5c2WMYHpzqfyP2ubLEQRp3reUP9CAuacz6Vu64STf/QXwfCvqjuzEMT7VxdBfw6zET01ef4KN0wNQrdXMXnNifAtaTjxdV9WDVjMFpX8TTsSZdXwJjjn8YZ5VqAa3Fs+vMqwPNW7q0Q4JqXWNmWGyEoHMPt9MGTeQJjKkhiS4kWC/+1unxm7BkAbylfsy3qJ5GEyGBp3QQ2bS0Xi78bUmDEXPoLXN23CjMGt0YVT8P4QF5hDCwXm7wJ8Mw7S9FO2wgiQ/E2C3HLQpiojSe445UtsNBqR5WBPQO8tc/EjUYw/coiEazdMUGJloufiH8whAQ4QRQMhG/V0QKcdXdnxgt70MorjMLRjyrcmR3AB1uKahNw1pTztFKAZ/w9XJhTo/wSfz0SHV7aTvThxD1TFCHbLO1AnhfSsLOPsPqw4bZYlkhH9DfiOW1XGK2cqU8aovsW0x6nXXTFLgKcretfb0RPbuEVxhOdI7hFmzJxYaI/+14YeHRYjWfZ0sU9qyebHgZF2UortzmZOwGuQ5P+GncvHMTGJT8jtOsX8BV7HuR+w3BAG+OYF+Dp0d8IWwy5tMUK85mNtOi+wsIn3HG6zCYBTuQrtvpeHs1TLOF9AnctOSqO0039sIosYWVx4fzczIFmhXJ4MDzFAJ9bjXfThn7wFQM+edX/ge8cNCJHAa5JwpYQbuFE6TpsvcA/kAZPl7bWCnOZbz9E2yOgzPgbw6X5s7LiGLDHuqbU3KPGPXG9CO5eTNFgRBgPD3i/Dp2tFuB6qBJxesaXenujKxE49574x/wl7wJcDwekP4tfWVy8n1lxaoq8lPucBbgmaQtCuPVX+GPkqDrhrPiHp1jaWhLmMvj2izbb82qM6s5vaCR9a4wSjUxs76Z5uxW9tOJSjsr/OyP+xZCCKOZUiacx48tiWl+R01SzPAnwlDOYVE+3sKOi/DfYmsPwDM3TpWgtjXKR+aKf1Y6KjYe5bQrF5+F2osm+GK0Gb7f20vWwyyvjf2dMe3wS4ARRMBB8Tj4I8OSIYEGAlBlp1RxY1e3fEcBv++WDkHV7MZ5buIRxYStcM9s4WSU6Vbg9qyHvuAwWrlDdwqyGwrk1JhrvaW0rKtycJW7BVnIg9lo1Bl2XTllZVrCZi/WyrmJabS4olqOC3lxqewlwbtjlgWFlhTndLRfhYepRhHIrnMtKoM92U/tCcnu5C+nm5r0ZTB23grwKcEPUeLW9L8pyLcsGc/XNC3DV7VloyN1XVhYjzGc2rk6rLTYK6Z9PApzIX2z1vQJZOP9Dde28VNPDWy3Arc3RSBLwDLy6b4D+JhQWebcTfbULwHmiTBlPIRhmg/0vfr5u0p/nJMBTzk1GPe2+5ApUY4WI9FnxixtJgS23G8O086y3s42sy5O1QoxxaysOBTWD5iVilv6MadOmYdqMBTiUbb6UJbIQ99Pn2vfEFOuFbfp1RvpdRPaprJsfnRsBzqK6Jfo6/vpKNBHnARvCiseYpfiZS/+0GVhwyHTPWW6wiwBn+dTpV93WF6de6L5Bf1RVDuS63OckwFNwbnI93cKDimqYoO2NEBYflBqeuN1cpp23stQbrPDP1lE+X2FurN4K4llPED2shq7MKapi/BnTZS6vYk7zMgZLf+be1zTMWHAo+xRDm9DFJXy6lE30ppCZIpcCXPMcO/pX0E6VYFxr4bujb5CZlYUsA1NBrV94+IXzpEYT9j6NpsH6VzZJ1zDExnA+X81FrN5WAVlPojGshm4+vKLqeJh5ZSTACaKAIHzP+SDA03f0FuZ1e4RgizUilHVqazoKvakuPiX4Vm+mWBdEmOuhtEZ0fjyDCXxFwwpWbkiY+DPnoK/NqMtXMDLfblj3NAfvn5VpRtSaRjvsXeaNTmsNt/wyJIt12uL/xf2Ez/lzSqH31kSTlf6HU98Jw+OM9tC1nwAHMs//gBrsPbiF7yb+1gcl2fcgr/AtjpnRqaprM1CX64GW+aLbuqcWnpVD97wc1gpw1b1zOMdvjGoa7XUM9us1L8DZzMZPn3PlQoZSvbci0XRm4zt+CK4c5QxWyicBTuQvtvpeifRjo/itFrlrMdo509aShn2DfLW9SIyyIrrM2o5TV+Jx9eIpHImOxMKVR8VjjfmIo6HltcPCJbO0K4SBAJeXRadft+HIuThcizuN6IUjEOCjt8etb1dE6kfsrADeHKK3IrLMC5+HzEDY/jO4Eh+PKxdOYN9GVqCFdkcT/96IzLElIQuxU6Wtoxi4Nv/L4qrpmtcRCBYXvFNUn4CzuRKbGrxmxaq0iBM3j7TWgCU4ePEKzu9dgpGNS+jmf/PPZizAM3F6UmPUad0LY35djk17Y3Au9hpu3LiKs/tWYlwz3Tv8TF6VFXAmWkk1rxERLC44x/riCbl7AJZUnFk0CsOHD9fawFa698/tM912iO5vI8ZH6u20URDSr0faPgySRDT77pUVu2DW9lNsObqKi6eOIDpyIVYeFeZSZye35d5QgMvLdsKv247gXNw1xJ2OxsIRAfCR9pXmerm7RhoIVc3LzQjRblHGfhdenyNkRhj2n7mC+PgruHBiHzYu/Rmh3ZvAv3ekXgOaGg+WfKXtreeMcS2D+h37YOCAr9GqejG9MidD8aA1Zqd15E3MsWU+Ilgs82zMMuGsVUO+Dcg8jUmN66B1rzH4dfkm7I05h9hrN3Dj6lnsWzkOzbTvkM1X7WgZkdQzWDRKVx6HDx+IVlxHA388+86rtMUQ7d9GYHzkDfZNSbDvbGlb3TNbNCW+mHldPI9Dg5ebQ/RW/JfB6/MQzAjbjzOsX42/cgEn9m3E0p9D0b2JP3pH6jX+qB9gyVdcfCydy/qlMvXRsc9ADPi6FaoX0/lHbsRO0BrzUxJIgBNEwUD4lvNBgAuLknDOwBfd1+W0CIbAu90D9JwTK3yGHTC/iJlWdLLHfbMRj409+Ic7WNe/Gt9CzHi2wsJ7hsGn5uU29CnLOV0ZPOuFIupmis7ZSWS8ROyWXxDSaBA2W1isKxvqxwgLFoZLyrybYeqRZ0a97Gok39yOGd2aYLS0OBL7PGGdhb2p5WWDsTDunUF6Pt6LwsDqXOspA/fA2bipL/zsKMC50QFczxd3H6WS+68Cn/9kYf4nG/xu68P1mrPP6lkPoVE3kZI9I/Eydgt+CWmEQXoZaa0AT98WAs9STTBi0VE8/Gh88VRcnd1C2PatWDes16ppCwKcE9FhnflKiGGD/eCFcXhnmNmIGlhdKDvugZhtmNkkwIl8xVbfqyXjHL7XzuOWo0Lo4Vz1DKefn4za2l7n7Mb12Jkj85KuB1kwGby7rYe5HRYNBLgFY4rWwZj92fc017zYjeH+ViwI6dIBa3MS4CkHMUxazIgpinYrLe8BnhrdVwhoGTc0m3/PqrpOH81rti7SbhdlbGx9UKo1ggO9BCFqQoDrb1Fk1hgXVBkSnW2vaJ7UaPTlhzkzcGs238IuHGbQvMFa7ZZtOZusxBDo1gQsAOk3IB3nJ9fW9TpnM2NRZUjuyr2hADdvDIrWGYP92Toj2Dpu93D4W7GgrEuHtYYjWDITsKpzGcPGnWzGirzqQ7DTQgdF3sRcKqL7CvER49YM8/PywjJP6da4sGCMSxUMiTbcb1vzZi06SNv65WgylBhyQC9eSsf2XtyOLqaONTYTZUXzAruH++tWoTdrLuiw1nD0RWbCKnQuoye0TRnjiupDdsJSnxIJcIIoGEjfrYTdBDgn5OYECnNkGLfyaBoyFKNCh6JPcHME/u+QeJARGWcxQQoYFbUwJdZEa7eEVnRy6WTFoo8/Wnbvj+GhoRjeNwgNygjBGNdzE7LugQkBqcHb41MRyM155o5TeKNq0874ZmgoQof1Q892jVDBU1xZM4fVsk2hfroDg6sLq+gyMg9UbNIF/UeEYli/HmjbwA9FZVyvsQ8G6e3Pq36yDYOqiecofVG7XW8MHTkC/YMD4McvrsFAUa4zVt42UnT2FOCcwGSFq3ZbDVe2gsxhzx7N2+OYGiiu1Moo4F21KTp/MxShocPQr2c7NKrgKQ7XckV3vYzMjQAX0sMGo0X90LB9CAaOHIXQIb3Qrm4pIViSFcdXf93Qey5LApyFzbNtg6oJ5zJK+NZuh95DR2JE/2AE+InlVlEOnVfeNsorEuBE/iL4NDsIcLasPljUCkWlb7lIU8zTLiZoDRm4t+VbBJbUDW3UN0sCHKo7+D1A7zx5BYw6an6ViJwEOCMriopfjUHYFfPbCqkTz2DBwEYoKa1GbWAMZK6+qNl2Jk5YHJGVhVuzA/nFKLnz+HUlLAaoGTg2SlgtWuYTgs1Wj9PXR4M3p2ahvZ+06rporOgs23wsNt15h5jRYs9qrgU4Wzf6NsA3c47iqRlflXFsFPy4kRLc9K/NuRhyLZGvAvwTpN+YjHvY8m2gmXJkWYDnrtznJMDZMlu0Ir4aE4YrZvdgUyPxzAIMbFTSzDZuMrj61kTbmSeyd2ak38fOSe1RuajxoqZc/FECDfr/hdOvLNf9eRJzGccwim/gksEnZLP1U1v0yUmAc3V6g28w5+jTbPGQQwU4hzoRZxYMRCMzfpWRucK3ZlvMNOGo0u/vxKT2lYX40eA89jsp0QD9/zqNHF4ZCXCCKCBI36+E/QQ4S0bCOgyq7WXUysrAu99u8QhjPmDPgBJ8L3CRlgstDvvTiU7WQTbqiFaVixqumMpWPB41umLmwcfme29ZPt6NxvSeuoW89I2RuaFsw64YPe8QHuUmbhVRvzqDRYMDUSZbLxIrJD0ro+XguThqtHCH6nkM5vaui+LS1haicSK+Wqep2P3AhJqzqwDnBPVmceEXBl7B4aZ7HYz5eBfR03viC18TlQr7LtzKNkTX0fNwSC8jrRXg6hensGRsMOr46laD1V1bDs8q7TBh0y2jACMHAc6heo6Yub1Rt7jRFiZc2anWCVN3PzCRTyTAifxFKod24eMZfF9T+iZl8G6zCAmWHKIp0p7jyuGtCF++CAsWLcPqyM3Yc+IqHiZZaCDNuo6Z9aX7MnD/cj7uWvChBgKc9QeDl29BxPLFWLR0DdbvOIZrzz9aLayyku7j3L5NCF/Bnr94OdZE7cLRS/fwOj3nK2QlLMJXYqPsZ7JiaLfiIfvFWyDrMiaL05yqjDupN80pD6Q9Q+z+DVi1ZBGWrt2CI/GvLPppCU36WzyKP4cju7dg/doVWLpoARYsXol1W/fi2MX7SLL4vrNweTK30CbrJ6uMw0mbHiBvFNT0pz2/gsNbw7GcTc+iZasRuXkPTlx9CEvFPnfl3lCAK6oPxvItEVi+mH3/a9Zjx7FreJ5txJc5spB0/xz2bQrHCvb8xcvXIGrXUVy69xo5FXv1h6eI+3srIlctwcJFyxGxIwbxr2wYxp8D2vUV5FUwLs8vTIP0t48Qf+4Idm9Zj7UrlmLRggVYvHIdtu49hov3kyzGfQWCrCTcP7cPm8JXYPGixVi+Jgq7jl7CvdfpOfg6NT48jcPfWyNZX7EQi5ZHYEdMPPLxlREEkQ8Yx3p2FeA86nd4cHYfNkeuRdg6NnCLicOjd6ZdoyZxA3pwwY81LdnGolOdisexR7AzKgLh67fh4MVHSLW27mLJSn6AS4d3YmPEWqyNiMK2/acQ/yzVcvBlJerUJ7hybDe2rA9n07YV+07dxMs0y4nLeHUDJ/ZsxfqISGyKPoK4Jx+sDkAdSlYyHlw6jJ0bI7B2bQSitu3HqfhnSLVPRuJp/Ens2xaFiLBwrN+yFyeuP8MHWzMm4xVunNiDresjELkpGkfinth+TYLII3bzvTwavDs2Fv5SAyPjiYAZti9SZplM3F6kmyfJKKpg9DHLdzQQ4Gb2Ac93Ui/i58Ye2saKYq0X4k4OUbyUbsa1MebkanRBAUF1F3MC2HqUcUXjOXf05roWEgpU+nNb7g0FeK4XSiyUSM/MwLXxHN1WqgRBEP8x+HiHNQn7C3CrUeHOnMb8kGB5xW8Rk1PDqFW9vgRBEIUL+/veD7j0S6B20SVG4Yfua+7kfuEjK8h4exd/z+uBqtK8VEaBikP35jjM1OECPOMewnv6iVNlGMjL9EBkjsOeNHi+oi3cGBm8u28wvZhjAUfzfAXasu9K5t0dGwrhAxSU9Oet3P8HBbjmOVa0dQMj80b3DaYXmyUIgvgvwNcVrEk4ToB/PI4xleVsxaVE/V/ic27JJgFOEIQTki++l/WX2wZW1W1bpKyC0UctTobOBRn4e2RZKOVyyBj9qTOsMG02CxetuI1DBbgmEbsGV9TOoeUWzvzlvN62TGZJxqaeXmDklTA6xvz89oJM8qae8GLkqDQ6BoXxCRybflvL/X9QgCdvQk8vBvJKo1FIPxmCIAi7INUZEg4S4BokbugObxkbGHq0w0prNoUkAU4QhBOSb7438z7Wf1OFFeEuqDZwCx7ZzWlm4NAwvW3AWGMUPqg/eDWuWTnW3bE94Bq8O/crmheXseI7EFNiXlvXM6d5j4RTB3HgyPVC2fvNPff7hFM4eOAIrhfKB3B0+m0t9/89Aa55n4BTBw/gyHXq/SYI4r+NVG9IOEaAq+5gTmNuBVgZSvWLRrL4s0VIgBME4YTkq+9VPcXh9fvx0K4OU4X7O37G2NARCB3zA2b8FYWYu+9yt35Gxmvcj7+O69dZi7/ngAWFWBF+aTO2XrGm55sgOGwv9xmv7yOeK/Osxd97lS/TQgiCIIiCh3Gs5xgBjkx8SE5CUlIyUjOsDX80yEhN5s95n+bs47YIgviv8Gl9L0EQBEEQBPEpMY71HCTACYIgCA7yvQRBEARBEM6LcaxHApwgCMKBkO8lCIIgCIJwXoxjPRLgBEEQDoR8L0EQBEEQhPNiHOuRACcIgnAg5HsJgiAIgiCcF+NYjwQ4QRCEAyHfSxAEQRAE4bwYx3okwAmCIBwI+V6CIAiCIAjnxTjWIwFOEAThQMj3EgRBEARBOC/GsV42AU5GRkZGRkZGRkZGRkZGRmY/kyABTkZGRkZGRkZGRkZGRkaWjyaRTYATBEEQnw7yvQRBEARBEM6LcaxHApwgCMKBkO8lCIIgCIJwXoxjPRLgBEEQDoR8L0EQBEEQhPNiHOuRACcIgnAg5HsJgiAIgiCcF+NYjwQ4QRCEAyHfSxAEQRAE4bwYx3okwAmCIBwI+V6CIAiCIAjnxTjWIwFOEAThQMj3EgRBEARBOC/GsR4JcIIgCAdCvpcgCIIgCMJ5MY71SIATBEE4EPK9BEEQBEEQzotxrEcCnCAIwoGQ7yUIgiAIgnBejGM9EuAEQRAOhHwvQRAEQRCE82Ic65EAJwiCcCDkewmCIAiCIJwX41iPBDhBEIQDId/r3GhSEvE6XfyHJdJeIzFFI/6DIAiCIAhnwTjWIwFOEAThQMj3Oi/qFwcxvpE3ynZagviP4o+m+Hgdi4PKoFi9sdj3TC3++InJuoxZX/mjevXq2c2/I+bHq8QDjVHjaXgf1DJ1XnV/BE45iUzxSIIgCIL4L2Ic6xUqAa7JSEVyUhKS36fBXChAEARRmCgMvpfIPZrEvzGujjsY7v0yClT+9qj4FyM0idjR3w8KhisHDNxqhWLvcweI8MxTGFdRri2PBqbwx6RLWeKBxqjxz5/NoDR13mcylBhyABnikflJ5pnxqOaihKu7N0pVqo2mwYMwafFuxL8pHNGCTenPPIPx1VygdHWHd6lKqN00GIMmLcbu+DcUKxEEQRQApHpRohAJcDWeLG7FV/KK6hNxwVwsQBAEUYgo+L6XyDUf4zD7S2/I+HfLoAgrqnc9NS+FUuP+RLtSckGss6LVM/AXXEwV//ip0BfgMg9UatgczZuL1qo/Vt4xl34Nnm/9Fl9Jx7IWULWY+OyfUICf/g6V5cK3pDMGMq+aCJl3Eq8cNLDAWmxKf+ZpfFc5e+MJI/NCzZB5OFnQH54gCMLJkfyyRIEQ4GlxkZg2eTKmzt6NB2ZjFBLgBEE4H470vUQ+oHmLw6P9oRR7tOXleiDiQU4Vlgbvz0xFo6KMUB4YJaqMOIA3n3JKuL4AVzbErFt57TtV4/GilmKPuKMFuGiMG2oM2wVHDCywFpvSb0aAC8bArcYw7CrID08QBOHkSD5ZokAI8KTwTnBl7y33G4VjZieLkQAnCML5cKTvJezPu8OjUEUhCGlGWQNjjiaz8toaVHiwsiN8ZEJ5YOQVMfxAkpXn2oFCLsChzsCHlHd4++IBrsZsxNyRLVDORWzQ4Ezmi683vvx0+ZlbbEq/GhkfUvDu7Qs8uBqDjXNHokU5F3FEBWcy+H69ES8L7MMTBEE4N5IvlyABThAE4UAc6Xvzlwy8fXANFy/E4ubTFNaDW4n6A17ej8fl8+cRd/sp3udVBzqC9IuY8rlSO++7+tjjSBH/ZBXqh1jZQTd0XVl3GmI/1QpmhV2AZ0ONF3uHoZpSErEMXL78C/8Umo5g29KvfrEXw6qJZZE1xuVL/FV4Hp4gCMKpEPw4CXCCIIgCgSN9r11Q/4uIAQGoX78+6jcOxfY3Krw5txD9G5WCCz8Mmw3+GTf4tZqA6IcW1OSHO9j+U080KOMGmXgeL0KL10TwxI248V7XfadKWI6QAPZ+7D0bfvUzzuQgUjNipuDLBtzxDdB86nHxV3ujQWJUD3iLPdiyEj0RlYcux4zYn1BHEl0yX/TZ/ol6wZ1OgLOon2BxS6XwTKwx3v2w29KWcGkJ2D6tPzq2aoPuoxbiVKKDBWtu028AFzNJ74E1xhv9rD+ZIAiCsCOSH5ewuwBPe/Q3/vq2CwKq+MJDKYeyiDf86rbDkFk7cNt4j1PVTUSMG4DezfwgZ+/NuNdA27790b+/ZAMQuvKKeLCxAFfh9eV1+KlvS/iX8oBS4QLPsrXRLnQJzlqsNDVIuRON34d3QsNKJXRprNMWg37djlt6QZ6E5u0R/D6YTc+gidj8QLj2x39PY+P8KRg7YgiGhk5EeJylPWYIgiBMYy/f6zBUdzEnQBQJyqaYuuJb1C6iN3RWawxc60zGOROuUvMmBpMCpIW7TJkMng0mIuat4J81b8IQ5Crew6U91ry2JFE1eL6sDVz46yhQc8pl8Xc7o/4XS1q7iT2OclT57hTyJHc0z7C6g4d4HQYencI+zdBhZxTgSMP2XlJesjGGV1/sMvtS0nBqfHVx7r6Qdu+gNXjsUA2em/RnJ217L3hIz8N4oW9uTiYIgiDshlCv5IsAV+PZ/u/QwEsmXouBTOkGVwWjDSTcqvfHhnt6VXHGUYSWlY43ZQy8++0WD9YJcHmFHpgwMgDF5VwAxkDuUgRuSt19itT5ASfei6cZ8AE3VoWgshS4MTIo3YrAhb2ONtip+y32Gu3Dqn6yGK2U7N8V1fHDidvYMbENyrvpB5guaL86UTyaIAjCeiQ/UmjRF+CMEi5i7y0jL4oyNWqhordCKyA+k3kjZEuSeKKI5gW29C7DN8Jyx8g8a6Lb9/OwfNkfmNK/MUqK86k5UVt+2AEkc2I08zhGlxfFoqIOpl+1NCQqC3FTP4eCO5ZxRce1b8Tf7Yvm6TK0keoFi9t25YQGb6N6wEsaPeDRDevFhod8xQkFuCb5AIZVEJ+JNWXDWTD7WKob+KWerreZM6ZoL2x3oGbNVfqN0STjwLAK2u/KtndKEARB2ILkxyXsJsAz4+egmScbfDBylG71IzbFvhBa/7Pe4vbe39ClErcgCAPXz7/HKWl7Fc0rxO7ZivBvG/CVtax4O0zfuAVbtki2FdEXn4sH6wQ4l05G7o16A+Zi19WXSOcDskRcWt0X1blFSxgXNJ6TYLT/pRrPt/aBHye25T4IHL0WJx++F47JfINb+39HVz6NMvh0icBTPQ2uFeCyoihdxosfHsm4+KBqg2Zo1aop6vgVR9AaEuAEQeQeW32vw9EX4LwxkJduh99Pv+L9q/p5FL4uJTW0ylFh7EnhPJHMiz/CX7toWS18F6O/aFk6rs1qjCKSGHVvj1XP2b+q/8WC5uI9ZT4YtM+SxMvA/sElhN51uR9GH8+fSdUp20K0olnuF4pjNqhOzYtVaC+JeVlZjDzyCSSsMwjwtLs4vCESkZERWP3XZITUlebTs8YURcuF99nUmeM99gwsrTcKg41XGs/B7U+pWW1KfxruHt7AnhuJiNV/YXJIXe10CO5ZirZciPsO7c0nCIL47yL4YnsLcE0ionoUZysKBi51J+P8B/F3PTITFqC1FyeOi+DLPw0rkdzOAZd5t8TPJ14ge/9CEraECBWWsuUiw6FjqX9jJNdjwrij0YyLMLXFanrcdNTjetKV9TAzXlfragU4e13GrRI6TtmEq2/0756BNL4VgCAIInfY5HsLAkYCXObVDLNi9SuBFER1K6IbZdR7h/g7RyZOjq0o9tKxIiFobbbh1prX4ejkLopRxgu9tnPXTsfegVydw53ngrYrXvCiXf3vcgSV9kHx4j4o/80mYRsvzWus6eAinK9sjgWP8kOFZOHq9DpCLztXD7Zdaduw8axLmOSvENL8mRItFz+xILzshDMI8KRwBLly9zUyRoHSQctwK4eEaBJP4PeQAFQpVx612ozC+tufuPvbpvQnITzINfu5bHlUlA7CspweniAIgsg3JJ8sYRcBrkkUAyTGA8Hhr/R6L/T5gANDywjiOOB33NGr2+23CJsa9+c14Y+RV/4Op/Wu9W5bL741WO43HIdMNBDwqB9gflMukFSixaLH2oBHK8Dl5dB/52szz0cQBJF7bPG9BQIDAa6A/6RLRo2j6djV10srwN2+3ir+zqJKwGy9c6uP2IhzFy/ior6dXYGQ0lIPuhLN/vyHOxE3f60vijxuXncse0+2jlj6Fdyk3nLPrljHzQ1XxWuHFsu8B2BPvmiqDBwY4is2CLCic/B+20SnfqMBl6eTL5tocLYzTtEDvhUhBusPMHAt0wh9Zh3Eo8KgP21Kfxq2hkgNXYIxrmXQqM8sHCwUD08QBOG8SH5Zwi4CPONIKMpyQ52UgZh7z3w7fdK6zvxQQsa9O6L05mjbcxX0pPAg/lqy0iNwWFvnSL0sbPDXZg7OX7+O6ybtMhYGFWUrMDkqjj3JniWgPwd8Ii2/ThCEHbHF9xYIDAS4El/MvG40/ceCAM84ksM6IMamROC8+/ypKZt6wJ0X28JaIema51jVXk+AMJ7oHJkITcZhjCwj3ENZ7xfoDW6yI+nY3stdvLccfqOPa+uPvMGJKd31Kn13ysbrWYEzCPCMfRjkI5YnZX38eOIZPuT70AE7YlP6M7BvkI/YCKRE/R9P4FmheniCIAjnhffrrEnYRYC/Z4U1J3oZ1+7YaK53mUVfqM/Tm4xkTwGesr6LVoD/ra31U7Chq7Q6rTUmg+/Qg9qggQQ4QRD5heR3Ci02CXA9wcH+Ta50gYuLJfNA+xXCuiBZF35AdYWQdy6tl+DJizB0KsqNxJJDLi7Q6REcjpfJ69CZX3iTQZFuUTC5PqfNpCNa+4z2EJ2piOrmKl5PgRoTL1APuDVwi/P5ic/gEoSwt+LvhQWb0p+J46OFHWW4aRlBhe7hCYIgnBchzrGrANfgbVgQv8UL4x6CbWnizybIPDEGFeTsfZSN8JveGPR8F+CatwgL4obzMVCWqIFGAQEIsGiN0W7WOeoBJwgi38m77y0g2CLAM09gjHaVZyVaLPyX9fTWoXm1Em1dhLxT1PgBByO6w5MfYdUG/b4uywsRpmgnrD41CwH8Gh5yVJ1wLp+EbCZOjtPNZXftsAYWd0bLCfUj3SJzbL40/eOB1fmSZ5xBgKviMb9TbdSsWRO1GozXa4QvJNiUfhXi53dCbfbcmrUaYHyhe3iCIAjnRajP7SrA2fAq+hth9VeXtlhhYeWZtOi+KCYd90J3XP73gKdhZx9PNgBkUDRkG3K7YzcJcIIg8gtbfG92PuDW1pkY3rMzegydhvVX9VcUzydsEeCap1jamtt9gvubDL79oq3vodYbvs4UDcKAntxK5wxcWizEjR194cONtmI8ETS0N8pxDb+fuaDNcmGxNvujwdMlrcW9xtm6rOJYnLRlzHjG3xguzXuXFceAPRZatu2FMwhwO5D5JgFnjx5H3ONUWu+FIAiCsAtCjGRnAa66PQsNOYEqK4sRf5sLFLJwdVptfpVYeQXD4CQ5IlgQzWVG6s3bNsYWAa7CrVkNhXNrTMT5XAZGJMAJgsgvbPG9hmjwYnMISmu3HmL9oHdbLMtx7yENXsYsxc/TpmHatBlYcOiJ+LuV2CLA2SMTZgfAhZ/LzfVeN8K08yni33JA/QB/NBHvy7ihCLdtF6NE4zl3oUreihBvTsCy93N3h5y7vqw0hpvoFdS8jMHSn7lnn4YZCw7hSR67mrMuTNQOif9MWRc/X8+rgGWvdXky/MVrMW5tsYLbes0cmpeIWfozn/5pMxbgUF4fwFEC3F7p50i/i83jgxFQ5wu06DsbxxNzI6E1eHt0Ihp4yfiyyij90HX13ZxHTBSY9Kfj7ubxCA6ogy9a9MXs44nUgEAQBFFA4OtW1iTsIsCRFYefPue2TJGhVO+tMFlnfDiF76pzx8hRbvgh6E8VT9/RGx7c0EGPEGwxtT8Yjy0CnA3zrs1AXSUboMl80W3dU/ZqlshCpt71SYATBJFf2OR7DUhCZGfDVZA5QdxsPrdquAU0rxERLC74xfq4CWdzuUy4TQKc0y+bEaLdJ5z13V6fI2RGGPafuYL4+Cu4cGIfNrICJ7R7E/j3jhS2FuNJQ3TfYobPq6yPX26wd9e8xcYexn9rjDl3jT2/Bq8jgsXF3BSoPuEsm9o8kn4M33JbXfL3U6D2tCt5HO6ehdiptbRbmrk2/wv/WKiwNK8jECxu06aoPgG5fX1aHCTA7ZZ+9r73/2qu3TOeu3fpQXthZXMOe/pjLG4pjcYQTFY2FDltwV5Q0q++/xea662gLis9CHutfniCIAgiP5F8s4R9BDgnjsM6o7iMFdHysgheGId3+iL84z1EDazO93Iw7oGYfdMwLFHFz0Q9vgfdF93XPTMjjm0T4Fwr9bY+wrxAmWc9hEbdREq2hoIMvIzdgl9CGmHQZl0TAQlwgiDyC9t8rz4fsKuftDe2aIw7Oq59Kf7dDKnR6Ftc7C1uNh8WNrIwjY0CnBPBL3YPhz/Xg62fdhPm0mGtngBX4dqMOqLQE0zx+VTE8S6aFdbruvJzwqW/MZ69sD3b/KNUVsQLeca4NcP8XD+8Phk49311UTh/Bnl5tg7KiwBKOYhh0kJcTFG0W2l5D/DU6L583cuNAmg2/57FYy3iIAFut/Tzi5CVF+fhC6ZssQiPrb2gdhtS3fky3yE4kIMALyjpzzw+GuX5qRaiKVtgkdUPTxAEQeQnkm+WsJMAZ1E/wbZB1eDKBTyMEr6126H30JEY0T8YAX5CrwyjKIfOK29nr4xVtzAnUDzGrTyahgzFqNCh6BP8JQK+OygeZKMAZ9G8PY6pgd5CgMoo4F21KTp/MxShocPQr2c7NKrgCQUfsLmiu95y7iTACYLIL2z2vXpkXJuP1j7CEFpO/HgFTMOZHERgxrFR8OMCd5kPQja/yf2wVZsFOIcaiWcWYGCjklDqiWatMTK4+tZE25knWMmsI3ldF+2+31yvc7Xvz2t7nTWvxFXRxWsoak1FrLH7zjiGUbzYlcEnZLOeuM8b6geL0Eq6J1METebezmUveBZuzQ7U9oLK/YbhgMVJ8Rk4NkpY+VrmE4LNtjyAQwS4HdPP8vHcT6gv9kYz8lLoEvYwF4JYjWfb+qMSN1KOS7usGJr+FpfDiIgClP6P5/BTfXEkCyNHqS5heEj6myAIokDA1yusSdhPgHOoniNmbm/ULa4Qgy3R2ODJo1onTN39wGxFnJGwDoNqewlz9bTnCvu7CtguwHk+3kX09J74wldpmEbO2HS6lW2IrqPn4dAjXfBBApwgiPxC8j/2IvN5LPZErkbErgt4kuPaXVm4PNlfWJujyjic/ARrfVkmC0n3z2HfpnCsWLwIi5evQdSuo7h07zXSbRTHptDOtZZXwTi7PPxHnPm+prYRQVbsKyy8Y32dkZWwCG34uevs+awAbLciBwGWdRmT/YWpXVXGnYRNT+AIAW7P9PNo8D7hKKLWhGHnxWcWhL851Ei6+Tc2rA7DjrP/5pyeApZ+zfsEHI1ag7CdF/Es9w9PEARB5BPGsZ59BbhExivcOLEHW9dHIHJTNI7EPcEHa4In9Ts8OLsPmyPXImzdZuyJicOjd/kkeLOS8eDSYezcGIG1ayMQtW0/TsU/Qyq1GBME8Qmxq+/NLVLvNeOKxnPuGPVcOzsq3J0TwApFBq6N50BvZ0yb0Lw7hrH+UgMvA4+A6ThnzVD01IuYGcjt1iEI12KtFyIn7a66O4ffYo1xbYw5tj6AAwS4XdPvAAp7+gmCIIhPg3Gslz8CnCAIgrAKR/pezfMVaOvGQObdHRtyteKyE6B5jhVt3cDIvNF9g31XjP5w6RcEekpD0eUo1201blsay5x5H5Eh5cUpUAzkZXogUm8Ulmk0eL6iLdwYGby7bzC9+Glu0Bfg8vLoMn0xli5dKtjyTThv9gYapFzbiRXSsUuXYFaINBfekgC3c/o/OYU9/QRBEMSnwjjWIwFOEAThQBzpe5M39YQXKxArjY5BtvXJnJ3kTejpxYrdSqMRY/eHV+PJtoGo6iKJcCWqjD4q/s0ITSL2DK2sG7bu3Qy/nH9vRYNAMjb19AIjr4TR9ngAfQFubAp/TLpkrjtejX/+bCb2eBubJQFu5/R/cgp7+gmCIIhPhVQvSpAAJwiCcCCO873cfNNTOHjgCK7/B7vvuPmypw4ewJHr+bVfcibur/8GVVgR7lJtILY8MidgNUg+OxNfestY8R2IKTGvrUuP5j0STh3EgSPX7dP7+qkFuL3T/6kp7OknCIIgPhlSvShBApwgCMKBkO91ZlR4eng99j/MaS0TDd5d3IwtV6zp+c4vPuD5nXhcv349u8XfxUsLK4xlvnmAeFPnXY/HracpDnwmgiAIgnA8xrEeCXCCIAgHQr6XIAiCIAjCeTGO9UiAEwRBOBDyvQRBEARBEM6LcaxHApwgCMKBkO8lCIIgCIJwXoxjPRLgBEEQDoR8L0EQBEEQhPNiHOuRACcIgnAg5HsJgiAIgiCcF+NYjwQ4QRCEAyHfSxAEQRAE4bwYx3okwAmCIBwI+V6CIAiCIAjnxTjWIwFOEAThQMj3EgRBEARBOC/GsV42AU5GRkZGRkZGRkZGRkZGRmY/kyABTkZGRkZGRkZGRkZGRkaWjyah+z+CIAiCIAiCIAiCIPINEuAEQRAEQRAEQRAE8QkgAU4QBEEQBEEQBEEQnwAS4ARBEARBEARBEATxCSABThAEQRAEQRAEQRCfABLgBEEQBEEQBEEQBJHvAP8Hm07TSK5syTwAAAAASUVORK5CYII=;" vertex="1" parent="1">
          <mxGeometry x="-42" y="120" width="842" height="377.71" as="geometry" />
        </mxCell>
      </root>
    </mxGraphModel>
  </diagram>
</mxfile>
